{
.appVersion = "1141";
DisplayStrings = (
""
);
customParameters = (
{
name = fsType;
value = (
);
},
{
name = licenseURL;
value = "http://scripts.sil.org/OFL";
},
{
name = license;
value = "This Font Software is licensed under the SIL Open Font License, Version 1.1. This license is available with a FAQ at: http://scripts.sil.org/OFL";
},
{
name = trademark;
value = "Public Sans is based on Libre Franklin, which is a trademark of Impallari Type.";
},
{
name = description;
value = "Libre Franklin is a reinterpretation and expansion of the 1912 Morris Fuller Benton￢ﾀﾙs classic.";
},
{
name = vendorID;
value = IMPA;
},
{
name = note;
value = "Based on Libre Franklin\012\012";
},
{
name = vsuffix;
value = "";
},
{
name = Axes;
value = (
{
Name = Weight;
Tag = wght;
}
);
}
);
date = "2018-10-05 14:56:17 +0000";
designer = "Pablo Impallari, Rodrigo Fuenzalida (Modified by Dan O. Williams)";
designerURL = "https://designsystem.digital.gov";
familyName = "Public Sans";
featurePrefixes = (
{
automatic = 1;
code = "languagesystem DFLT dflt;\012languagesystem latn dflt;\012languagesystem latn CAT;\012languagesystem latn ROM;\012languagesystem latn MOL;\012languagesystem latn KAZ;\012languagesystem latn TAT;\012languagesystem latn TRK;\012languagesystem latn CRT;\012languagesystem latn AZE;\012";
name = Languagesystems;
}
);
features = (
{
automatic = 1;
code = "feature ccmp;\012feature locl;\012feature subs;\012feature sinf;\012feature sups;\012feature numr;\012feature dnom;\012feature frac;\012feature ordn;\012";
name = aalt;
},
{
automatic = 1;

glyphs = (
{
glyphname = A;
lastChange = "2018-04-30 19:32:15 +0000";
layers = (
{
anchors = (
{
name = ogonek;
position = "{688, 9}";
},
{
name = top;
position = "{446, 723}";
}
);
background = {
anchors = (
{
name = ogonek;
position = "{809, 9}";
},
{
name = top;
position = "{458, 742}";
}
);
paths = (
{
closed = 1;
nodes = (
"258 0 LINE SMOOTH",
"272 0 OFFCURVE",
"279 7 OFFCURVE",
"282 15 CURVE SMOOTH",
"323 133 LINE SMOOTH",
"325 140 OFFCURVE",
"330 144 OFFCURVE",
"338 144 CURVE SMOOTH",
"550 144 LINE SMOOTH",
"560 144 OFFCURVE",
"562 139 OFFCURVE",
"565 132 CURVE SMOOTH",
"604 17 LINE SMOOTH",
"608 4 OFFCURVE",
"616 0 OFFCURVE",
"626 0 CURVE SMOOTH",
"822 0 LINE SMOOTH",
"837 0 OFFCURVE",
"841 20 OFFCURVE",
"836 34 CURVE SMOOTH",
"596 715 LINE SMOOTH",
"590 731 OFFCURVE",
"577 742 OFFCURVE",
"560 742 CURVE SMOOTH",
"363 742 LINE SMOOTH",
"345 742 OFFCURVE",
"339 735 OFFCURVE",
"333 719 CURVE SMOOTH",
"91 37 LINE SMOOTH",
"83 15 OFFCURVE",
"91 0 OFFCURVE",
"106 0 CURVE SMOOTH"
);
},
{
closed = 1;
nodes = (
"374 314 OFFCURVE",
"371 322 OFFCURVE",
"376 335 CURVE SMOOTH",
"437 505 LINE SMOOTH",
"439 512 OFFCURVE",
"446 512 OFFCURVE",
"449 505 CURVE SMOOTH",
"509 334 LINE SMOOTH",
"513 321 OFFCURVE",
"511 314 OFFCURVE",
"500 314 CURVE SMOOTH",
"386 314 LINE SMOOTH"
);
}
);
};
layerId = "258ED206-D907-4350-8EBA-CBDDA1C16BF7";
paths = (
{
closed = 1;
nodes = (
"168 0 LINE",
"237 140 LINE",
"465 140 LINE",
"493 0 LINE",
"685 0 LINE",
"531 723 LINE",
"332 723 LINE",
"-25 0 LINE"
);
},
{
closed = 1;
nodes = (
"405 537 LINE",
"444 306 LINE",
"301 306 LINE"
);
}
);
width = 731;
},
{
anchors = (
{
name = ogonek;
position = "{567, 11}";
},
{
name = top;
position = "{395, 723}";
}
);
background = {
anchors = (
{
name = ogonek;
position = "{715, 11}";
},
{
name = top;
position = "{426, 742}";
}
);
paths = (
{
closed = 1;
nodes = (
"161 0 LINE SMOOTH",
"167 0 OFFCURVE",
"171 2 OFFCURVE",
"172 7 CURVE SMOOTH",
"255 231 LINE SMOOTH",
"257 236 OFFCURVE",
"259 238 OFFCURVE",
"265 238 CURVE SMOOTH",
"587 238 LINE SMOOTH",
"593 238 OFFCURVE",
"595 236 OFFCURVE",
"597 231 CURVE SMOOTH",
"678 8 LINE SMOOTH",
"680 2 OFFCURVE",
"684 0 OFFCURVE",
"691 0 CURVE SMOOTH",
"715 0 LINE SMOOTH",
"722 0 OFFCURVE",
"725 4 OFFCURVE",
"723 10 CURVE SMOOTH",
"461 732 LINE SMOOTH",
"459 739 OFFCURVE",
"453 742 OFFCURVE",
"443 742 CURVE SMOOTH",
"410 742 LINE SMOOTH",
"401 742 OFFCURVE",
"397 739 OFFCURVE",
"394 731 CURVE SMOOTH",
"129 9 LINE SMOOTH",
"127 3 OFFCURVE",
"130 0 OFFCURVE",
"136 0 CURVE SMOOTH"
);
},
{
closed = 1;
nodes = (
"273 278 OFFCURVE",
"271 279 OFFCURVE",
"274 286 CURVE SMOOTH",
"419 677 LINE SMOOTH",
"424 691 OFFCURVE",
"429 691 OFFCURVE",
"434 678 CURVE SMOOTH",
"577 288 LINE SMOOTH",
"579 282 OFFCURVE",
"578 278 OFFCURVE",
"570 278 CURVE SMOOTH",
"279 278 LINE SMOOTH"
);
}
);
};
guideLines = (
{
angle = 69.4967;
position = "{33, 55}";
},
{
angle = 110.0797;
position = "{401, 55}";
}
);
layerId = "91AB5BCA-6A50-42DA-B2F7-8181BF189245";
paths = (
{
closed = 1;
nodes = (
"60 0 LINE",
"172 228 LINE",
"487 228 LINE",
"534 0 LINE",
"575 0 LINE",
"421 723 LINE",
"369 723 LINE",
"20 0 LINE"
);
},
{
closed = 1;
nodes = (
"390 680 LINE",
"478 271 LINE",
"191 271 LINE"
);
}
);
width = 667;
}
);
leftKerningGroup = A;
rightKerningGroup = A;
unicode = 0041;
},
{
glyphname = Aringacute;
lastChange = "2018-04-30 19:32:15 +0000";
layers = (
{
background = {
paths = (
{
closed = 1;
nodes = (
"599 850 OFFCURVE",
"553 899 OFFCURVE",
"488 899 CURVE SMOOTH",
"432 899 OFFCURVE",
"381 863 OFFCURVE",
"373 809 CURVE SMOOTH",
"364 741 OFFCURVE",
"410 693 OFFCURVE",
"475 693 CURVE SMOOTH",
"532 693 OFFCURVE",
"582 728 OFFCURVE",
"590 785 CURVE SMOOTH"
);
},
{
closed = 1;
nodes = (
"526 775 OFFCURVE",
"497 746 OFFCURVE",
"466 746 CURVE SMOOTH",
"444 746 OFFCURVE",
"427 763 OFFCURVE",
"430 784 CURVE SMOOTH",
"434 816 OFFCURVE",
"465 842 OFFCURVE",
"495 842 CURVE SMOOTH",
"518 842 OFFCURVE",
"533 828 OFFCURVE",
"530 806 CURVE SMOOTH"
);
},
{
closed = 1;
nodes = (
"351 742 OFFCURVE",
"347 740 OFFCURVE",
"340 724 CURVE SMOOTH",
"9 42 LINE SMOOTH",
"-1 20 OFFCURVE",
"9 0 OFFCURVE",
"24 0 CURVE SMOOTH",
"176 0 LINE SMOOTH",
"190 0 OFFCURVE",
"194 2 OFFCURVE",
"198 10 CURVE SMOOTH",
"254 127 LINE SMOOTH",
"256 134 OFFCURVE",
"265 144 OFFCURVE",
"273 144 CURVE SMOOTH",
"474 144 LINE SMOOTH",
"484 144 OFFCURVE",
"484 144 OFFCURVE",
"486 137 CURVE SMOOTH",
"506 22 LINE SMOOTH",
"507 9 OFFCURVE",
"517 0 OFFCURVE",
"527 0 CURVE SMOOTH",
"723 0 LINE SMOOTH",
"738 0 OFFCURVE",
"739 15 OFFCURVE",
"736 29 CURVE SMOOTH",
"599 710 LINE SMOOTH",
"597 726 OFFCURVE",
"583 742 OFFCURVE",
"566 742 CURVE SMOOTH",
"368 742 LINE SMOOTH"
);
},
{
closed = 1;
nodes = (
"460 326 OFFCURVE",
"451 314 OFFCURVE",
"440 314 CURVE SMOOTH",
"337 314 LINE SMOOTH",
"325 314 OFFCURVE",
"327 317 OFFCURVE",
"334 330 CURVE SMOOTH",
"415 499 LINE SMOOTH",
"417 506 OFFCURVE",
"425 517 OFFCURVE",
"427 510 CURVE SMOOTH",
"458 339 LINE SMOOTH"
);
},
{
closed = 1;
nodes = (
"491 964 OFFCURVE",
"481 963 OFFCURVE",
"472 938 CURVE SMOOTH",
"449 875 LINE",
"537 875 LINE",
"571 930 LINE SMOOTH",
"577 944 OFFCURVE",
"571 964 OFFCURVE",
"555 964 CURVE SMOOTH",
"510 964 LINE SMOOTH"
);
}
);
};
layerId = "258ED206-D907-4350-8EBA-CBDDA1C16BF7";
paths = (
{
closed = 1;
nodes = (
"584 828 OFFCURVE",
"539 876 OFFCURVE",
"476 876 CURVE SMOOTH",
"421 876 OFFCURVE",
"371 841 OFFCURVE",
"364 788 CURVE SMOOTH",
"355 722 OFFCURVE",
"400 675 OFFCURVE",
"463 675 CURVE SMOOTH",
"518 675 OFFCURVE",
"567 709 OFFCURVE",
"575 765 CURVE SMOOTH"
);
},
{
closed = 1;
nodes = (
"513 755 OFFCURVE",
"484 727 OFFCURVE",
"454 727 CURVE SMOOTH",
"433 727 OFFCURVE",
"416 743 OFFCURVE",
"419 764 CURVE SMOOTH",
"423 795 OFFCURVE",
"453 820 OFFCURVE",
"482 820 CURVE SMOOTH",
"505 820 OFFCURVE",
"519 807 OFFCURVE",
"517 785 CURVE SMOOTH"
);
},
{
closed = 1;
nodes = (
"-11 0 LINE",
"188 0 LINE",
"255 140 LINE",
"473 140 LINE",
"497 0 LINE",
"723 0 LINE",
"578 723 LINE",
"340 723 LINE"
);
},
{
closed = 1;
nodes = (
"318 306 LINE",
"414 507 LINE",
"451 306 LINE"
);
},
{
closed = 1;
nodes = (
"438 853 LINE",
"523 853 LINE",
"577 939 LINE",
"469 939 LINE"
);
}
);
width = 793;
},
{
background = {
paths = (
{
closed = 1;
nodes = (
"498 856 OFFCURVE",
"459 900 OFFCURVE",
"402 900 CURVE SMOOTH",
"348 900 OFFCURVE",
"298 858 OFFCURVE",
"291 806 CURVE SMOOTH",
"283 747 OFFCURVE",
"321 702 OFFCURVE",
"378 702 CURVE SMOOTH",
"433 702 OFFCURVE",
"482 744 OFFCURVE",
"490 800 CURVE SMOOTH"
);
},
{
closed = 1;
nodes = (
"443 771 OFFCURVE",
"413 742 OFFCURVE",
"379 742 CURVE SMOOTH",
"349 742 OFFCURVE",
"326 769 OFFCURVE",
"330 799 CURVE SMOOTH",
"335 835 OFFCURVE",
"368 860 OFFCURVE",
"400 860 CURVE SMOOTH",
"432 860 OFFCURVE",
"452 837 OFFCURVE",
"448 803 CURVE SMOOTH"
);
},
{
closed = 1;
nodes = (
"357 742 OFFCURVE",
"354 740 OFFCURVE",
"350 732 CURVE SMOOTH",
"0 10 LINE",
"-2 5 OFFCURVE",
"2 0 OFFCURVE",
"8 0 CURVE SMOOTH",
"30 0 LINE SMOOTH",
"36 0 OFFCURVE",
"38 1 OFFCURVE",
"41 6 CURVE",
"150 230 LINE SMOOTH",
"152 235 OFFCURVE",
"155 238 OFFCURVE",
"161 238 CURVE SMOOTH",
"457 238 LINE SMOOTH",
"463 238 OFFCURVE",
"464 237 OFFCURVE",
"465 232 CURVE SMOOTH",
"511 9 LINE SMOOTH",
"511 3 OFFCURVE",
"515 0 OFFCURVE",
"522 0 CURVE SMOOTH",
"549 0 LINE SMOOTH",
"556 0 OFFCURVE",
"558 3 OFFCURVE",
"557 9 CURVE SMOOTH",
"414 731 LINE",
"414 738 OFFCURVE",
"408 742 OFFCURVE",
"398 742 CURVE SMOOTH",
"366 742 LINE SMOOTH"
);
},
{
closed = 1;
nodes = (
"457 283 OFFCURVE",
"454 278 OFFCURVE",
"446 278 CURVE SMOOTH",
"177 278 LINE SMOOTH",
"171 278 OFFCURVE",
"171 278 OFFCURVE",
"175 285 CURVE SMOOTH",
"364 676 LINE SMOOTH",
"370 690 OFFCURVE",
"376 692 OFFCURVE",
"378 679 CURVE SMOOTH",
"456 289 LINE SMOOTH"
);
},
{
closed = 1;
nodes = (
"422 964 OFFCURVE",
"418 961 OFFCURVE",
"415 952 CURVE SMOOTH",
"386 875 LINE",
"424 875 LINE",
"466 947 LINE SMOOTH",
"470 957 OFFCURVE",
"467 964 OFFCURVE",
"456 964 CURVE SMOOTH",
"433 964 LINE SMOOTH"
);
}
);
};
layerId = "91AB5BCA-6A50-42DA-B2F7-8181BF189245";
paths = (
{
closed = 1;
nodes = (
"466 834 OFFCURVE",
"429 877 OFFCURVE",
"377 877 CURVE SMOOTH",
"327 877 OFFCURVE",
"280 836 OFFCURVE",
"274 785 CURVE SMOOTH",
"267 728 OFFCURVE",
"302 684 OFFCURVE",
"354 684 CURVE SMOOTH",
"406 684 OFFCURVE",
"451 725 OFFCURVE",
"458 779 CURVE SMOOTH"
);
},
{
closed = 1;
nodes = (
"415 751 OFFCURVE",
"387 723 OFFCURVE",
"355 723 CURVE SMOOTH",
"328 723 OFFCURVE",
"307 749 OFFCURVE",
"310 778 CURVE SMOOTH",
"314 814 OFFCURVE",
"345 838 OFFCURVE",
"375 838 CURVE SMOOTH",
"405 838 OFFCURVE",
"423 815 OFFCURVE",
"419 782 CURVE SMOOTH"
);
},
{
closed = 1;
nodes = (
"0 0 LINE",
"40 0 LINE",
"147 232 LINE",
"434 232 LINE",
"480 0 LINE",
"523 0 LINE",
"386 723 LINE",
"333 723 LINE"
);
},
{
closed = 1;
nodes = (
"164 271 LINE",
"351 679 LINE",
"428 271 LINE"
);
},
{
closed = 1;
nodes = (
"362 853 LINE",
"397 853 LINE",
"446 939 LINE",
"393 939 LINE"
);
}
);
width = 596;
}
);
leftKerningGroup = A;
rightKerningGroup = A;
unicode = 01FA;
},
{
glyphname = AE;
lastChange = "2018-04-30 19:32:15 +0000";
layers = (
{
anchors = (
{
name = top;
position = "{773, 723}";
}
);
background = {
anchors = (
{
name = top;
position = "{793, 742}";
}
);
paths = (
{
closed = 1;
nodes = (
"734 164 LINE SMOOTH",
"725 164 OFFCURVE",
"725 161 OFFCURVE",
"727 172 CURVE SMOOTH",
"741 272 LINE SMOOTH",
"742 280 OFFCURVE",
"754 292 OFFCURVE",
"764 292 CURVE SMOOTH",
"949 292 LINE SMOOTH",
"962 292 OFFCURVE",
"963 294 OFFCURVE",
"964 303 CURVE SMOOTH",
"982 427 LINE SMOOTH",
"984 440 OFFCURVE",
"974 453 OFFCURVE",
"960 453 CURVE SMOOTH",
"780 453 LINE SMOOTH",
"770 453 OFFCURVE",
"767 454 OFFCURVE",
"769 468 CURVE SMOOTH",
"780 553 LINE SMOOTH",
"782 566 OFFCURVE",
"796 578 OFFCURVE",
"811 578 CURVE SMOOTH",
"1111 578 LINE SMOOTH",
"1129 578 OFFCURVE",
"1134 583 OFFCURVE",
"1136 599 CURVE SMOOTH",
"1153 715 LINE SMOOTH",
"1155 728 OFFCURVE",
"1147 742 OFFCURVE",
"1135 742 CURVE SMOOTH",
"486 742 LINE SMOOTH",
"469 742 OFFCURVE",
"463 740 OFFCURVE",
"453 724 CURVE SMOOTH",
"2 42 LINE SMOOTH",
"-12 20 OFFCURVE",
"-3 0 OFFCURVE",
"12 0 CURVE SMOOTH",
"164 0 LINE SMOOTH",
"178 0 OFFCURVE",
"184 2 OFFCURVE",
"189 10 CURVE SMOOTH",
"265 128 LINE",
"268 135 OFFCURVE",
"278 144 OFFCURVE",
"286 144 CURVE SMOOTH",
"487 144 LINE SMOOTH",
"497 144 OFFCURVE",
"496 145 OFFCURVE",
"495 136 CURVE SMOOTH",
"480 31 LINE SMOOTH",
"478 14 OFFCURVE",
"487 0 OFFCURVE",
"507 0 CURVE SMOOTH",
"1042 0 LINE SMOOTH",
"1059 0 OFFCURVE",
"1062 4 OFFCURVE",
"1064 16 CURVE SMOOTH",
"1081 139 LINE SMOOTH",
"1083 153 OFFCURVE",
"1073 164 OFFCURVE",
"1059 164 CURVE SMOOTH"
);
},
{
closed = 1;
nodes = (
"380 314 LINE SMOOTH",
"368 314 OFFCURVE",
"372 317 OFFCURVE",
"382 330 CURVE",
"514 532 LINE SMOOTH",
"533 562 OFFCURVE",
"556 571 OFFCURVE",
"552 541 CURVE SMOOTH",
"524 340 LINE SMOOTH",
"522 327 OFFCURVE",
"509 314 OFFCURVE",
"497 314 CURVE SMOOTH"
);
}
);
};
layerId = "258ED206-D907-4350-8EBA-CBDDA1C16BF7";
paths = (
{
closed = 1;
nodes = (
"707 160 LINE",
"725 284 LINE",
"937 284 LINE",
"961 441 LINE",
"747 441 LINE",
"763 563 LINE",
"1104 563 LINE",
"1127 723 LINE",
"453 723 LINE",
"-25 0 LINE",
"178 0 LINE",
"268 140 LINE",
"483 140 LINE",
"464 0 LINE",
"1035 0 LINE",
"1056 160 LINE"
);
},
{
closed = 1;
nodes = (
"362 306 LINE",
"546 588 LINE",
"507 306 LINE"
);
}
);
width = 1125;
},
{
anchors = (
{
name = top;
position = "{704, 723}";
}
);
background = {
anchors = (
{
name = top;
position = "{756, 742}";
}
);
paths = (
{
closed = 1;
nodes = (
"525 40 LINE SMOOTH",
"518 40 OFFCURVE",
"517 40 OFFCURVE",
"519 48 CURVE SMOOTH",
"560 345 LINE SMOOTH",
"561 353 OFFCURVE",
"565 355 OFFCURVE",
"572 355 CURVE SMOOTH",
"840 355 LINE SMOOTH",
"846 355 OFFCURVE",
"847 355 OFFCURVE",
"847 361 CURVE SMOOTH",
"851 387 LINE SMOOTH",
"852 392 OFFCURVE",
"849 395 OFFCURVE",
"844 395 CURVE SMOOTH",
"575 395 LINE SMOOTH",
"568 395 OFFCURVE",
"567 395 OFFCURVE",
"568 401 CURVE SMOOTH",
"609 692 LINE SMOOTH",
"610 700 OFFCURVE",
"613 702 OFFCURVE",
"620 702 CURVE SMOOTH",
"958 702 LINE SMOOTH",
"964 702 OFFCURVE",
"965 702 OFFCURVE",
"966 708 CURVE SMOOTH",
"970 734 LINE SMOOTH",
"971 739 OFFCURVE",
"968 742 OFFCURVE",
"963 742 CURVE SMOOTH",
"558 742 LINE SMOOTH",
"549 742 OFFCURVE",
"545 740 OFFCURVE",
"540 732 CURVE",
"24 10 LINE SMOOTH",
"20 5 OFFCURVE",
"24 0 OFFCURVE",
"30 0 CURVE SMOOTH",
"55 0 LINE SMOOTH",
"61 0 OFFCURVE",
"64 1 OFFCURVE",
"68 6 CURVE SMOOTH",
"228 230 LINE SMOOTH",
"232 235 OFFCURVE",
"235 238 OFFCURVE",
"241 238 CURVE SMOOTH",
"495 238 LINE SMOOTH",
"498 238 OFFCURVE",
"499 237 OFFCURVE",
"499 234 CURVE SMOOTH",
"467 11 LINE SMOOTH",
"466 3 OFFCURVE",
"469 0 OFFCURVE",
"476 0 CURVE SMOOTH",
"876 0 LINE SMOOTH",
"881 0 OFFCURVE",
"882 1 OFFCURVE",
"883 6 CURVE SMOOTH",
"886 32 LINE SMOOTH",
"887 38 OFFCURVE",
"884 40 OFFCURVE",
"878 40 CURVE SMOOTH"
);
},
{
closed = 1;
nodes = (
"264 278 LINE SMOOTH",
"258 278 OFFCURVE",
"259 278 OFFCURVE",
"264 285 CURVE SMOOTH",
"547 676 LINE SMOOTH",
"557 690 OFFCURVE",
"562 692 OFFCURVE",
"561 679 CURVE",
"506 288 LINE SMOOTH",
"506 283 OFFCURVE",
"502 278 OFFCURVE",
"496 278 CURVE SMOOTH"
);
}
);
};
layerId = "91AB5BCA-6A50-42DA-B2F7-8181BF189245";
paths = (
{
closed = 1;
nodes = (
"485 39 LINE",
"524 346 LINE",
"788 346 LINE",
"794 385 LINE",
"530 385 LINE",
"569 684 LINE",
"898 684 LINE",
"904 723 LINE",
"511 723 LINE",
"20 0 LINE",
"64 0 LINE",
"222 232 LINE",
"468 232 LINE",
"435 0 LINE",
"821 0 LINE",
"826 39 LINE"
);
},
{
closed = 1;
nodes = (
"245 271 LINE",
"527 681 LINE",
"473 271 LINE"
);
}
);
width = 928;
}
);
leftKerningGroup = AE;
leftMetricsKey = A;
rightMetricsKey = E;
unicode = 00C6;
},
{
glyphname = B;
lastChange = "2018-04-30 19:32:15 +0000";
layers = (
{
background = {
paths = (
{
closed = 1;
nodes = (
"470 0 LINE SMOOTH",
"686 0 OFFCURVE",
"789 65 OFFCURVE",
"789 202 CURVE SMOOTH",
"789 287 OFFCURVE",
"750 338 OFFCURVE",
"640 379 CURVE SMOOTH",
"637 380 OFFCURVE",
"637 385 OFFCURVE",
"640 386 CURVE SMOOTH",
"740 432 OFFCURVE",
"771 477 OFFCURVE",
"771 546 CURVE SMOOTH",
"771 675 OFFCURVE",
"661 742 OFFCURVE",
"454 742 CURVE SMOOTH",
"156 742 LINE SMOOTH",
"141 742 OFFCURVE",
"131 731 OFFCURVE",
"131 716 CURVE SMOOTH",
"131 22 LINE SMOOTH",
"131 10 OFFCURVE",
"140 0 OFFCURVE",
"154 0 CURVE SMOOTH"
);
},
{
closed = 1;
nodes = (
"362 150 OFFCURVE",
"358 157 OFFCURVE",
"358 172 CURVE SMOOTH",
"358 277 LINE SMOOTH",
"358 292 OFFCURVE",
"364 298 OFFCURVE",
"381 298 CURVE SMOOTH",
"470 298 LINE SMOOTH",
"520 298 OFFCURVE",
"553 268 OFFCURVE",
"553 227 CURVE SMOOTH",
"553 188 OFFCURVE",
"523 150 OFFCURVE",
"465 150 CURVE SMOOTH",
"375 150 LINE SMOOTH"
);
},
{
closed = 1;
nodes = (
"362 452 OFFCURVE",
"358 459 OFFCURVE",
"358 474 CURVE SMOOTH",
"358 572 LINE SMOOTH",
"358 587 OFFCURVE",
"364 592 OFFCURVE",
"381 592 CURVE SMOOTH",
"463 592 LINE SMOOTH",
"510 592 OFFCURVE",
"547 564 OFFCURVE",
"547 520 CURVE SMOOTH",
"547 481 OFFCURVE",
"517 452 OFFCURVE",
"470 452 CURVE SMOOTH",
"375 452 LINE SMOOTH"
);
}
);
};
layerId = "258ED206-D907-4350-8EBA-CBDDA1C16BF7";
paths = (
{
closed = 1;
nodes = (
"337 0 LINE SMOOTH",
"548 0 OFFCURVE",
"637 62 OFFCURVE",
"656 197 CURVE",
"664 250 OFFCURVE",
"669 334 OFFCURVE",
"546 372 CURVE",
"642 416 OFFCURVE",
"676 465 OFFCURVE",
"685 532 CURVE SMOOTH",
"703 655 OFFCURVE",
"625 723 OFFCURVE",
"423 723 CURVE SMOOTH",
"135 723 LINE",
"33 0 LINE"
);
},
{
closed = 1;
nodes = (
"269 290 LINE",
"391 290 LINE",
"440 290 OFFCURVE",
"467 261 OFFCURVE",
"462 221 CURVE SMOOTH",
"456 183 OFFCURVE",
"422 146 OFFCURVE",
"366 146 CURVE",
"249 146 LINE"
);
},
{
closed = 1;
nodes = (
"309 577 LINE",
"424 577 LINE SMOOTH",
"470 577 OFFCURVE",
"502 550 OFFCURVE",
"496 507 CURVE SMOOTH",
"490 469 OFFCURVE",
"457 440 OFFCURVE",
"411 440 CURVE SMOOTH",
"290 440 LINE"
);
}
);
width = 705;
},
{
background = {
paths = (
{
closed = 1;
nodes = (
"400 0 LINE SMOOTH",
"575 0 OFFCURVE",
"678 65 OFFCURVE",
"678 197 CURVE SMOOTH",
"678 297 OFFCURVE",
"619 356 OFFCURVE",
"529 373 CURVE SMOOTH",
"523 374 OFFCURVE",
"523 380 OFFCURVE",
"529 382 CURVE SMOOTH",
"617 409 OFFCURVE",
"660 467 OFFCURVE",
"660 551 CURVE SMOOTH",
"660 675 OFFCURVE",
"563 742 OFFCURVE",
"397 742 CURVE SMOOTH",
"192 742 LINE SMOOTH",
"185 742 OFFCURVE",
"183 740 OFFCURVE",
"183 732 CURVE SMOOTH",
"183 8 LINE SMOOTH",
"183 3 OFFCURVE",
"186 0 OFFCURVE",
"191 0 CURVE SMOOTH"
);
},
{
closed = 1;
nodes = (
"231 40 OFFCURVE",
"229 43 OFFCURVE",
"229 50 CURVE SMOOTH",
"229 346 LINE SMOOTH",
"229 353 OFFCURVE",
"232 355 OFFCURVE",
"240 355 CURVE SMOOTH",
"409 355 LINE SMOOTH",
"534 355 OFFCURVE",
"630 311 OFFCURVE",
"630 191 CURVE SMOOTH",
"630 82 OFFCURVE",
"553 40 OFFCURVE",
"395 40 CURVE SMOOTH",
"236 40 LINE SMOOTH"
);
},
{
closed = 1;
nodes = (
"231 395 OFFCURVE",
"229 398 OFFCURVE",
"229 405 CURVE SMOOTH",
"229 694 LINE SMOOTH",
"229 700 OFFCURVE",
"232 702 OFFCURVE",
"238 702 CURVE SMOOTH",
"393 702 LINE SMOOTH",
"528 702 OFFCURVE",
"612 654 OFFCURVE",
"612 546 CURVE SMOOTH",
"612 424 OFFCURVE",
"502 395 OFFCURVE",
"409 395 CURVE SMOOTH",
"236 395 LINE SMOOTH"
);
}
);
};
layerId = "91AB5BCA-6A50-42DA-B2F7-8181BF189245";
paths = (
{
closed = 1;
nodes = (
"273 0 LINE",
"435 0 OFFCURVE",
"538 64 OFFCURVE",
"556 193 CURVE",
"568 288 OFFCURVE",
"526 349 OFFCURVE",
"426 366 CURVE",
"529 397 OFFCURVE",
"573 454 OFFCURVE",
"585 536 CURVE SMOOTH",
"600 657 OFFCURVE",
"520 723 OFFCURVE",
"366 723 CURVE SMOOTH",
"173 723 LINE",
"77 0 LINE"
);
},
{
closed = 1;
nodes = (
"160 345 LINE",
"326 345 LINE SMOOTH",
"442 345 OFFCURVE",
"533 304 OFFCURVE",
"518 187 CURVE SMOOTH",
"503 81 OFFCURVE",
"419 41 OFFCURVE",
"273 41 CURVE",
"120 41 LINE"
);
},
{
closed = 1;
nodes = (
"205 682 LINE",
"357 682 LINE SMOOTH",
"482 682 OFFCURVE",
"561 636 OFFCURVE",
"547 531 CURVE SMOOTH",
"531 412 OFFCURVE",
"418 386 OFFCURVE",
"332 386 CURVE SMOOTH",
"166 386 LINE"
);
}
);
width = 633;
}
);
leftMetricsKey = N;
rightKerningGroup = B;
unicode = 0042;
},
{
glyphname = C;
lastChange = "2018-04-30 19:32:15 +0000";
layers = (
{
anchors = (
{
name = bottom;
position = "{355, 0}";
},
{
name = top;
position = "{456, 723}";
}
);
background = {
anchors = (
{
name = bottom;
position = "{466, 0}";
},
{
name = top;
position = "{468, 742}";
}
);
paths = (
{
closed = 1;
nodes = (
"251 752 OFFCURVE",
"113 606 OFFCURVE",
"113 381 CURVE SMOOTH",
"113 155 OFFCURVE",
"251 -10 OFFCURVE",
"466 -10 CURVE SMOOTH",
"697 -10 OFFCURVE",
"783 167 OFFCURVE",
"793 221 CURVE SMOOTH",
"797 247 OFFCURVE",
"786 252 OFFCURVE",
"779 254 CURVE SMOOTH",
"654 279 LINE SMOOTH",
"638 282 OFFCURVE",
"629 279 OFFCURVE",
"626 271 CURVE SMOOTH",
"591 183 OFFCURVE",
"540 154 OFFCURVE",
"473 154 CURVE SMOOTH",
"392 154 OFFCURVE",
"351 212 OFFCURVE",
"351 377 CURVE SMOOTH",
"351 540 OFFCURVE",
"399 598 OFFCURVE",
"474 598 CURVE SMOOTH",
"542 598 OFFCURVE",
"569 544 OFFCURVE",
"581 475 CURVE",
"771 487 LINE",
"786 489 OFFCURVE",
"790 494 OFFCURVE",
"784 522 CURVE SMOOTH",
"758 655 OFFCURVE",
"637 752 OFFCURVE",
"468 752 CURVE SMOOTH"
);
}
);
};
guideLines = (
{
angle = -183.559;
position = "{454, 314}";
}
);
layerId = "258ED206-D907-4350-8EBA-CBDDA1C16BF7";
paths = (
{
closed = 1;
nodes = (
"246 733 OFFCURVE",
"92 590 OFFCURVE",
"61 371 CURVE SMOOTH",
"31 151 OFFCURVE",
"144 -10 OFFCURVE",
"353 -10 CURVE SMOOTH",
"584 -10 OFFCURVE",
"663 107 OFFCURVE",
"705 257 CURVE",
"514 270 LINE",
"492 203 OFFCURVE",
"448 146 OFFCURVE",
"381 146 CURVE SMOOTH",
"308 146 OFFCURVE",
"251 207 OFFCURVE",
"273 367 CURVE SMOOTH",
"296 526 OFFCURVE",
"369 577 OFFCURVE",
"442 577 CURVE SMOOTH",
"508 577 OFFCURVE",
"538 530 OFFCURVE",
"540 463 CURVE",
"735 475 LINE",
"741 631 OFFCURVE",
"629 733 OFFCURVE",
"457 733 CURVE SMOOTH"
);
}
);
width = 745;
},
{
anchors = (
{
name = bottom;
position = "{312, 0}";
},
{
name = top;
position = "{408, 723}";
}
);
background = {
anchors = (
{
name = bottom;
position = "{446, 0}";
},
{
name = top;
position = "{440, 742}";
}
);
guideLines = (
{
angle = 90;
position = "{701, 369}";
}
);
paths = (
{
closed = 1;
nodes = (
"253 752 OFFCURVE",
"143 610 OFFCURVE",
"143 368 CURVE SMOOTH",
"143 127 OFFCURVE",
"253 -10 OFFCURVE",
"446 -10 CURVE SMOOTH",
"567 -10 OFFCURVE",
"667 61 OFFCURVE",
"702 171 CURVE SMOOTH",
"703 175 OFFCURVE",
"702 177 OFFCURVE",
"700 178 CURVE SMOOTH",
"666 188 LINE SMOOTH",
"663 189 OFFCURVE",
"661 188 OFFCURVE",
"660 186 CURVE SMOOTH",
"620 81 OFFCURVE",
"554 32 OFFCURVE",
"450 32 CURVE SMOOTH",
"277 32 OFFCURVE",
"191 153 OFFCURVE",
"191 368 CURVE SMOOTH",
"191 591 OFFCURVE",
"279 710 OFFCURVE",
"442 710 CURVE SMOOTH",
"543 710 OFFCURVE",
"623 647 OFFCURVE",
"646 552 CURVE SMOOTH",
"647 546 OFFCURVE",
"649 544 OFFCURVE",
"653 545 CURVE SMOOTH",
"689 549 LINE SMOOTH",
"694 549 OFFCURVE",
"695 551 OFFCURVE",
"694 556 CURVE SMOOTH",
"682 659 OFFCURVE",
"562 752 OFFCURVE",
"440 752 CURVE SMOOTH"
);
}
);
};
guideLines = (
{
angle = 90;
position = "{60, 171}";
}
);
layerId = "91AB5BCA-6A50-42DA-B2F7-8181BF189245";
paths = (
{
closed = 1;
nodes = (
"229 733 OFFCURVE",
"116 594 OFFCURVE",
"84 359 CURVE SMOOTH",
"54 124 OFFCURVE",
"132 -10 OFFCURVE",
"310 -10 CURVE SMOOTH",
"423 -10 OFFCURVE",
"543 69 OFFCURVE",
"568 172 CURVE",
"529 184 LINE",
"495 87 OFFCURVE",
"412 31 OFFCURVE",
"318 31 CURVE SMOOTH",
"157 31 OFFCURVE",
"99 149 OFFCURVE",
"126 359 CURVE SMOOTH",
"156 576 OFFCURVE",
"249 692 OFFCURVE",
"399 692 CURVE SMOOTH",
"517 692 OFFCURVE",
"574 623 OFFCURVE",
"577 529 CURVE",
"619 536 LINE",
"622 639 OFFCURVE",
"542 733 OFFCURVE",
"402 733 CURVE SMOOTH"
);
}
);
width = 645;
}
);
leftKerningGroup = O;
unicode = 0043;
},
{
glyphname = D;
lastChange = "2018-04-30 19:32:15 +0000";
layers = (
{
anchors = (
{
name = center;
position = "{387, 361}";
},
{
name = top;
position = "{438, 723}";
}
);
background = {
anchors = (
{
name = center;
position = "{449, 371}";
},
{
name = top;
position = "{449, 742}";
}
);
paths = (
{
closed = 1;
nodes = (
"111 0 LINE",
"403 0 LINE SMOOTH",
"666 0 OFFCURVE",
"799 157 OFFCURVE",
"799 373 CURVE SMOOTH",
"799 584 OFFCURVE",
"672 731 OFFCURVE",
"404 741 CURVE SMOOTH",
"340 743 OFFCURVE",
"132 742 OFFCURVE",
"111 742 CURVE"
);
},
{
closed = 1;
nodes = (
"358 585 LINE SMOOTH",
"510 585 OFFCURVE",
"561 513 OFFCURVE",
"561 376 CURVE SMOOTH",
"561 215 OFFCURVE",
"485 157 OFFCURVE",
"359 157 CURVE SMOOTH",
"338 157 LINE",
"338 585 LINE"
);
}
);
};
layerId = "258ED206-D907-4350-8EBA-CBDDA1C16BF7";
paths = (
{
closed = 1;
nodes = (
"33 0 LINE",
"291 0 LINE SMOOTH",
"548 0 OFFCURVE",
"688 153 OFFCURVE",
"717 363 CURVE SMOOTH",
"746 569 OFFCURVE",
"653 712 OFFCURVE",
"394 722 CURVE SMOOTH",
"331 724 OFFCURVE",
"155 723 OFFCURVE",
"135 723 CURVE"
);
},
{
closed = 1;
nodes = (
"377 570 LINE SMOOTH",
"477 570 OFFCURVE",
"534 500 OFFCURVE",
"516 366 CURVE SMOOTH",
"493 209 OFFCURVE",
"393 153 OFFCURVE",
"319 153 CURVE SMOOTH",
"250 153 LINE",
"308 570 LINE"
);
}
);
width = 742;
},
{
anchors = (
{
name = center;
position = "{335, 361}";
},
{
name = top;
position = "{378, 723}";
}
);
background = {
anchors = (
{
name = center;
position = "{413, 371}";
},
{
name = top;
position = "{407, 742}";
}
);
paths = (
{
closed = 1;
nodes = (
"185 0 LINE",
"296 0 LINE SMOOTH",
"568 0 OFFCURVE",
"697 115 OFFCURVE",
"697 376 CURVE SMOOTH",
"697 624 OFFCURVE",
"585 739 OFFCURVE",
"310 741 CURVE SMOOTH",
"248 741 OFFCURVE",
"187 742 OFFCURVE",
"185 742 CURVE"
);
},
{
closed = 1;
nodes = (
"233 701 OFFCURVE",
"281 701 OFFCURVE",
"299 701 CURVE SMOOTH",
"543 696 OFFCURVE",
"649 628 OFFCURVE",
"649 372 CURVE SMOOTH",
"649 130 OFFCURVE",
"550 40 OFFCURVE",
"292 40 CURVE SMOOTH",
"231 40 LINE",
"231 701 LINE"
);
}
);
};
layerId = "91AB5BCA-6A50-42DA-B2F7-8181BF189245";
paths = (
{
closed = 1;
nodes = (
"77 0 LINE",
"178 0 LINE SMOOTH",
"430 0 OFFCURVE",
"564 112 OFFCURVE",
"598 366 CURVE SMOOTH",
"630 608 OFFCURVE",
"542 720 OFFCURVE",
"287 722 CURVE SMOOTH",
"230 722 OFFCURVE",
"175 723 OFFCURVE",
"173 723 CURVE"
);
},
{
closed = 1;
nodes = (
"272 681 LINE SMOOTH",
"481 681 OFFCURVE",
"590 612 OFFCURVE",
"557 362 CURVE SMOOTH",
"526 127 OFFCURVE",
"402 41 OFFCURVE",
"180 41 CURVE SMOOTH",
"124 41 LINE",
"209 681 LINE"
);
}
);
width = 649;
}
);
leftMetricsKey = N;
rightKerningGroup = O;
unicode = 0044;
},
{
glyphname = Eth;
lastChange = "2018-04-30 19:32:15 +0000";
layers = (
{
background = {
components = (
{
name = D;
transform = "{1, 0, 0, 1, 14, 0}";
}
);
paths = (
{
closed = 1;
nodes = (
"465 420 OFFCURVE",
"456 434 OFFCURVE",
"445 434 CURVE SMOOTH",
"74 434 LINE SMOOTH",
"62 434 OFFCURVE",
"58 432 OFFCURVE",
"56 417 CURVE SMOOTH",
"43 324 LINE SMOOTH",
"41 307 OFFCURVE",
"49 293 OFFCURVE",
"69 293 CURVE SMOOTH",
"418 293 LINE SMOOTH",
"441 293 OFFCURVE",
"447 295 OFFCURVE",
"450 315 CURVE SMOOTH",
"463 408 LINE SMOOTH"
);
}
);
};
components = (
{
name = D;
transform = "{1, 0, 0, 1, 14, 0}";
}
);
layerId = "258ED206-D907-4350-8EBA-CBDDA1C16BF7";
paths = (
{
closed = 1;
nodes = (
"57 423 LINE",
"38 285 LINE",
"436 285 LINE",
"455 423 LINE"
);
}
);
width = 756;
},
{
background = {
components = (
{
name = D;
transform = "{1, 0, 0, 1, -19, 0}";
}
);
paths = (
{
closed = 1;
nodes = (
"358 391 OFFCURVE",
"355 395 OFFCURVE",
"350 395 CURVE SMOOTH",
"57 395 LINE SMOOTH",
"52 395 OFFCURVE",
"51 393 OFFCURVE",
"50 387 CURVE SMOOTH",
"47 364 LINE SMOOTH",
"46 357 OFFCURVE",
"48 353 OFFCURVE",
"56 353 CURVE SMOOTH",
"340 353 LINE SMOOTH",
"349 353 OFFCURVE",
"353 355 OFFCURVE",
"354 363 CURVE SMOOTH",
"357 386 LINE SMOOTH"
);
}
);
};
components = (
{
name = D;
transform = "{1, 0, 0, 1, -19, 0}";
}
);
layerId = "91AB5BCA-6A50-42DA-B2F7-8181BF189245";
paths = (
{
closed = 1;
nodes = (
"52 385 LINE",
"48 344 LINE",
"332 344 LINE",
"336 385 LINE"
);
}
);
width = 630;
}
);
rightKerningGroup = O;
rightMetricsKey = D;
unicode = 00D0;
},
{
glyphname = E;
lastChange = "2018-04-30 19:32:15 +0000";
layers = (
{
anchors = (
{
name = bottom;
position = "{299, 0}";
},
{
name = ogonek;
position = "{567, 10}";
},
{
name = top;
position = "{401, 723}";
}
);
background = {
anchors = (
{
name = bottom;
position = "{411, 0}";
},
{
name = ogonek;
position = "{685, 10}";
},
{
name = top;
position = "{411, 742}";
}
);
paths = (
{
closed = 1;
nodes = (
"127 25 LINE SMOOTH",
"127 8 OFFCURVE",
"134 0 OFFCURVE",
"154 0 CURVE SMOOTH",
"689 0 LINE SMOOTH",
"706 0 OFFCURVE",
"713 10 OFFCURVE",
"713 22 CURVE SMOOTH",
"713 145 LINE SMOOTH",
"713 159 OFFCURVE",
"705 164 OFFCURVE",
"691 164 CURVE SMOOTH",
"366 164 LINE SMOOTH",
"357 164 OFFCURVE",
"354 167 OFFCURVE",
"354 178 CURVE SMOOTH",
"354 278 LINE SMOOTH",
"354 286 OFFCURVE",
"360 292 OFFCURVE",
"370 292 CURVE SMOOTH",
"555 292 LINE SMOOTH",
"568 292 OFFCURVE",
"573 300 OFFCURVE",
"573 309 CURVE SMOOTH",
"573 433 LINE SMOOTH",
"573 446 OFFCURVE",
"566 453 OFFCURVE",
"552 453 CURVE SMOOTH",
"372 453 LINE SMOOTH",
"362 453 OFFCURVE",
"354 460 OFFCURVE",
"354 474 CURVE SMOOTH",
"354 559 LINE SMOOTH",
"354 572 OFFCURVE",
"362 578 OFFCURVE",
"377 578 CURVE SMOOTH",
"677 578 LINE SMOOTH",
"695 578 OFFCURVE",
"703 589 OFFCURVE",
"703 605 CURVE SMOOTH",
"704 721 LINE SMOOTH",
"704 734 OFFCURVE",
"698 742 OFFCURVE",
"686 742 CURVE SMOOTH",
"146 742 LINE SMOOTH",
"134 742 OFFCURVE",
"127 734 OFFCURVE",
"127 719 CURVE SMOOTH"
);
}
);
};
layerId = "258ED206-D907-4350-8EBA-CBDDA1C16BF7";
paths = (
{
closed = 1;
nodes = (
"567 0 LINE",
"590 162 LINE",
"251 162 LINE",
"268 284 LINE",
"551 284 LINE",
"572 441 LINE",
"290 441 LINE",
"308 561 LINE",
"644 561 LINE",
"668 723 LINE",
"135 723 LINE",
"33 0 LINE"
);
}
);
width = 658;
},
{
anchors = (
{
name = bottom;
position = "{305, 0}";
},
{
name = ogonek;
position = "{477, 10}";
},
{
name = top;
position = "{383, 723}";
}
);
background = {
anchors = (
{
name = bottom;
position = "{433, 0}";
},
{
name = ogonek;
position = "{618, 10}";
},
{
name = top;
position = "{414, 742}";
}
);
paths = (
{
closed = 1;
nodes = (
"183 10 LINE SMOOTH",
"183 2 OFFCURVE",
"185 0 OFFCURVE",
"192 0 CURVE SMOOTH",
"622 0 LINE SMOOTH",
"627 0 OFFCURVE",
"629 2 OFFCURVE",
"629 7 CURVE SMOOTH",
"629 33 LINE SMOOTH",
"629 39 OFFCURVE",
"627 40 OFFCURVE",
"621 40 CURVE SMOOTH",
"238 40 LINE SMOOTH",
"231 40 OFFCURVE",
"229 41 OFFCURVE",
"229 49 CURVE SMOOTH",
"229 346 LINE SMOOTH",
"229 354 OFFCURVE",
"231 355 OFFCURVE",
"238 355 CURVE SMOOTH",
"526 355 LINE SMOOTH",
"532 355 OFFCURVE",
"534 356 OFFCURVE",
"534 362 CURVE SMOOTH",
"534 388 LINE SMOOTH",
"534 393 OFFCURVE",
"532 395 OFFCURVE",
"527 395 CURVE SMOOTH",
"238 395 LINE SMOOTH",
"231 395 OFFCURVE",
"229 396 OFFCURVE",
"229 402 CURVE SMOOTH",
"229 693 LINE SMOOTH",
"229 701 OFFCURVE",
"231 702 OFFCURVE",
"238 702 CURVE SMOOTH",
"606 702 LINE SMOOTH",
"612 702 OFFCURVE",
"614 703 OFFCURVE",
"614 709 CURVE SMOOTH",
"614 735 LINE SMOOTH",
"614 740 OFFCURVE",
"612 742 OFFCURVE",
"607 742 CURVE SMOOTH",
"192 742 LINE SMOOTH",
"185 742 OFFCURVE",
"183 740 OFFCURVE",
"183 732 CURVE SMOOTH"
);
}
);
};
layerId = "91AB5BCA-6A50-42DA-B2F7-8181BF189245";
paths = (
{
closed = 1;
nodes = (
"485 0 LINE",
"490 41 LINE",
"120 42 LINE",
"160 345 LINE",
"492 345 LINE",
"497 386 LINE",
"166 386 LINE",
"205 682 LINE",
"562 682 LINE",
"567 723 LINE",
"173 723 LINE",
"77 0 LINE"
);
}
);
width = 592;
}
);
leftMetricsKey = N;
unicode = 0045;
},
{
glyphname = F;
lastChange = "2018-04-30 19:32:15 +0000";
layers = (
{
background = {
paths = (
{
closed = 1;
nodes = (
"111 25 LINE SMOOTH",
"111 8 OFFCURVE",
"117 0 OFFCURVE",
"138 0 CURVE",
"305 0 LINE SMOOTH",
"328 0 OFFCURVE",
"338 8 OFFCURVE",
"338 29 CURVE SMOOTH",
"338 271 LINE SMOOTH",
"338 280 OFFCURVE",
"344 286 OFFCURVE",
"354 286 CURVE SMOOTH",
"541 286 LINE SMOOTH",
"555 286 OFFCURVE",
"559 293 OFFCURVE",
"559 303 CURVE SMOOTH",
"559 425 LINE SMOOTH",
"559 438 OFFCURVE",
"553 445 OFFCURVE",
"539 445 CURVE SMOOTH",
"356 445 LINE SMOOTH",
"345 445 OFFCURVE",
"338 451 OFFCURVE",
"338 465 CURVE SMOOTH",
"338 559 LINE SMOOTH",
"338 572 OFFCURVE",
"345 578 OFFCURVE",
"361 578 CURVE SMOOTH",
"655 578 LINE SMOOTH",
"673 578 OFFCURVE",
"680 589 OFFCURVE",
"680 605 CURVE SMOOTH",
"681 721 LINE SMOOTH",
"681 734 OFFCURVE",
"675 742 OFFCURVE",
"663 742 CURVE SMOOTH",
"130 742 LINE SMOOTH",
"119 742 OFFCURVE",
"111 734 OFFCURVE",
"111 719 CURVE SMOOTH"
);
}
);
};
layerId = "258ED206-D907-4350-8EBA-CBDDA1C16BF7";
paths = (
{
closed = 1;
nodes = (
"33 0 LINE",
"228 0 LINE",
"267 279 LINE",
"546 279 LINE",
"567 434 LINE",
"289 434 LINE",
"307 563 LINE",
"640 563 LINE",
"664 723 LINE",
"135 723 LINE"
);
}
);
width = 629;
},
{
background = {
paths = (
{
closed = 1;
nodes = (
"187 10 LINE SMOOTH",
"187 2 OFFCURVE",
"189 0 OFFCURVE",
"196 0 CURVE SMOOTH",
"226 0 LINE SMOOTH",
"231 0 OFFCURVE",
"233 2 OFFCURVE",
"233 7 CURVE SMOOTH",
"233 333 LINE SMOOTH",
"233 341 OFFCURVE",
"235 342 OFFCURVE",
"242 342 CURVE SMOOTH",
"540 342 LINE SMOOTH",
"546 342 OFFCURVE",
"548 343 OFFCURVE",
"548 349 CURVE SMOOTH",
"548 375 LINE SMOOTH",
"548 380 OFFCURVE",
"546 382 OFFCURVE",
"541 382 CURVE SMOOTH",
"242 382 LINE SMOOTH",
"235 382 OFFCURVE",
"233 383 OFFCURVE",
"233 389 CURVE SMOOTH",
"233 693 LINE SMOOTH",
"233 701 OFFCURVE",
"235 702 OFFCURVE",
"242 702 CURVE SMOOTH",
"600 702 LINE SMOOTH",
"606 702 OFFCURVE",
"608 703 OFFCURVE",
"608 709 CURVE SMOOTH",
"608 735 LINE SMOOTH",
"608 740 OFFCURVE",
"606 742 OFFCURVE",
"601 742 CURVE SMOOTH",
"196 742 LINE SMOOTH",
"189 742 OFFCURVE",
"187 740 OFFCURVE",
"187 732 CURVE SMOOTH"
);
}
);
};
layerId = "91AB5BCA-6A50-42DA-B2F7-8181BF189245";
paths = (
{
closed = 1;
nodes = (
"77 0 LINE",
"118 0 LINE",
"165 346 LINE",
"488 346 LINE",
"493 387 LINE",
"170 387 LINE",
"209 682 LINE",
"556 682 LINE",
"562 723 LINE",
"173 723 LINE"
);
}
);
width = 543;
}
);
leftMetricsKey = N;
rightKerningGroup = F;
unicode = 0046;
},
{
glyphname = G;
lastChange = "2018-04-30 19:32:15 +0000";
layers = (
{
anchors = (
{
name = bottom;
position = "{352, 0}";
},
{
name = top;
position = "{454, 723}";
}
);
background = {
anchors = (
{
name = bottom;
position = "{465, 0}";
},
{
name = top;
position = "{465, 742}";
}
);
paths = (
{
closed = 1;
nodes = (
"581 -10 OFFCURVE",
"632 40 OFFCURVE",
"668 75 CURVE SMOOTH",
"673 81 OFFCURVE",
"676 81 OFFCURVE",
"679 77 CURVE SMOOTH",
"719 19 LINE SMOOTH",
"729 5 OFFCURVE",
"739 0 OFFCURVE",
"751 0 CURVE SMOOTH",
"789 0 LINE SMOOTH",
"799 0 OFFCURVE",
"806 8 OFFCURVE",
"806 17 CURVE SMOOTH",
"806 344 LINE SMOOTH",
"806 362 OFFCURVE",
"793 375 OFFCURVE",
"768 375 CURVE SMOOTH",
"488 377 LINE SMOOTH",
"473 377 OFFCURVE",
"467 370 OFFCURVE",
"467 360 CURVE SMOOTH",
"467 264 LINE SMOOTH",
"467 247 OFFCURVE",
"473 242 OFFCURVE",
"487 242 CURVE SMOOTH",
"581 242 LINE SMOOTH",
"591 242 OFFCURVE",
"594 236 OFFCURVE",
"590 225 CURVE",
"587 216 LINE",
"569 170 OFFCURVE",
"535 146 OFFCURVE",
"479 146 CURVE SMOOTH",
"403 146 OFFCURVE",
"351 193 OFFCURVE",
"351 374 CURVE SMOOTH",
"351 544 OFFCURVE",
"397 597 OFFCURVE",
"471 597 CURVE SMOOTH",
"543 597 OFFCURVE",
"578 547 OFFCURVE",
"588 492 CURVE SMOOTH",
"591 479 OFFCURVE",
"592 472 OFFCURVE",
"608 472 CURVE SMOOTH",
"779 498 LINE SMOOTH",
"795 500 OFFCURVE",
"799 505 OFFCURVE",
"793 533 CURVE SMOOTH",
"769 640 OFFCURVE",
"656 752 OFFCURVE",
"476 752 CURVE SMOOTH",
"262 752 OFFCURVE",
"113 599 OFFCURVE",
"113 368 CURVE SMOOTH",
"113 145 OFFCURVE",
"252 -10 OFFCURVE",
"463 -10 CURVE SMOOTH"
);
}
);
};
layerId = "258ED206-D907-4350-8EBA-CBDDA1C16BF7";
paths = (
{
closed = 1;
nodes = (
"467 -10 OFFCURVE",
"527 43 OFFCURVE",
"568 80 CURVE",
"557 0 LINE",
"684 0 LINE",
"738 382 LINE",
"408 384 LINE",
"389 252 LINE",
"515 252 LINE",
"502 227 LINE",
"479 182 OFFCURVE",
"443 159 OFFCURVE",
"388 159 CURVE SMOOTH",
"326 159 OFFCURVE",
"247 188 OFFCURVE",
"271 364 CURVE SMOOTH",
"294 520 OFFCURVE",
"366 572 OFFCURVE",
"438 572 CURVE SMOOTH",
"505 572 OFFCURVE",
"531 527 OFFCURVE",
"540 458 CURVE",
"747 488 LINE",
"740 608 OFFCURVE",
"659 733 OFFCURVE",
"465 733 CURVE SMOOTH",
"257 733 OFFCURVE",
"91 584 OFFCURVE",
"59 359 CURVE SMOOTH",
"29 141 OFFCURVE",
"143 -10 OFFCURVE",
"348 -10 CURVE SMOOTH"
);
}
);
width = 785;
},
{
anchors = (
{
name = bottom;
position = "{315, 0}";
},
{
name = top;
position = "{407, 723}";
}
);
background = {
anchors = (
{
name = bottom;
position = "{444, 0}";
},
{
name = top;
position = "{439, 742}";
}
);
paths = (
{
closed = 1;
nodes = (
"549 -10 OFFCURVE",
"622 45 OFFCURVE",
"661 115 CURVE SMOOTH",
"665 122 OFFCURVE",
"669 121 OFFCURVE",
"669 115 CURVE SMOOTH",
"669 9 LINE SMOOTH",
"669 0 OFFCURVE",
"674 0 OFFCURVE",
"682 0 CURVE SMOOTH",
"699 0 LINE SMOOTH",
"706 0 OFFCURVE",
"709 2 OFFCURVE",
"709 11 CURVE SMOOTH",
"709 371 LINE SMOOTH",
"709 375 OFFCURVE",
"707 377 OFFCURVE",
"703 377 CURVE SMOOTH",
"467 377 LINE SMOOTH",
"464 377 OFFCURVE",
"462 375 OFFCURVE",
"462 371 CURVE SMOOTH",
"462 348 LINE SMOOTH",
"462 344 OFFCURVE",
"464 342 OFFCURVE",
"469 342 CURVE SMOOTH",
"658 342 LINE SMOOTH",
"664 342 OFFCURVE",
"669 341 OFFCURVE",
"669 334 CURVE SMOOTH",
"669 255 LINE SMOOTH",
"669 161 OFFCURVE",
"597 32 OFFCURVE",
"439 32 CURVE SMOOTH",
"276 32 OFFCURVE",
"191 153 OFFCURVE",
"191 374 CURVE SMOOTH",
"191 584 OFFCURVE",
"278 710 OFFCURVE",
"439 710 CURVE SMOOTH",
"545 710 OFFCURVE",
"630 640 OFFCURVE",
"646 551 CURVE SMOOTH",
"647 546 OFFCURVE",
"650 544 OFFCURVE",
"653 545 CURVE SMOOTH",
"688 551 LINE SMOOTH",
"693 552 OFFCURVE",
"693 555 OFFCURVE",
"693 559 CURVE SMOOTH",
"681 663 OFFCURVE",
"562 752 OFFCURVE",
"439 752 CURVE SMOOTH",
"258 752 OFFCURVE",
"143 614 OFFCURVE",
"143 368 CURVE SMOOTH",
"143 129 OFFCURVE",
"253 -10 OFFCURVE",
"438 -10 CURVE SMOOTH"
);
}
);
};
layerId = "91AB5BCA-6A50-42DA-B2F7-8181BF189245";
paths = (
{
closed = 1;
nodes = (
"415 -10 OFFCURVE",
"493 50 OFFCURVE",
"540 126 CURVE",
"524 0 LINE",
"561 0 LINE",
"610 367 LINE",
"382 367 LINE",
"377 333 LINE",
"568 333 LINE",
"557 248 LINE SMOOTH",
"544 157 OFFCURVE",
"461 29 OFFCURVE",
"314 29 CURVE SMOOTH",
"164 29 OFFCURVE",
"95 149 OFFCURVE",
"124 364 CURVE SMOOTH",
"152 569 OFFCURVE",
"254 692 OFFCURVE",
"404 692 CURVE SMOOTH",
"502 692 OFFCURVE",
"571 621 OFFCURVE",
"574 530 CURVE",
"618 538 LINE",
"621 643 OFFCURVE",
"522 733 OFFCURVE",
"408 733 CURVE SMOOTH",
"240 733 OFFCURVE",
"117 598 OFFCURVE",
"84 359 CURVE SMOOTH",
"54 126 OFFCURVE",
"137 -10 OFFCURVE",
"309 -10 CURVE SMOOTH"
);
}
);
width = 690;
}
);
leftKerningGroup = O;
rightKerningGroup = G;
unicode = 0047;
},
{
glyphname = H;
lastChange = "2018-04-30 19:32:15 +0000";
layers = (
{
anchors = (
{
name = bottom;
position = "{332, 0}";
},
{
name = top;
position = "{436, 723}";
}
);
background = {
anchors = (
{
name = bottom;
position = "{445, 0}";
},
{
name = top;
position = "{447, 742}";
}
);
paths = (
{
closed = 1;
nodes = (
"544 297 OFFCURVE",
"550 290 OFFCURVE",
"550 282 CURVE SMOOTH",
"550 29 LINE SMOOTH",
"550 8 OFFCURVE",
"560 0 OFFCURVE",
"583 0 CURVE SMOOTH",
"750 0 LINE SMOOTH",
"771 0 OFFCURVE",
"777 8 OFFCURVE",
"777 25 CURVE SMOOTH",
"777 719 LINE SMOOTH",
"777 734 OFFCURVE",
"769 742 OFFCURVE",
"758 742 CURVE SMOOTH",
"568 742 LINE SMOOTH",
"557 742 OFFCURVE",
"550 734 OFFCURVE",
"550 721 CURVE SMOOTH",
"550 489 LINE SMOOTH",
"550 476 OFFCURVE",
"543 469 OFFCURVE",
"532 469 CURVE SMOOTH",
"364 469 LINE SMOOTH",
"353 469 OFFCURVE",
"346 476 OFFCURVE",
"346 489 CURVE SMOOTH",
"346 721 LINE SMOOTH",
"346 734 OFFCURVE",
"339 742 OFFCURVE",
"328 742 CURVE SMOOTH",
"138 742 LINE SMOOTH",
"127 742 OFFCURVE",
"119 734 OFFCURVE",
"119 719 CURVE SMOOTH",
"119 25 LINE SMOOTH",
"119 8 OFFCURVE",
"125 0 OFFCURVE",
"146 0 CURVE SMOOTH",
"313 0 LINE SMOOTH",
"336 0 OFFCURVE",
"346 8 OFFCURVE",
"346 29 CURVE SMOOTH",
"346 282 LINE SMOOTH",
"346 290 OFFCURVE",
"352 297 OFFCURVE",
"362 297 CURVE SMOOTH",
"534 297 LINE SMOOTH"
);
}
);
};
layerId = "258ED206-D907-4350-8EBA-CBDDA1C16BF7";
paths = (
{
closed = 1;
nodes = (
"446 0 LINE",
"641 0 LINE",
"743 723 LINE",
"548 723 LINE",
"510 449 LINE",
"291 449 LINE",
"329 723 LINE",
"135 723 LINE",
"33 0 LINE",
"228 0 LINE",
"268 289 LINE",
"486 289 LINE"
);
}
);
width = 747;
},
{
anchors = (
{
name = bottom;
position = "{304, 0}";
},
{
name = top;
position = "{400, 723}";
}
);
background = {
anchors = (
{
name = bottom;
position = "{432, 0}";
},
{
name = top;
position = "{432, 742}";
}
);
paths = (
{
closed = 1;
nodes = (
"632 366 OFFCURVE",
"634 364 OFFCURVE",
"634 359 CURVE SMOOTH",
"634 9 LINE SMOOTH",
"634 2 OFFCURVE",
"637 0 OFFCURVE",
"644 0 CURVE SMOOTH",
"671 0 LINE SMOOTH",
"677 0 OFFCURVE",
"680 3 OFFCURVE",
"680 10 CURVE SMOOTH",
"680 732 LINE SMOOTH",
"680 740 OFFCURVE",
"678 742 OFFCURVE",
"671 742 CURVE SMOOTH",
"642 742 LINE SMOOTH",
"636 742 OFFCURVE",
"634 739 OFFCURVE",
"634 733 CURVE SMOOTH",
"634 414 LINE SMOOTH",
"634 408 OFFCURVE",
"632 406 OFFCURVE",
"626 406 CURVE SMOOTH",
"238 406 LINE SMOOTH",
"231 406 OFFCURVE",
"229 407 OFFCURVE",
"229 415 CURVE SMOOTH",
"229 732 LINE SMOOTH",
"229 740 OFFCURVE",
"227 742 OFFCURVE",
"220 742 CURVE SMOOTH",
"192 742 LINE SMOOTH",
"185 742 OFFCURVE",
"183 740 OFFCURVE",
"183 732 CURVE SMOOTH",
"183 10 LINE SMOOTH",
"183 3 OFFCURVE",
"185 0 OFFCURVE",
"192 0 CURVE SMOOTH",
"219 0 LINE SMOOTH",
"226 0 OFFCURVE",
"229 3 OFFCURVE",
"229 9 CURVE SMOOTH",
"229 360 LINE SMOOTH",
"229 363 OFFCURVE",
"231 366 OFFCURVE",
"235 366 CURVE SMOOTH",
"627 366 LINE SMOOTH"
);
}
);
};
layerId = "91AB5BCA-6A50-42DA-B2F7-8181BF189245";
paths = (
{
closed = 1;
nodes = (
"493 0 LINE",
"530 0 LINE",
"627 723 LINE",
"589 723 LINE",
"546 397 LINE",
"167 397 LINE",
"210 723 LINE",
"173 723 LINE",
"77 0 LINE",
"114 0 LINE",
"162 356 LINE",
"540 356 LINE"
);
}
);
width = 674;
}
);
leftMetricsKey = N;
rightMetricsKey = N;
unicode = 0048;
},
{
glyphname = Hbar;
lastChange = "2018-04-30 19:32:15 +0000";
layers = (
{
background = {
components = (
{
name = H;
}
);
paths = (
{
closed = 1;
nodes = (
"864 645 OFFCURVE",
"856 658 OFFCURVE",
"846 658 CURVE SMOOTH",
"79 658 LINE SMOOTH",
"69 658 OFFCURVE",
"67 657 OFFCURVE",
"65 644 CURVE SMOOTH",
"57 583 LINE SMOOTH",
"55 568 OFFCURVE",
"62 555 OFFCURVE",
"79 555 CURVE SMOOTH",
"827 555 LINE SMOOTH",
"847 555 OFFCURVE",
"852 556 OFFCURVE",
"854 573 CURVE SMOOTH",
"863 634 LINE SMOOTH"
);
}
);
};
components = (
{
name = H;
}
);
layerId = "258ED206-D907-4350-8EBA-CBDDA1C16BF7";
paths = (
{
closed = 1;
nodes = (
"65 641 LINE",
"52 541 LINE",
"829 541 LINE",
"845 641 LINE"
);
}
);
width = 811;
},
{
background = {
components = (
{
name = H;
transform = "{1, 0, 0, 1, -40, 0}";
}
);
paths = (
{
closed = 1;
nodes = (
"749 614 OFFCURVE",
"747 618 OFFCURVE",
"742 618 CURVE SMOOTH",
"59 618 LINE SMOOTH",
"54 618 OFFCURVE",
"52 616 OFFCURVE",
"51 610 CURVE SMOOTH",
"49 589 LINE SMOOTH",
"48 582 OFFCURVE",
"50 578 OFFCURVE",
"58 578 CURVE SMOOTH",
"732 578 LINE SMOOTH",
"741 578 OFFCURVE",
"744 580 OFFCURVE",
"745 588 CURVE SMOOTH",
"748 609 LINE SMOOTH"
);
}
);
};
components = (
{
name = H;
transform = "{1, 0, 0, 1, -40, 0}";
}
);
layerId = "91AB5BCA-6A50-42DA-B2F7-8181BF189245";
paths = (
{
closed = 1;
nodes = (
"53 602 LINE",
"50 563 LINE",
"694 563 LINE",
"698 602 LINE"
);
}
);
width = 656;
}
);
unicode = 0126;
},
{
glyphname = I;
lastChange = "2018-04-30 19:32:15 +0000";
layers = (
{
anchors = (
{
name = bottom;
position = "{140, 0}";
},
{
name = ogonek;
position = "{204, 3}";
},
{
name = top;
position = "{232, 723}";
}
);
background = {
anchors = (
{
name = bottom;
position = "{251, 0}";
},
{
name = ogonek;
position = "{333, 10}";
},
{
name = top;
position = "{252, 742}";
}
);
paths = (
{
closed = 1;
nodes = (
"146 742 OFFCURVE",
"138 734 OFFCURVE",
"138 719 CURVE SMOOTH",
"138 25 LINE SMOOTH",
"138 8 OFFCURVE",
"144 0 OFFCURVE",
"165 0 CURVE SMOOTH",
"332 0 LINE SMOOTH",
"355 0 OFFCURVE",
"365 8 OFFCURVE",
"365 29 CURVE SMOOTH",
"365 721 LINE SMOOTH",
"365 734 OFFCURVE",
"359 742 OFFCURVE",
"347 742 CURVE SMOOTH",
"157 742 LINE SMOOTH"
);
}
);
};
layerId = "258ED206-D907-4350-8EBA-CBDDA1C16BF7";
paths = (
{
closed = 1;
nodes = (
"33 0 LINE",
"228 0 LINE",
"329 723 LINE",
"135 723 LINE"
);
}
);
width = 333;
},
{
anchors = (
{
name = bottom;
position = "{96, 0}";
},
{
name = ogonek;
position = "{109, 10}";
},
{
name = top;
position = "{196, 723}";
}
);
background = {
anchors = (
{
name = bottom;
position = "{208, 0}";
},
{
name = ogonek;
position = "{220, 10}";
},
{
name = top;
position = "{211, 742}";
}
);
paths = (
{
closed = 1;
nodes = (
"187 742 OFFCURVE",
"185 740 OFFCURVE",
"185 732 CURVE SMOOTH",
"185 10 LINE SMOOTH",
"185 2 OFFCURVE",
"187 0 OFFCURVE",
"196 0 CURVE SMOOTH",
"219 0 LINE SMOOTH",
"229 0 OFFCURVE",
"231 2 OFFCURVE",
"231 12 CURVE SMOOTH",
"231 732 LINE SMOOTH",
"231 740 OFFCURVE",
"229 742 OFFCURVE",
"222 742 CURVE SMOOTH",
"194 742 LINE SMOOTH"
);
}
);
};
layerId = "91AB5BCA-6A50-42DA-B2F7-8181BF189245";
paths = (
{
closed = 1;
nodes = (
"77 0 LINE",
"114 0 LINE",
"210 723 LINE",
"173 723 LINE"
);
}
);
width = 258;
}
);
unicode = 0049;
},
{
glyphname = J;
lastChange = "2018-04-30 19:32:15 +0000";
layers = (
{
anchors = (
{
name = top;
position = "{289, 723}";
}
);
background = {
anchors = (
{
name = top;
position = "{296, 742}";
}
);
paths = (
{
closed = 1;
nodes = (
"473 721 LINE SMOOTH",
"473 734 OFFCURVE",
"467 742 OFFCURVE",
"455 742 CURVE SMOOTH",
"266 742 LINE SMOOTH",
"254 742 OFFCURVE",
"246 734 OFFCURVE",
"246 719 CURVE SMOOTH",
"246 268 LINE SMOOTH",
"246 200 OFFCURVE",
"217 175 OFFCURVE",
"168 175 CURVE SMOOTH",
"146 175 OFFCURVE",
"129 180 OFFCURVE",
"113 182 CURVE SMOOTH",
"97 184 OFFCURVE",
"90 174 OFFCURVE",
"89 159 CURVE SMOOTH",
"80 45 LINE SMOOTH",
"78 17 OFFCURVE",
"88 6 OFFCURVE",
"111 2 CURVE SMOOTH",
"156 -6 OFFCURVE",
"194 -10 OFFCURVE",
"235 -10 CURVE SMOOTH",
"391 -10 OFFCURVE",
"473 48 OFFCURVE",
"473 212 CURVE SMOOTH"
);
}
);
};
layerId = "258ED206-D907-4350-8EBA-CBDDA1C16BF7";
paths = (
{
closed = 1;
nodes = (
"435 723 LINE",
"240 723 LINE",
"177 279 LINE SMOOTH",
"167 204 OFFCURVE",
"145 170 OFFCURVE",
"76 170 CURVE SMOOTH",
"56 170 OFFCURVE",
"31 172 OFFCURVE",
"14 174 CURVE",
"-11 0 LINE",
"18 -6 OFFCURVE",
"77 -10 OFFCURVE",
"118 -10 CURVE SMOOTH",
"292 -10 OFFCURVE",
"343 69 OFFCURVE",
"366 229 CURVE SMOOTH"
);
}
);
width = 425;
},
{
anchors = (
{
name = top;
position = "{289, 723}";
}
);
background = {
anchors = (
{
name = top;
position = "{312, 742}";
}
);
paths = (
{
closed = 1;
nodes = (
"335 732 LINE SMOOTH",
"335 739 OFFCURVE",
"333 742 OFFCURVE",
"327 742 CURVE SMOOTH",
"297 742 LINE SMOOTH",
"291 742 OFFCURVE",
"289 739 OFFCURVE",
"289 733 CURVE SMOOTH",
"289 154 LINE SMOOTH",
"289 61 OFFCURVE",
"267 34 OFFCURVE",
"202 34 CURVE SMOOTH",
"153 34 OFFCURVE",
"131 49 OFFCURVE",
"110 59 CURVE SMOOTH",
"106 61 OFFCURVE",
"103 60 OFFCURVE",
"102 55 CURVE SMOOTH",
"93 24 LINE SMOOTH",
"92 20 OFFCURVE",
"94 17 OFFCURVE",
"97 15 CURVE SMOOTH",
"104 10 OFFCURVE",
"149 -10 OFFCURVE",
"204 -10 CURVE SMOOTH",
"301 -10 OFFCURVE",
"335 49 OFFCURVE",
"335 144 CURVE SMOOTH"
);
}
);
};
layerId = "91AB5BCA-6A50-42DA-B2F7-8181BF189245";
paths = (
{
closed = 1;
nodes = (
"306 723 LINE",
"269 723 LINE",
"193 154 LINE SMOOTH",
"181 63 OFFCURVE",
"155 31 OFFCURVE",
"94 31 CURVE SMOOTH",
"47 31 OFFCURVE",
"25 52 OFFCURVE",
"7 62 CURVE",
"-10 19 LINE",
"-3 13 OFFCURVE",
"37 -10 OFFCURVE",
"91 -10 CURVE SMOOTH",
"181 -10 OFFCURVE",
"216 48 OFFCURVE",
"228 140 CURVE SMOOTH"
);
}
);
width = 353;
}
);
leftKerningGroup = J;
unicode = 004A;
},
{
glyphname = K;
lastChange = "2018-04-30 19:32:15 +0000";
layers = (
{
anchors = (
{
name = bottom;
position = "{325, 0}";
},
{
name = top;
position = "{426, 723}";
}
);
background = {
anchors = (
{
name = bottom;
position = "{437, 0}";
},
{
name = top;
position = "{437, 742}";
}
);
paths = (
{
closed = 1;
nodes = (
"593 480 LINE SMOOTH",
"587 494 OFFCURVE",
"588 501 OFFCURVE",
"596 512 CURVE SMOOTH",
"760 713 LINE SMOOTH",
"773 728 OFFCURVE",
"761 742 OFFCURVE",
"739 742 CURVE SMOOTH",
"587 742 LINE SMOOTH",
"563 742 OFFCURVE",
"555 736 OFFCURVE",
"544 721 CURVE SMOOTH",
"360 463 LINE",
"352 453 OFFCURVE",
"345 452 OFFCURVE",
"345 468 CURVE SMOOTH",
"345 721 LINE SMOOTH",
"345 734 OFFCURVE",
"339 742 OFFCURVE",
"327 742 CURVE SMOOTH",
"137 742 LINE SMOOTH",
"126 742 OFFCURVE",
"118 734 OFFCURVE",
"118 719 CURVE SMOOTH",
"118 25 LINE SMOOTH",
"118 8 OFFCURVE",
"124 0 OFFCURVE",
"145 0 CURVE SMOOTH",
"312 0 LINE SMOOTH",
"335 0 OFFCURVE",
"345 8 OFFCURVE",
"345 29 CURVE SMOOTH",
"345 180 LINE SMOOTH",
"345 190 OFFCURVE",
"346 196 OFFCURVE",
"351 202 CURVE SMOOTH",
"422 293 LINE SMOOTH",
"432 306 OFFCURVE",
"438 308 OFFCURVE",
"444 298 CURVE SMOOTH",
"566 20 LINE SMOOTH",
"573 5 OFFCURVE",
"585 0 OFFCURVE",
"602 0 CURVE SMOOTH",
"797 0 LINE SMOOTH",
"817 0 OFFCURVE",
"819 15 OFFCURVE",
"811 31 CURVE SMOOTH"
);
}
);
};
guideLines = (
{
angle = 54.4985;
position = "{745, 704}";
},
{
angle = -62.8805;
position = "{300, 297}";
}
);
hints = (
{
horizontal = 1;
origin = "{0, 6}";
target = up;
type = BottomGhost;
},
{
horizontal = 1;
origin = "{0, 5}";
target = down;
type = TopGhost;
},
{
place = "{-148, -1}";
type = Stem;
}
);
layerId = "258ED206-D907-4350-8EBA-CBDDA1C16BF7";
paths = (
{
closed = 1;
nodes = (
"526 446 LINE",
"764 723 LINE",
"545 723 LINE",
"295 431 LINE",
"336 723 LINE",
"135 723 LINE",
"33 0 LINE",
"235 0 LINE",
"261 189 LINE",
"367 305 LINE",
"485 0 LINE",
"695 0 LINE"
);
}
);
width = 752;
},
{
anchors = (
{
name = bottom;
position = "{287, 0}";
},
{
name = top;
position = "{412, 723}";
}
);
background = {
anchors = (
{
name = bottom;
position = "{416, 0}";
},
{
name = top;
position = "{446, 742}";
}
);
paths = (
{
closed = 1;
nodes = (
"416 445 LINE SMOOTH",
"414 449 OFFCURVE",
"414 449 OFFCURVE",
"416 451 CURVE SMOOTH",
"675 734 LINE SMOOTH",
"679 738 OFFCURVE",
"678 742 OFFCURVE",
"672 742 CURVE SMOOTH",
"634 742 LINE SMOOTH",
"628 742 OFFCURVE",
"626 741 OFFCURVE",
"623 738 CURVE SMOOTH",
"240 322 LINE SMOOTH",
"235 317 OFFCURVE",
"233 317 OFFCURVE",
"233 323 CURVE SMOOTH",
"233 734 LINE SMOOTH",
"233 740 OFFCURVE",
"230 742 OFFCURVE",
"225 742 CURVE SMOOTH",
"195 742 LINE SMOOTH",
"189 742 OFFCURVE",
"187 739 OFFCURVE",
"187 734 CURVE SMOOTH",
"187 9 LINE SMOOTH",
"187 2 OFFCURVE",
"190 0 OFFCURVE",
"197 0 CURVE SMOOTH",
"223 0 LINE SMOOTH",
"230 0 OFFCURVE",
"233 3 OFFCURVE",
"233 9 CURVE SMOOTH",
"233 246 LINE SMOOTH",
"233 254 OFFCURVE",
"235 257 OFFCURVE",
"241 263 CURVE SMOOTH",
"373 409 LINE SMOOTH",
"378 414 OFFCURVE",
"381 415 OFFCURVE",
"385 409 CURVE SMOOTH",
"643 5 LINE SMOOTH",
"645 2 OFFCURVE",
"649 0 OFFCURVE",
"654 0 CURVE SMOOTH",
"693 0 LINE SMOOTH",
"697 0 OFFCURVE",
"699 3 OFFCURVE",
"696 7 CURVE SMOOTH"
);
}
);
};
guideLines = (
{
angle = 116.4117;
position = "{44, 0}";
},
{
angle = 223.3115;
position = "{57, 363}";
}
);
layerId = "91AB5BCA-6A50-42DA-B2F7-8181BF189245";
paths = (
{
closed = 1;
nodes = (
"342 436 LINE",
"631 723 LINE",
"577 723 LINE",
"157 306 LINE",
"212 723 LINE",
"173 723 LINE",
"77 0 LINE",
"116 0 LINE",
"149 244 LINE",
"309 404 LINE",
"500 0 LINE",
"549 0 LINE"
);
}
);
width = 624;
}
);
leftMetricsKey = N;
rightKerningGroup = K;
unicode = 004B;
},
{
glyphname = L;
lastChange = "2018-04-30 19:32:15 +0000";
layers = (
{
anchors = (
{
name = bottom;
position = "{272, 0}";
},
{
name = top;
position = "{221, 723}";
},
{
name = topright;
position = "{555, 723}";
}
);
background = {
anchors = (
{
name = bottom;
position = "{383, 0}";
},
{
name = top;
position = "{237, 742}";
},
{
name = topright;
position = "{579, 742}";
}
);
paths = (
{
closed = 1;
nodes = (
"121 25 LINE SMOOTH",
"121 8 OFFCURVE",
"127 0 OFFCURVE",
"148 0 CURVE SMOOTH",
"659 0 LINE SMOOTH",
"676 0 OFFCURVE",
"684 10 OFFCURVE",
"684 22 CURVE SMOOTH",
"684 145 LINE SMOOTH",
"684 159 OFFCURVE",
"675 164 OFFCURVE",
"661 164 CURVE SMOOTH",
"360 164 LINE SMOOTH",
"351 164 OFFCURVE",
"348 167 OFFCURVE",
"348 178 CURVE SMOOTH",
"348 721 LINE SMOOTH",
"348 734 OFFCURVE",
"342 742 OFFCURVE",
"330 742 CURVE SMOOTH",
"140 742 LINE SMOOTH",
"129 742 OFFCURVE",
"121 734 OFFCURVE",
"121 719 CURVE SMOOTH"
);
}
);
};
layerId = "258ED206-D907-4350-8EBA-CBDDA1C16BF7";
paths = (
{
closed = 1;
nodes = (
"33 0 LINE",
"517 0 LINE",
"539 160 LINE",
"251 160 LINE",
"329 723 LINE",
"135 723 LINE"
);
}
);
width = 578;
},
{
anchors = (
{
name = bottom;
position = "{267, 0}";
},
{
name = top;
position = "{197, 723}";
},
{
name = topright;
position = "{457, 723}";
}
);
background = {
anchors = (
{
name = bottom;
position = "{392, 0}";
},
{
name = top;
position = "{210, 742}";
},
{
name = topright;
position = "{496, 742}";
}
);
paths = (
{
closed = 1;
nodes = (
"187 10 LINE SMOOTH",
"187 3 OFFCURVE",
"189 0 OFFCURVE",
"196 0 CURVE",
"606 0 LINE",
"611 0 OFFCURVE",
"613 2 OFFCURVE",
"613 7 CURVE SMOOTH",
"613 33 LINE SMOOTH",
"613 39 OFFCURVE",
"611 40 OFFCURVE",
"605 40 CURVE SMOOTH",
"242 40 LINE SMOOTH",
"235 40 OFFCURVE",
"233 41 OFFCURVE",
"233 49 CURVE SMOOTH",
"233 732 LINE SMOOTH",
"233 740 OFFCURVE",
"231 742 OFFCURVE",
"224 742 CURVE SMOOTH",
"196 742 LINE SMOOTH",
"189 742 OFFCURVE",
"187 740 OFFCURVE",
"187 732 CURVE SMOOTH"
);
}
);
};
layerId = "91AB5BCA-6A50-42DA-B2F7-8181BF189245";
paths = (
{
closed = 1;
nodes = (
"77 0 LINE",
"468 0 LINE",
"474 43 LINE",
"124 43 LINE",
"214 723 LINE",
"173 723 LINE"
);
}
);
width = 538;
}
);
leftMetricsKey = N;
rightKerningGroup = L;
unicode = 004C;
},
{
glyphname = Lslash;
lastChange = "2018-04-30 19:32:15 +0000";
layers = (
{
background = {
components = (
{
name = L;
transform = "{1, 0, 0, 1, 4, 0}";
}
);
paths = (
{
closed = 1;
nodes = (
"489 544 OFFCURVE",
"480 558 OFFCURVE",
"463 554 CURVE SMOOTH",
"42 445 LINE SMOOTH",
"30 442 OFFCURVE",
"27 442 OFFCURVE",
"25 427 CURVE SMOOTH",
"8 307 LINE SMOOTH",
"6 290 OFFCURVE",
"13 275 OFFCURVE",
"34 281 CURVE SMOOTH",
"452 395 LINE SMOOTH",
"467 399 OFFCURVE",
"469 403 OFFCURVE",
"471 415 CURVE SMOOTH",
"487 528 LINE SMOOTH"
);
}
);
};
components = (
{
name = L;
transform = "{1, 0, 0, 1, 4, 0}";
}
);
layerId = "258ED206-D907-4350-8EBA-CBDDA1C16BF7";
paths = (
{
closed = 1;
nodes = (
"26 430 LINE",
"3 266 LINE",
"457 390 LINE",
"480 547 LINE"
);
}
);
width = 582;
},
{
background = {
components = (
{
name = L;
transform = "{1, 0, 0, 1, -40, 0}";
}
);
paths = (
{
closed = 1;
nodes = (
"348 435 OFFCURVE",
"345 438 OFFCURVE",
"340 437 CURVE SMOOTH",
"48 365 LINE SMOOTH",
"45 364 OFFCURVE",
"44 362 OFFCURVE",
"43 357 CURVE SMOOTH",
"40 333 LINE SMOOTH",
"39 328 OFFCURVE",
"42 326 OFFCURVE",
"47 327 CURVE SMOOTH",
"338 400 LINE SMOOTH",
"342 401 OFFCURVE",
"343 403 OFFCURVE",
"344 407 CURVE SMOOTH",
"347 431 LINE SMOOTH"
);
}
);
};
components = (
{
name = L;
transform = "{1, 0, 0, 1, -40, 0}";
}
);
layerId = "91AB5BCA-6A50-42DA-B2F7-8181BF189245";
paths = (
{
closed = 1;
nodes = (
"46 355 LINE",
"41 317 LINE",
"322 391 LINE",
"327 428 LINE"
);
}
);
width = 498;
}
);
rightMetricsKey = L;
unicode = 0141;
},
{
glyphname = M;
lastChange = "2018-04-30 19:32:15 +0000";
layers = (
{
background = {
paths = (
{
closed = 1;
nodes = (
"292 0 LINE SMOOTH",
"310 0 OFFCURVE",
"314 4 OFFCURVE",
"314 22 CURVE SMOOTH",
"314 464 LINE SMOOTH",
"314 477 OFFCURVE",
"321 481 OFFCURVE",
"326 465 CURVE SMOOTH",
"470 18 LINE SMOOTH",
"474 6 OFFCURVE",
"482 0 OFFCURVE",
"494 0 CURVE SMOOTH",
"599 0 LINE SMOOTH",
"610 0 OFFCURVE",
"619 7 OFFCURVE",
"623 18 CURVE SMOOTH",
"767 473 LINE SMOOTH",
"771 485 OFFCURVE",
"779 485 OFFCURVE",
"779 474 CURVE SMOOTH",
"779 25 LINE SMOOTH",
"779 8 OFFCURVE",
"785 0 OFFCURVE",
"805 0 CURVE SMOOTH",
"974 0 LINE SMOOTH",
"997 0 OFFCURVE",
"1006 8 OFFCURVE",
"1006 29 CURVE SMOOTH",
"1006 721 LINE SMOOTH",
"1006 734 OFFCURVE",
"1000 742 OFFCURVE",
"988 742 CURVE SMOOTH",
"699 742 LINE SMOOTH",
"685 742 OFFCURVE",
"677 731 OFFCURVE",
"672 713 CURVE SMOOTH",
"579 406 LINE SMOOTH",
"576 397 OFFCURVE",
"570 395 OFFCURVE",
"566 406 CURVE SMOOTH",
"462 724 LINE SMOOTH",
"457 738 OFFCURVE",
"451 742 OFFCURVE",
"434 742 CURVE SMOOTH",
"154 742 LINE SMOOTH",
"139 742 OFFCURVE",
"133 735 OFFCURVE",
"133 719 CURVE SMOOTH",
"133 28 LINE SMOOTH",
"133 11 OFFCURVE",
"143 0 OFFCURVE",
"159 0 CURVE SMOOTH"
);
}
);
};
guideLines = (
{
angle = -105;
position = "{406, 274}";
},
{
angle = 105;
position = "{406, 274}";
}
);
layerId = "258ED206-D907-4350-8EBA-CBDDA1C16BF7";
paths = (
{
closed = 1;
nodes = (
"228 0 LINE",
"301 523 LINE",
"368 0 LINE",
"509 0 LINE",
"722 523 LINE",
"649 0 LINE",
"844 0 LINE",
"945 723 LINE",
"658 723 LINE",
"478 282 LINE",
"423 723 LINE",
"135 723 LINE",
"33 0 LINE"
);
}
);
width = 949;
},
{
background = {
guideLines = (
{
position = "{112, 566}";
showMeasurement = 1;
}
);
paths = (
{
closed = 1;
nodes = (
"217 0 LINE SMOOTH",
"224 0 OFFCURVE",
"227 3 OFFCURVE",
"227 9 CURVE SMOOTH",
"227 622 LINE SMOOTH",
"227 626 OFFCURVE",
"229 625 OFFCURVE",
"230 622 CURVE SMOOTH",
"474 10 LINE SMOOTH",
"477 3 OFFCURVE",
"482 0 OFFCURVE",
"493 0 CURVE SMOOTH",
"520 0 LINE SMOOTH",
"529 0 OFFCURVE",
"533 3 OFFCURVE",
"536 11 CURVE SMOOTH",
"785 627 LINE SMOOTH",
"786 630 OFFCURVE",
"788 632 OFFCURVE",
"788 627 CURVE SMOOTH",
"788 9 LINE SMOOTH",
"788 2 OFFCURVE",
"791 0 OFFCURVE",
"798 0 CURVE SMOOTH",
"825 0 LINE SMOOTH",
"831 0 OFFCURVE",
"834 3 OFFCURVE",
"834 10 CURVE SMOOTH",
"834 732 LINE SMOOTH",
"834 740 OFFCURVE",
"832 742 OFFCURVE",
"825 742 CURVE SMOOTH",
"796 742 LINE SMOOTH",
"790 742 OFFCURVE",
"787 740 OFFCURVE",
"785 735 CURVE SMOOTH",
"514 65 LINE SMOOTH",
"508 51 OFFCURVE",
"503 51 OFFCURVE",
"498 64 CURVE SMOOTH",
"231 734 LINE",
"229 740 OFFCURVE",
"226 742 OFFCURVE",
"218 742 CURVE SMOOTH",
"192 742 LINE SMOOTH",
"185 742 OFFCURVE",
"183 740 OFFCURVE",
"183 732 CURVE SMOOTH",
"183 10 LINE SMOOTH",
"183 3 OFFCURVE",
"185 0 OFFCURVE",
"192 0 CURVE SMOOTH"
);
}
);
};
guideLines = (
{
position = "{20, 262}";
showMeasurement = 1;
},
{
angle = 68.255;
position = "{30, 0}";
}
);
layerId = "91AB5BCA-6A50-42DA-B2F7-8181BF189245";
paths = (
{
closed = 1;
nodes = (
"118 0 LINE",
"199 608 LINE",
"348 0 LINE",
"404 0 LINE",
"720 616 LINE",
"637 0 LINE",
"678 0 LINE",
"775 723 LINE",
"734 723 LINE",
"381 44 LINE",
"215 723 LINE",
"173 723 LINE",
"77 0 LINE"
);
}
);
width = 822;
}
);
leftMetricsKey = N;
rightMetricsKey = N;
unicode = 004D;
},
{
glyphname = N;
lastChange = "2018-04-30 19:32:15 +0000";
layers = (
{
anchors = (
{
name = bottom;
position = "{368, 0}";
},
{
name = top;
position = "{470, 723}";
}
);
background = {
anchors = (
{
name = bottom;
position = "{482, 0}";
},
{
name = top;
position = "{482, 742}";
}
);
paths = (
{
closed = 1;
nodes = (
"635 742 OFFCURVE",
"628 734 OFFCURVE",
"628 721 CURVE SMOOTH",
"628 394 LINE SMOOTH",
"628 378 OFFCURVE",
"621 378 OFFCURVE",
"612 390 CURVE SMOOTH",
"372 724 LINE SMOOTH",
"361 739 OFFCURVE",
"355 742 OFFCURVE",
"338 742 CURVE SMOOTH",
"175 742 LINE SMOOTH",
"160 742 OFFCURVE",
"153 735 OFFCURVE",
"153 719 CURVE SMOOTH",
"153 20 LINE SMOOTH",
"153 5 OFFCURVE",
"163 0 OFFCURVE",
"178 0 CURVE SMOOTH",
"314 0 LINE SMOOTH",
"332 0 OFFCURVE",
"339 6 OFFCURVE",
"338 22 CURVE SMOOTH",
"338 386 LINE SMOOTH",
"338 393 OFFCURVE",
"343 395 OFFCURVE",
"348 388 CURVE SMOOTH",
"623 15 LINE SMOOTH",
"633 2 OFFCURVE",
"639 0 OFFCURVE",
"650 0 CURVE SMOOTH",
"787 0 LINE SMOOTH",
"800 0 OFFCURVE",
"810 7 OFFCURVE",
"810 18 CURVE SMOOTH",
"810 725 LINE SMOOTH",
"810 736 OFFCURVE",
"805 742 OFFCURVE",
"795 742 CURVE SMOOTH",
"650 742 LINE SMOOTH"
);
}
);
};
guideLines = (
{
angle = 125.0467;
position = "{486, 311}";
}
);
layerId = "258ED206-D907-4350-8EBA-CBDDA1C16BF7";
paths = (
{
closed = 1;
nodes = (
"556 320 LINE",
"330 723 LINE",
"135 723 LINE",
"33 0 LINE",
"228 0 LINE",
"289 431 LINE",
"529 0 LINE",
"706 0 LINE",
"807 723 LINE",
"612 723 LINE"
);
}
);
width = 811;
},
{
anchors = (
{
name = bottom;
position = "{295, 0}";
},
{
name = top;
position = "{427, 723}";
}
);
background = {
anchors = (
{
name = bottom;
position = "{428, 0}";
},
{
name = top;
position = "{463, 742}";
}
);
guideLines = (
{
position = "{117, 576}";
showMeasurement = 1;
}
);
paths = (
{
closed = 1;
nodes = (
"668 742 OFFCURVE",
"666 739 OFFCURVE",
"666 733 CURVE SMOOTH",
"666 107 LINE SMOOTH",
"666 101 OFFCURVE",
"659 95 OFFCURVE",
"652 105 CURVE SMOOTH",
"225 735 LINE SMOOTH",
"221 741 OFFCURVE",
"218 742 OFFCURVE",
"210 742 CURVE SMOOTH",
"192 742 LINE",
"185 742 OFFCURVE",
"183 740 OFFCURVE",
"183 732 CURVE SMOOTH",
"183 10 LINE SMOOTH",
"183 3 OFFCURVE",
"185 0 OFFCURVE",
"192 0 CURVE SMOOTH",
"217 0 LINE SMOOTH",
"224 0 OFFCURVE",
"227 3 OFFCURVE",
"227 9 CURVE SMOOTH",
"227 637 LINE SMOOTH",
"227 645 OFFCURVE",
"232 647 OFFCURVE",
"239 637 CURVE SMOOTH",
"667 6 LINE SMOOTH",
"672 -1 OFFCURVE",
"678 0 OFFCURVE",
"686 0 CURVE SMOOTH",
"701 0 LINE SMOOTH",
"707 0 OFFCURVE",
"710 3 OFFCURVE",
"710 10 CURVE SMOOTH",
"710 732 LINE SMOOTH",
"710 740 OFFCURVE",
"708 742 OFFCURVE",
"701 742 CURVE SMOOTH",
"674 742 LINE SMOOTH"
);
}
);
};
guideLines = (
{
position = "{20, 267}";
showMeasurement = 1;
},
{
angle = 123.9688;
position = "{22, 305}";
}
);
layerId = "91AB5BCA-6A50-42DA-B2F7-8181BF189245";
paths = (
{
closed = 1;
nodes = (
"531 78 LINE",
"204 723 LINE",
"173 723 LINE",
"77 0 LINE",
"114 0 LINE",
"200 642 LINE",
"526 0 LINE",
"558 0 LINE",
"654 723 LINE",
"617 723 LINE"
);
}
);
width = 702;
}
);
unicode = 004E;
},
{
glyphname = Eng;
lastChange = "2018-04-30 19:32:15 +0000";
layers = (
{
background = {
guideLines = (
{
angle = 82.0656;
position = "{592, 584}";
}
);
paths = (
{
closed = 1;
nodes = (
"632 742 LINE SMOOTH",
"617 742 OFFCURVE",
"614 740 OFFCURVE",
"612 727 CURVE SMOOTH",
"572 440 LINE SMOOTH",
"570 423 OFFCURVE",
"559 415 OFFCURVE",
"552 426 CURVE SMOOTH",
"351 719 LINE SMOOTH",
"343 734 OFFCURVE",
"334 742 OFFCURVE",
"317 742 CURVE SMOOTH",
"157 742 LINE SMOOTH",
"142 742 OFFCURVE",
"139 737 OFFCURVE",
"137 724 CURVE SMOOTH",
"38 26 LINE SMOOTH",
"36 11 OFFCURVE",
"49 0 OFFCURVE",
"64 0 CURVE SMOOTH",
"200 0 LINE SMOOTH",
"218 0 OFFCURVE",
"221 0 OFFCURVE",
"222 16 CURVE",
"273 380 LINE SMOOTH",
"275 395 OFFCURVE",
"283 399 OFFCURVE",
"288 392 CURVE SMOOTH",
"500 73 LINE",
"498 63 LINE SMOOTH",
"487 10 OFFCURVE",
"474 -13 OFFCURVE",
"421 -13 CURVE SMOOTH",
"403 -13 OFFCURVE",
"342 -6 OFFCURVE",
"322 -2 CURVE SMOOTH",
"311 0 OFFCURVE",
"307 -2 OFFCURVE",
"304 -17 CURVE SMOOTH",
"281 -114 LINE SMOOTH",
"276 -142 OFFCURVE",
"288 -158 OFFCURVE",
"314 -161 CURVE SMOOTH",
"354 -170 OFFCURVE",
"397 -175 OFFCURVE",
"442 -175 CURVE SMOOTH",
"590 -175 OFFCURVE",
"675 -120 OFFCURVE",
"698 41 CURVE SMOOTH",
"793 719 LINE SMOOTH",
"795 733 OFFCURVE",
"790 742 OFFCURVE",
"777 742 CURVE SMOOTH"
);
}
);
};
guideLines = (
{
angle = 82.0656;
position = "{562, 554}";
}
);
layerId = "258ED206-D907-4350-8EBA-CBDDA1C16BF7";
paths = (
{
closed = 1;
nodes = (
"598 723 LINE",
"553 394 LINE",
"327 723 LINE",
"137 723 LINE",
"33 0 LINE",
"215 0 LINE",
"270 398 LINE",
"487 71 LINE",
"485 61 LINE SMOOTH",
"475 10 OFFCURVE",
"462 -13 OFFCURVE",
"410 -13 CURVE SMOOTH",
"390 -13 OFFCURVE",
"323 -4 OFFCURVE",
"300 1 CURVE",
"265 -148 LINE",
"317 -163 OFFCURVE",
"372 -171 OFFCURVE",
"431 -171 CURVE SMOOTH",
"575 -171 OFFCURVE",
"658 -117 OFFCURVE",
"680 40 CURVE SMOOTH",
"776 723 LINE"
);
}
);
width = 780;
},
{
background = {
paths = (
{
closed = 1;
nodes = (
"673 742 LINE SMOOTH",
"667 742 OFFCURVE",
"666 740 OFFCURVE",
"665 734 CURVE SMOOTH",
"577 108 LINE SMOOTH",
"576 102 OFFCURVE",
"567 93 OFFCURVE",
"561 103 CURVE SMOOTH",
"224 734 LINE SMOOTH",
"221 740 OFFCURVE",
"218 742 OFFCURVE",
"211 742 CURVE SMOOTH",
"190 742 LINE SMOOTH",
"183 742 OFFCURVE",
"182 741 OFFCURVE",
"181 733 CURVE SMOOTH",
"79 11 LINE SMOOTH",
"78 4 OFFCURVE",
"81 0 OFFCURVE",
"88 0 CURVE SMOOTH",
"113 0 LINE SMOOTH",
"120 0 OFFCURVE",
"122 2 OFFCURVE",
"123 8 CURVE SMOOTH",
"212 639 LINE SMOOTH",
"213 647 OFFCURVE",
"216 651 OFFCURVE",
"222 641 CURVE SMOOTH",
"560 12 LINE",
"553 -40 LINE SMOOTH",
"543 -111 OFFCURVE",
"508 -135 OFFCURVE",
"453 -135 CURVE SMOOTH",
"424 -135 OFFCURVE",
"401 -128 OFFCURVE",
"384 -123 CURVE SMOOTH",
"381 -120 OFFCURVE",
"380 -120 OFFCURVE",
"378 -125 CURVE",
"372 -150 LINE",
"371 -154 OFFCURVE",
"373 -157 OFFCURVE",
"376 -159 CURVE SMOOTH",
"382 -164 OFFCURVE",
"413 -175 OFFCURVE",
"455 -175 CURVE SMOOTH",
"548 -175 OFFCURVE",
"587 -125 OFFCURVE",
"598 -47 CURVE SMOOTH",
"707 731 LINE SMOOTH",
"709 739 OFFCURVE",
"706 742 OFFCURVE",
"699 742 CURVE SMOOTH"
);
}
);
};
layerId = "91AB5BCA-6A50-42DA-B2F7-8181BF189245";
paths = (
{
closed = 1;
nodes = (
"622 723 LINE",
"535 78 LINE",
"208 723 LINE",
"173 723 LINE",
"76 0 LINE",
"118 0 LINE",
"203 638 LINE",
"524 12 LINE",
"517 -39 LINE SMOOTH",
"508 -108 OFFCURVE",
"475 -132 OFFCURVE",
"424 -132 CURVE SMOOTH",
"396 -132 OFFCURVE",
"373 -124 OFFCURVE",
"356 -118 CURVE",
"348 -151 LINE",
"354 -157 OFFCURVE",
"384 -171 OFFCURVE",
"426 -171 CURVE SMOOTH",
"512 -171 OFFCURVE",
"549 -122 OFFCURVE",
"559 -46 CURVE SMOOTH",
"662 723 LINE"
);
}
);
width = 710;
}
);
leftMetricsKey = N;
rightMetricsKey = N;
unicode = 014A;
},
{
glyphname = O;
lastChange = "2018-04-30 19:32:15 +0000";
layers = (
{
anchors = (
{
name = bottom;
position = "{360, 0}";
},
{
name = ogonek;
position = "{450, 10}";
},
{
name = top;
position = "{459, 723}";
}
);
background = {
anchors = (
{
name = bottom;
position = "{473, 0}";
},
{
name = ogonek;
position = "{564, 10}";
},
{
name = top;
position = "{471, 742}";
}
);
paths = (
{
closed = 1;
nodes = (
"690 -10 OFFCURVE",
"830 139 OFFCURVE",
"830 369 CURVE SMOOTH",
"830 601 OFFCURVE",
"687 752 OFFCURVE",
"472 752 CURVE SMOOTH",
"255 752 OFFCURVE",
"112 601 OFFCURVE",
"112 369 CURVE SMOOTH",
"112 138 OFFCURVE",
"251 -10 OFFCURVE",
"472 -10 CURVE SMOOTH"
);
},
{
closed = 1;
nodes = (
"383 146 OFFCURVE",
"350 206 OFFCURVE",
"350 366 CURVE SMOOTH",
"350 531 OFFCURVE",
"385 598 OFFCURVE",
"472 598 CURVE SMOOTH",
"557 598 OFFCURVE",
"592 531 OFFCURVE",
"592 366 CURVE SMOOTH",
"592 206 OFFCURVE",
"559 146 OFFCURVE",
"472 146 CURVE SMOOTH"
);
}
);
};
guideLines = (
{
angle = 90;
position = "{-580, 409}";
}
);
layerId = "258ED206-D907-4350-8EBA-CBDDA1C16BF7";
paths = (
{
closed = 1;
nodes = (
"569 -10 OFFCURVE",
"726 135 OFFCURVE",
"758 360 CURVE SMOOTH",
"790 586 OFFCURVE",
"671 733 OFFCURVE",
"461 733 CURVE SMOOTH",
"250 733 OFFCURVE",
"90 586 OFFCURVE",
"59 360 CURVE SMOOTH",
"27 134 OFFCURVE",
"142 -10 OFFCURVE",
"357 -10 CURVE SMOOTH"
);
},
{
closed = 1;
nodes = (
"299 146 OFFCURVE",
"248 201 OFFCURVE",
"269 357 CURVE SMOOTH",
"292 517 OFFCURVE",
"360 577 OFFCURVE",
"440 577 CURVE SMOOTH",
"520 577 OFFCURVE",
"568 517 OFFCURVE",
"546 357 CURVE SMOOTH",
"525 201 OFFCURVE",
"459 146 OFFCURVE",
"379 146 CURVE SMOOTH"
);
}
);
width = 789;
},
{
anchors = (
{
name = bottom;
position = "{318, 0}";
},
{
name = ogonek;
position = "{384, 9}";
},
{
name = top;
position = "{414, 723}";
}
);
background = {
anchors = (
{
name = bottom;
position = "{446, 0}";
},
{
name = ogonek;
position = "{516, 9}";
},
{
name = top;
position = "{446, 742}";
}
);
paths = (
{
closed = 1;
nodes = (
"632 -10 OFFCURVE",
"745 122 OFFCURVE",
"745 369 CURVE SMOOTH",
"745 618 OFFCURVE",
"632 752 OFFCURVE",
"445 752 CURVE SMOOTH",
"257 752 OFFCURVE",
"143 617 OFFCURVE",
"143 367 CURVE SMOOTH",
"143 121 OFFCURVE",
"255 -10 OFFCURVE",
"444 -10 CURVE SMOOTH"
);
},
{
closed = 1;
nodes = (
"280 32 OFFCURVE",
"191 143 OFFCURVE",
"191 369 CURVE SMOOTH",
"191 597 OFFCURVE",
"280 710 OFFCURVE",
"445 710 CURVE SMOOTH",
"609 710 OFFCURVE",
"697 598 OFFCURVE",
"697 369 CURVE SMOOTH",
"697 142 OFFCURVE",
"611 32 OFFCURVE",
"446 32 CURVE SMOOTH"
);
}
);
};
guideLines = (
{
angle = 90;
position = "{-20, 200}";
},
{
angle = 90;
position = "{48, 296}";
}
);
layerId = "91AB5BCA-6A50-42DA-B2F7-8181BF189245";
paths = (
{
closed = 1;
nodes = (
"488 -10 OFFCURVE",
"610 119 OFFCURVE",
"643 360 CURVE SMOOTH",
"675 602 OFFCURVE",
"587 733 OFFCURVE",
"414 733 CURVE SMOOTH",
"240 733 OFFCURVE",
"117 601 OFFCURVE",
"84 358 CURVE SMOOTH",
"53 118 OFFCURVE",
"139 -10 OFFCURVE",
"314 -10 CURVE SMOOTH"
);
},
{
closed = 1;
nodes = (
"168 31 OFFCURVE",
"98 139 OFFCURVE",
"127 360 CURVE SMOOTH",
"157 582 OFFCURVE",
"256 692 OFFCURVE",
"409 692 CURVE SMOOTH",
"561 692 OFFCURVE",
"631 583 OFFCURVE",
"601 360 CURVE SMOOTH",
"572 138 OFFCURVE",
"474 31 OFFCURVE",
"321 31 CURVE SMOOTH"
);
}
);
width = 699;
}
);
leftKerningGroup = O;
rightKerningGroup = O;
unicode = 004F;
},
{
glyphname = Oslash;
lastChange = "2018-04-30 19:32:15 +0000";
layers = (
{
anchors = (
{
name = top;
position = "{469, 723}";
}
);
background = {
anchors = (
{
name = top;
position = "{481, 742}";
}
);
paths = (
{
closed = 1;
nodes = (
"805 738 LINE SMOOTH",
"800 746 OFFCURVE",
"788 752 OFFCURVE",
"776 741 CURVE SMOOTH",
"700 670 LINE",
"648 720 OFFCURVE",
"572 752 OFFCURVE",
"475 752 CURVE SMOOTH",
"262 752 OFFCURVE",
"103 607 OFFCURVE",
"71 380 CURVE SMOOTH",
"58 289 OFFCURVE",
"69 214 OFFCURVE",
"95 154 CURVE",
"13 88 LINE SMOOTH",
"0 76 OFFCURVE",
"6 66 OFFCURVE",
"19 51 CURVE SMOOTH",
"53 11 LINE SMOOTH",
"66 -5 OFFCURVE",
"77 -12 OFFCURVE",
"94 3 CURVE SMOOTH",
"162 66 LINE",
"213 19 OFFCURVE",
"288 -10 OFFCURVE",
"384 -10 CURVE SMOOTH",
"598 -10 OFFCURVE",
"754 133 OFFCURVE",
"786 358 CURVE SMOOTH",
"799 447 OFFCURVE",
"788 521 OFFCURVE",
"763 580 CURVE",
"855 655 LINE",
"865 664 OFFCURVE",
"859 674 OFFCURVE",
"853 682 CURVE SMOOTH"
);
},
{
closed = 1;
nodes = (
"330 525 OFFCURVE",
"379 598 OFFCURVE",
"470 598 CURVE SMOOTH",
"510 598 OFFCURVE",
"537 585 OFFCURVE",
"550 544 CURVE",
"301 324 LINE",
"303 336 OFFCURVE",
"305 348 OFFCURVE",
"306 355 CURVE"
);
},
{
closed = 1;
nodes = (
"528 212 OFFCURVE",
"481 146 OFFCURVE",
"390 146 CURVE SMOOTH",
"350 146 OFFCURVE",
"323 156 OFFCURVE",
"308 190 CURVE",
"555 409 LINE",
"554 397 OFFCURVE",
"552 385 OFFCURVE",
"551 377 CURVE SMOOTH"
);
}
);
};
layerId = "258ED206-D907-4350-8EBA-CBDDA1C16BF7";
paths = (
{
closed = 1;
nodes = (
"158 64 LINE",
"208 19 OFFCURVE",
"281 -10 OFFCURVE",
"374 -10 CURVE SMOOTH",
"583 -10 OFFCURVE",
"735 130 OFFCURVE",
"766 349 CURVE SMOOTH",
"779 436 OFFCURVE",
"768 508 OFFCURVE",
"744 565 CURVE",
"845 648 LINE",
"771 736 LINE",
"682 653 LINE",
"632 701 OFFCURVE",
"557 733 OFFCURVE",
"463 733 CURVE SMOOTH",
"255 733 OFFCURVE",
"101 591 OFFCURVE",
"69 370 CURVE SMOOTH",
"57 282 OFFCURVE",
"67 209 OFFCURVE",
"93 150 CURVE",
"-2 74 LINE",
"73 -15 LINE"
);
},
{
closed = 1;
nodes = (
"341 142 OFFCURVE",
"315 152 OFFCURVE",
"300 185 CURVE",
"542 398 LINE",
"540 380 OFFCURVE",
"537 362 OFFCURVE",
"534 346 CURVE SMOOTH",
"509 202 OFFCURVE",
"462 142 OFFCURVE",
"380 142 CURVE SMOOTH"
);
},
{
closed = 1;
nodes = (
"297 343 OFFCURVE",
"301 367 OFFCURVE",
"306 390 CURVE SMOOTH",
"332 524 OFFCURVE",
"380 583 OFFCURVE",
"458 583 CURVE SMOOTH",
"497 583 OFFCURVE",
"523 570 OFFCURVE",
"536 530 CURVE",
"294 317 LINE"
);
}
);
width = 815;
},
{
anchors = (
{
name = top;
position = "{392, 723}";
}
);
background = {
anchors = (
{
name = top;
position = "{419, 742}";
}
);
paths = (
{
closed = 1;
nodes = (
"723 748 LINE",
"718 752 OFFCURVE",
"714 752 OFFCURVE",
"710 747 CURVE",
"622 658 LINE",
"579 719 OFFCURVE",
"510 752 OFFCURVE",
"418 752 CURVE SMOOTH",
"231 752 OFFCURVE",
"100 618 OFFCURVE",
"65 369 CURVE SMOOTH",
"50 267 OFFCURVE",
"59 185 OFFCURVE",
"86 124 CURVE",
"-13 27 LINE",
"-18 22 OFFCURVE",
"-16 19 OFFCURVE",
"-10 12 CURVE SMOOTH",
"5 -4 LINE",
"12 -10 OFFCURVE",
"17 -12 OFFCURVE",
"24 -4 CURVE",
"109 82 LINE",
"152 22 OFFCURVE",
"221 -10 OFFCURVE",
"314 -10 CURVE SMOOTH",
"501 -10 OFFCURVE",
"632 121 OFFCURVE",
"666 367 CURVE SMOOTH",
"681 471 OFFCURVE",
"673 554 OFFCURVE",
"645 616 CURVE",
"746 715 LINE",
"750 719 OFFCURVE",
"747 723 OFFCURVE",
"745 726 CURVE"
);
},
{
closed = 1;
nodes = (
"148 596 OFFCURVE",
"250 709 OFFCURVE",
"416 709 CURVE SMOOTH",
"497 709 OFFCURVE",
"556 682 OFFCURVE",
"590 626 CURVE",
"122 160 LINE",
"106 213 OFFCURVE",
"103 282 OFFCURVE",
"115 367 CURVE SMOOTH"
);
},
{
closed = 1;
nodes = (
"584 143 OFFCURVE",
"484 33 OFFCURVE",
"318 33 CURVE SMOOTH",
"236 33 OFFCURVE",
"177 60 OFFCURVE",
"142 116 CURVE",
"609 581 LINE",
"626 527 OFFCURVE",
"628 457 OFFCURVE",
"616 371 CURVE SMOOTH"
);
}
);
};
layerId = "91AB5BCA-6A50-42DA-B2F7-8181BF189245";
paths = (
{
closed = 1;
nodes = (
"105 80 LINE",
"145 21 OFFCURVE",
"209 -10 OFFCURVE",
"295 -10 CURVE SMOOTH",
"468 -10 OFFCURVE",
"590 118 OFFCURVE",
"621 358 CURVE SMOOTH",
"635 459 OFFCURVE",
"628 540 OFFCURVE",
"601 600 CURVE",
"700 701 LINE",
"668 735 LINE",
"580 641 LINE",
"541 701 OFFCURVE",
"477 733 OFFCURVE",
"391 733 CURVE SMOOTH",
"218 733 OFFCURVE",
"97 602 OFFCURVE",
"65 360 CURVE SMOOTH",
"51 260 OFFCURVE",
"59 180 OFFCURVE",
"85 121 CURVE",
"-13 20 LINE",
"18 -14 LINE"
);
},
{
closed = 1;
nodes = (
"223 32 OFFCURVE",
"168 58 OFFCURVE",
"136 113 CURVE",
"568 566 LINE",
"584 513 OFFCURVE",
"586 445 OFFCURVE",
"575 361 CURVE SMOOTH",
"545 139 OFFCURVE",
"452 32 OFFCURVE",
"299 32 CURVE SMOOTH"
);
},
{
closed = 1;
nodes = (
"103 208 OFFCURVE",
"100 275 OFFCURVE",
"111 358 CURVE SMOOTH",
"142 581 OFFCURVE",
"236 691 OFFCURVE",
"389 691 CURVE SMOOTH",
"465 691 OFFCURVE",
"520 664 OFFCURVE",
"551 610 CURVE",
"118 156 LINE"
);
}
);
width = 658;
}
);
unicode = 00D8;
},
{
glyphname = OE;
lastChange = "2018-04-30 19:32:15 +0000";
layers = (
{
background = {
paths = (
{
closed = 1;
nodes = (
"747 164 LINE SMOOTH",
"738 164 OFFCURVE",
"738 161 OFFCURVE",
"740 172 CURVE SMOOTH",
"754 272 LINE SMOOTH",
"755 280 OFFCURVE",
"767 292 OFFCURVE",
"777 292 CURVE SMOOTH",
"962 292 LINE SMOOTH",
"975 292 OFFCURVE",
"976 294 OFFCURVE",
"977 303 CURVE SMOOTH",
"995 427 LINE SMOOTH",
"997 440 OFFCURVE",
"987 453 OFFCURVE",
"973 453 CURVE SMOOTH",
"793 453 LINE SMOOTH",
"783 453 OFFCURVE",
"780 454 OFFCURVE",
"782 468 CURVE SMOOTH",
"793 553 LINE SMOOTH",
"795 566 OFFCURVE",
"809 578 OFFCURVE",
"824 578 CURVE SMOOTH",
"1124 578 LINE SMOOTH",
"1142 578 OFFCURVE",
"1147 583 OFFCURVE",
"1149 599 CURVE SMOOTH",
"1166 715 LINE SMOOTH",
"1168 728 OFFCURVE",
"1160 742 OFFCURVE",
"1148 742 CURVE SMOOTH",
"684 742 LINE",
"677 742 OFFCURVE",
"670 742 OFFCURVE",
"663 742 CURVE",
"622 741 LINE",
"588 748 OFFCURVE",
"545 752 OFFCURVE",
"490 752 CURVE SMOOTH",
"253 752 OFFCURVE",
"94 607 OFFCURVE",
"62 380 CURVE SMOOTH",
"29 144 OFFCURVE",
"150 -10 OFFCURVE",
"387 -10 CURVE SMOOTH",
"439 -10 OFFCURVE",
"487 -8 OFFCURVE",
"526 -1 CURVE",
"576 0 LINE",
"583 0 OFFCURVE",
"590 0 OFFCURVE",
"597 0 CURVE",
"1055 0 LINE SMOOTH",
"1072 0 OFFCURVE",
"1075 4 OFFCURVE",
"1077 16 CURVE SMOOTH",
"1094 139 LINE SMOOTH",
"1096 153 OFFCURVE",
"1086 164 OFFCURVE",
"1072 164 CURVE SMOOTH"
);
},
{
closed = 1;
nodes = (
"296 146 OFFCURVE",
"275 200 OFFCURVE",
"297 355 CURVE SMOOTH",
"321 525 OFFCURVE",
"370 598 OFFCURVE",
"461 598 CURVE SMOOTH",
"542 598 OFFCURVE",
"564 537 OFFCURVE",
"542 377 CURVE SMOOTH",
"519 212 OFFCURVE",
"472 146 OFFCURVE",
"381 146 CURVE SMOOTH"
);
}
);
};
layerId = "258ED206-D907-4350-8EBA-CBDDA1C16BF7";
paths = (
{
closed = 1;
nodes = (
"720 160 LINE",
"738 284 LINE",
"950 284 LINE",
"974 441 LINE",
"760 441 LINE",
"776 563 LINE",
"1117 563 LINE",
"1140 723 LINE",
"646 723 LINE",
"606 722 LINE",
"573 729 OFFCURVE",
"531 733 OFFCURVE",
"478 733 CURVE SMOOTH",
"247 733 OFFCURVE",
"92 591 OFFCURVE",
"61 370 CURVE SMOOTH",
"29 140 OFFCURVE",
"147 -10 OFFCURVE",
"377 -10 CURVE SMOOTH",
"428 -10 OFFCURVE",
"475 -8 OFFCURVE",
"513 -1 CURVE",
"562 0 LINE",
"1048 0 LINE",
"1069 160 LINE"
);
},
{
closed = 1;
nodes = (
"289 142 OFFCURVE",
"268 195 OFFCURVE",
"290 346 CURVE SMOOTH",
"313 512 OFFCURVE",
"361 583 OFFCURVE",
"450 583 CURVE SMOOTH",
"528 583 OFFCURVE",
"550 523 OFFCURVE",
"528 367 CURVE SMOOTH",
"506 207 OFFCURVE",
"460 142 OFFCURVE",
"372 142 CURVE SMOOTH"
);
}
);
width = 1138;
},
{
background = {
paths = (
{
closed = 1;
nodes = (
"648 40 LINE SMOOTH",
"641 40 OFFCURVE",
"640 40 OFFCURVE",
"642 48 CURVE SMOOTH",
"683 345 LINE SMOOTH",
"684 353 OFFCURVE",
"688 355 OFFCURVE",
"695 355 CURVE SMOOTH",
"972 355 LINE SMOOTH",
"978 355 OFFCURVE",
"979 355 OFFCURVE",
"979 361 CURVE SMOOTH",
"983 387 LINE SMOOTH",
"984 392 OFFCURVE",
"981 395 OFFCURVE",
"976 395 CURVE SMOOTH",
"698 395 LINE SMOOTH",
"691 395 OFFCURVE",
"690 395 OFFCURVE",
"691 401 CURVE SMOOTH",
"732 692 LINE SMOOTH",
"733 700 OFFCURVE",
"736 702 OFFCURVE",
"743 702 CURVE SMOOTH",
"1101 702 LINE SMOOTH",
"1107 702 OFFCURVE",
"1108 702 OFFCURVE",
"1109 708 CURVE SMOOTH",
"1113 734 LINE SMOOTH",
"1114 739 OFFCURVE",
"1111 742 OFFCURVE",
"1106 742 CURVE SMOOTH",
"701 742 LINE SMOOTH",
"694 742 OFFCURVE",
"693 741 OFFCURVE",
"692 733 CURVE SMOOTH",
"673 599 LINE",
"637 699 OFFCURVE",
"556 752 OFFCURVE",
"438 752 CURVE SMOOTH",
"251 752 OFFCURVE",
"120 618 OFFCURVE",
"85 369 CURVE SMOOTH",
"50 122 OFFCURVE",
"144 -10 OFFCURVE",
"334 -10 CURVE SMOOTH",
"450 -10 OFFCURVE",
"545 40 OFFCURVE",
"609 139 CURVE",
"590 11 LINE SMOOTH",
"589 3 OFFCURVE",
"592 0 OFFCURVE",
"599 0 CURVE SMOOTH",
"1019 0 LINE SMOOTH",
"1024 0 OFFCURVE",
"1025 1 OFFCURVE",
"1026 6 CURVE SMOOTH",
"1029 32 LINE SMOOTH",
"1030 38 OFFCURVE",
"1027 40 OFFCURVE",
"1021 40 CURVE SMOOTH"
);
},
{
closed = 1;
nodes = (
"173 32 OFFCURVE",
"101 142 OFFCURVE",
"132 367 CURVE SMOOTH",
"165 596 OFFCURVE",
"271 710 OFFCURVE",
"437 710 CURVE SMOOTH",
"600 710 OFFCURVE",
"668 599 OFFCURVE",
"636 371 CURVE SMOOTH",
"604 143 OFFCURVE",
"504 32 OFFCURVE",
"338 32 CURVE SMOOTH"
);
}
);
};
layerId = "91AB5BCA-6A50-42DA-B2F7-8181BF189245";
paths = (
{
closed = 1;
nodes = (
"599 39 LINE",
"639 346 LINE",
"911 346 LINE",
"917 385 LINE",
"644 385 LINE",
"684 684 LINE",
"1031 684 LINE",
"1037 723 LINE",
"647 723 LINE",
"629 584 LINE",
"595 681 OFFCURVE",
"520 733 OFFCURVE",
"411 733 CURVE SMOOTH",
"238 733 OFFCURVE",
"117 602 OFFCURVE",
"84 360 CURVE SMOOTH",
"52 119 OFFCURVE",
"139 -10 OFFCURVE",
"315 -10 CURVE SMOOTH",
"423 -10 OFFCURVE",
"510 39 OFFCURVE",
"570 135 CURVE",
"550 0 LINE",
"955 0 LINE",
"959 39 LINE"
);
},
{
closed = 1;
nodes = (
"166 31 OFFCURVE",
"100 138 OFFCURVE",
"128 358 CURVE SMOOTH",
"158 581 OFFCURVE",
"256 692 OFFCURVE",
"410 692 CURVE SMOOTH",
"561 692 OFFCURVE",
"624 584 OFFCURVE",
"594 361 CURVE SMOOTH",
"565 139 OFFCURVE",
"472 31 OFFCURVE",
"319 31 CURVE SMOOTH"
);
}
);
width = 1062;
}
);
leftKerningGroup = O;
leftMetricsKey = O;
rightMetricsKey = E;
unicode = 0152;
},
{
glyphname = P;
lastChange = "2018-04-30 19:32:15 +0000";
layers = (
{
background = {
paths = (
{
closed = 1;
nodes = (
"772 662 OFFCURVE",
"635 742 OFFCURVE",
"471 742 CURVE SMOOTH",
"140 742 LINE SMOOTH",
"128 742 OFFCURVE",
"121 734 OFFCURVE",
"121 719 CURVE SMOOTH",
"121 25 LINE SMOOTH",
"121 8 OFFCURVE",
"127 0 OFFCURVE",
"147 0 CURVE SMOOTH",
"315 0 LINE SMOOTH",
"338 0 OFFCURVE",
"348 8 OFFCURVE",
"348 29 CURVE SMOOTH",
"348 255 LINE SMOOTH",
"348 262 OFFCURVE",
"351 266 OFFCURVE",
"360 266 CURVE SMOOTH",
"497 266 LINE SMOOTH",
"660 266 OFFCURVE",
"772 355 OFFCURVE",
"772 501 CURVE SMOOTH"
);
},
{
closed = 1;
nodes = (
"540 461 OFFCURVE",
"511 426 OFFCURVE",
"463 426 CURVE SMOOTH",
"365 426 LINE SMOOTH",
"352 426 OFFCURVE",
"348 433 OFFCURVE",
"348 448 CURVE SMOOTH",
"348 561 LINE SMOOTH",
"348 576 OFFCURVE",
"354 582 OFFCURVE",
"371 582 CURVE SMOOTH",
"457 582 LINE SMOOTH",
"503 582 OFFCURVE",
"540 552 OFFCURVE",
"540 504 CURVE SMOOTH"
);
}
);
};
layerId = "258ED206-D907-4350-8EBA-CBDDA1C16BF7";
paths = (
{
closed = 1;
nodes = (
"228 0 LINE",
"263 248 LINE",
"379 248 LINE SMOOTH",
"538 248 OFFCURVE",
"649 335 OFFCURVE",
"669 477 CURVE SMOOTH",
"691 634 OFFCURVE",
"580 723 OFFCURVE",
"420 723 CURVE SMOOTH",
"135 723 LINE",
"33 0 LINE"
);
},
{
closed = 1;
nodes = (
"307 579 LINE",
"418 579 LINE SMOOTH",
"462 579 OFFCURVE",
"499 538 OFFCURVE",
"492 487 CURVE SMOOTH",
"485 440 OFFCURVE",
"442 394 OFFCURVE",
"392 394 CURVE SMOOTH",
"281 394 LINE"
);
}
);
width = 668;
},
{
background = {
paths = (
{
closed = 1;
nodes = (
"684 684 OFFCURVE",
"573 742 OFFCURVE",
"418 742 CURVE SMOOTH",
"196 742 LINE SMOOTH",
"189 742 OFFCURVE",
"187 740 OFFCURVE",
"187 732 CURVE SMOOTH",
"187 8 LINE SMOOTH",
"187 3 OFFCURVE",
"190 0 OFFCURVE",
"195 0 CURVE SMOOTH",
"225 0 LINE SMOOTH",
"230 0 OFFCURVE",
"233 3 OFFCURVE",
"233 9 CURVE SMOOTH",
"233 318 LINE SMOOTH",
"233 324 OFFCURVE",
"235 327 OFFCURVE",
"241 327 CURVE SMOOTH",
"424 327 LINE SMOOTH",
"575 327 OFFCURVE",
"684 387 OFFCURVE",
"684 535 CURVE SMOOTH"
);
},
{
closed = 1;
nodes = (
"636 415 OFFCURVE",
"552 367 OFFCURVE",
"424 367 CURVE SMOOTH",
"240 367 LINE SMOOTH",
"235 367 OFFCURVE",
"233 370 OFFCURVE",
"233 377 CURVE SMOOTH",
"233 694 LINE SMOOTH",
"233 700 OFFCURVE",
"236 702 OFFCURVE",
"242 702 CURVE SMOOTH",
"417 702 LINE SMOOTH",
"552 702 OFFCURVE",
"636 662 OFFCURVE",
"636 538 CURVE SMOOTH"
);
}
);
};
layerId = "91AB5BCA-6A50-42DA-B2F7-8181BF189245";
paths = (
{
closed = 1;
nodes = (
"118 0 LINE",
"160 317 LINE",
"337 317 LINE SMOOTH",
"476 317 OFFCURVE",
"586 378 OFFCURVE",
"605 522 CURVE SMOOTH",
"625 667 OFFCURVE",
"529 723 OFFCURVE",
"385 723 CURVE SMOOTH",
"173 723 LINE",
"77 0 LINE"
);
},
{
closed = 1;
nodes = (
"209 680 LINE",
"380 680 LINE SMOOTH",
"504 680 OFFCURVE",
"580 646 OFFCURVE",
"563 525 CURVE SMOOTH",
"548 405 OFFCURVE",
"461 360 OFFCURVE",
"343 360 CURVE SMOOTH",
"166 360 LINE"
);
}
);
width = 602;
}
);
rightKerningGroup = P;
unicode = 0050;
},
{
glyphname = Thorn;
lastChange = "2018-04-30 19:32:15 +0000";
layers = (
{
background = {
paths = (
{
closed = 1;
nodes = (
"771 524 OFFCURVE",
"642 608 OFFCURVE",
"478 608 CURVE SMOOTH",
"352 608 LINE SMOOTH",
"345 608 OFFCURVE",
"346 606 OFFCURVE",
"347 614 CURVE SMOOTH",
"361 715 LINE SMOOTH",
"363 728 OFFCURVE",
"355 742 OFFCURVE",
"343 742 CURVE SMOOTH",
"153 742 LINE SMOOTH",
"142 742 OFFCURVE",
"138 740 OFFCURVE",
"136 725 CURVE SMOOTH",
"38 31 LINE SMOOTH",
"36 14 OFFCURVE",
"44 0 OFFCURVE",
"64 0 CURVE SMOOTH",
"232 0 LINE SMOOTH",
"255 0 OFFCURVE",
"261 2 OFFCURVE",
"264 23 CURVE SMOOTH",
"278 125 LINE SMOOTH",
"279 132 OFFCURVE",
"288 142 OFFCURVE",
"297 142 CURVE SMOOTH",
"447 142 LINE SMOOTH",
"610 142 OFFCURVE",
"729 223 OFFCURVE",
"748 361 CURVE SMOOTH"
);
},
{
closed = 1;
nodes = (
"514 341 OFFCURVE",
"475 302 OFFCURVE",
"427 302 CURVE SMOOTH",
"316 302 LINE SMOOTH",
"303 302 OFFCURVE",
"303 303 OFFCURVE",
"305 318 CURVE SMOOTH",
"320 421 LINE SMOOTH",
"322 436 OFFCURVE",
"334 448 OFFCURVE",
"351 448 CURVE SMOOTH",
"450 448 LINE SMOOTH",
"496 448 OFFCURVE",
"526 426 OFFCURVE",
"520 386 CURVE SMOOTH"
);
}
);
};
layerId = "258ED206-D907-4350-8EBA-CBDDA1C16BF7";
paths = (
{
closed = 1;
nodes = (
"751 511 OFFCURVE",
"626 592 OFFCURVE",
"466 592 CURVE SMOOTH",
"337 592 LINE",
"356 723 LINE",
"135 723 LINE",
"33 0 LINE",
"254 0 LINE",
"273 138 LINE",
"436 138 LINE SMOOTH",
"594 138 OFFCURVE",
"710 217 OFFCURVE",
"729 352 CURVE SMOOTH"
);
},
{
closed = 1;
nodes = (
"501 332 OFFCURVE",
"463 294 OFFCURVE",
"416 294 CURVE SMOOTH",
"295 294 LINE",
"316 436 LINE",
"439 436 LINE SMOOTH",
"483 436 OFFCURVE",
"513 415 OFFCURVE",
"507 376 CURVE SMOOTH"
);
}
);
width = 746;
},
{
background = {
paths = (
{
closed = 1;
nodes = (
"648 521 OFFCURVE",
"545 579 OFFCURVE",
"389 579 CURVE SMOOTH",
"210 579 LINE SMOOTH",
"206 579 OFFCURVE",
"205 580 OFFCURVE",
"206 583 CURVE SMOOTH",
"226 731 LINE SMOOTH",
"228 739 OFFCURVE",
"225 742 OFFCURVE",
"218 742 CURVE SMOOTH",
"190 742 LINE SMOOTH",
"183 742 OFFCURVE",
"182 741 OFFCURVE",
"181 733 CURVE SMOOTH",
"79 9 LINE SMOOTH",
"78 4 OFFCURVE",
"82 0 OFFCURVE",
"87 0 CURVE SMOOTH",
"117 0 LINE SMOOTH",
"122 0 OFFCURVE",
"124 2 OFFCURVE",
"125 8 CURVE SMOOTH",
"148 172 LINE SMOOTH",
"149 178 OFFCURVE",
"152 182 OFFCURVE",
"158 182 CURVE SMOOTH",
"341 182 LINE SMOOTH",
"491 182 OFFCURVE",
"608 238 OFFCURVE",
"629 388 CURVE SMOOTH"
);
},
{
closed = 1;
nodes = (
"565 269 OFFCURVE",
"473 222 OFFCURVE",
"345 222 CURVE SMOOTH",
"161 222 LINE SMOOTH",
"156 222 OFFCURVE",
"155 224 OFFCURVE",
"156 231 CURVE SMOOTH",
"198 530 LINE SMOOTH",
"199 536 OFFCURVE",
"204 539 OFFCURVE",
"210 539 CURVE SMOOTH",
"385 539 LINE SMOOTH",
"520 539 OFFCURVE",
"597 502 OFFCURVE",
"582 392 CURVE SMOOTH"
);
}
);
};
layerId = "91AB5BCA-6A50-42DA-B2F7-8181BF189245";
paths = (
{
closed = 1;
nodes = (
"605 508 OFFCURVE",
"510 564 OFFCURVE",
"365 564 CURVE SMOOTH",
"195 564 LINE",
"216 723 LINE",
"173 723 LINE",
"77 0 LINE",
"120 0 LINE",
"143 177 LINE",
"321 177 LINE SMOOTH",
"459 177 OFFCURVE",
"568 232 OFFCURVE",
"588 378 CURVE SMOOTH"
);
},
{
closed = 1;
nodes = (
"528 262 OFFCURVE",
"443 216 OFFCURVE",
"324 216 CURVE SMOOTH",
"149 216 LINE",
"190 525 LINE",
"361 525 LINE SMOOTH",
"487 525 OFFCURVE",
"558 489 OFFCURVE",
"544 382 CURVE SMOOTH"
);
}
);
width = 605;
}
);
leftMetricsKey = P;
rightMetricsKey = P;
unicode = 00DE;
},
{
glyphname = Q;
lastChange = "2018-04-30 19:32:15 +0000";
layers = (
{
background = {
paths = (
{
closed = 1;
nodes = (
"97 138 OFFCURVE",
"236 -10 OFFCURVE",
"457 -10 CURVE SMOOTH",
"483 -10 OFFCURVE",
"504 -9 OFFCURVE",
"528 -6 CURVE SMOOTH",
"535 -5 OFFCURVE",
"540 -6 OFFCURVE",
"543 -10 CURVE SMOOTH",
"600 -84 OFFCURVE",
"672 -128 OFFCURVE",
"772 -128 CURVE SMOOTH",
"804 -128 OFFCURVE",
"816 -122 OFFCURVE",
"816 -97 CURVE SMOOTH",
"816 13 LINE SMOOTH",
"816 20 OFFCURVE",
"813 28 OFFCURVE",
"799 30 CURVE SMOOTH",
"756 36 OFFCURVE",
"709 61 OFFCURVE",
"709 78 CURVE SMOOTH",
"709 82 OFFCURVE",
"709 84 OFFCURVE",
"711 86 CURVE",
"778 152 OFFCURVE",
"816 249 OFFCURVE",
"816 369 CURVE SMOOTH",
"816 601 OFFCURVE",
"673 752 OFFCURVE",
"457 752 CURVE SMOOTH",
"240 752 OFFCURVE",
"97 601 OFFCURVE",
"97 369 CURVE SMOOTH"
);
},
{
closed = 1;
nodes = (
"335 532 OFFCURVE",
"370 598 OFFCURVE",
"457 598 CURVE SMOOTH",
"543 598 OFFCURVE",
"578 532 OFFCURVE",
"578 367 CURVE SMOOTH",
"578 206 OFFCURVE",
"545 146 OFFCURVE",
"457 146 CURVE SMOOTH",
"368 146 OFFCURVE",
"335 206 OFFCURVE",
"335 367 CURVE SMOOTH"
);
}
);
};
layerId = "258ED206-D907-4350-8EBA-CBDDA1C16BF7";
paths = (
{
closed = 1;
nodes = (
"12 134 OFFCURVE",
"127 -10 OFFCURVE",
"342 -10 CURVE SMOOTH",
"366 -10 OFFCURVE",
"387 -9 OFFCURVE",
"423 -5 CURVE",
"493 -113 OFFCURVE",
"560 -125 OFFCURVE",
"676 -125 CURVE",
"698 27 LINE",
"648 27 OFFCURVE",
"606 52 OFFCURVE",
"602 80 CURVE",
"677 150 OFFCURVE",
"728 243 OFFCURVE",
"744 360 CURVE SMOOTH",
"776 586 OFFCURVE",
"657 733 OFFCURVE",
"446 733 CURVE SMOOTH",
"235 733 OFFCURVE",
"75 586 OFFCURVE",
"44 360 CURVE SMOOTH"
);
},
{
closed = 1;
nodes = (
"278 518 OFFCURVE",
"340 577 OFFCURVE",
"425 577 CURVE SMOOTH",
"509 577 OFFCURVE",
"554 518 OFFCURVE",
"531 358 CURVE SMOOTH",
"510 201 OFFCURVE",
"450 146 OFFCURVE",
"365 146 CURVE SMOOTH",
"278 146 OFFCURVE",
"234 201 OFFCURVE",
"255 358 CURVE SMOOTH"
);
}
);
width = 786;
},
{
background = {
paths = (
{
closed = 1;
nodes = (
"130 116 OFFCURVE",
"247 -10 OFFCURVE",
"431 -10 CURVE SMOOTH",
"457 -10 OFFCURVE",
"487 -7 OFFCURVE",
"512 -1 CURVE SMOOTH",
"519 1 OFFCURVE",
"524 -1 OFFCURVE",
"527 -5 CURVE SMOOTH",
"592 -96 OFFCURVE",
"658 -122 OFFCURVE",
"702 -122 CURVE SMOOTH",
"716 -122 OFFCURVE",
"722 -120 OFFCURVE",
"722 -109 CURVE SMOOTH",
"722 -87 LINE SMOOTH",
"722 -84 OFFCURVE",
"721 -81 OFFCURVE",
"715 -80 CURVE SMOOTH",
"640 -70 OFFCURVE",
"573 -11 OFFCURVE",
"573 16 CURVE SMOOTH",
"573 20 OFFCURVE",
"574 22 OFFCURVE",
"579 25 CURVE SMOOTH",
"676 83 OFFCURVE",
"732 189 OFFCURVE",
"732 369 CURVE SMOOTH",
"732 620 OFFCURVE",
"619 752 OFFCURVE",
"431 752 CURVE SMOOTH",
"243 752 OFFCURVE",
"130 620 OFFCURVE",
"130 369 CURVE SMOOTH"
);
},
{
closed = 1;
nodes = (
"178 592 OFFCURVE",
"264 710 OFFCURVE",
"431 710 CURVE SMOOTH",
"598 710 OFFCURVE",
"684 592 OFFCURVE",
"684 369 CURVE SMOOTH",
"684 141 OFFCURVE",
"595 32 OFFCURVE",
"431 32 CURVE SMOOTH",
"267 32 OFFCURVE",
"178 141 OFFCURVE",
"178 367 CURVE SMOOTH"
);
}
);
};
layerId = "91AB5BCA-6A50-42DA-B2F7-8181BF189245";
paths = (
{
closed = 1;
nodes = (
"39 113 OFFCURVE",
"131 -10 OFFCURVE",
"301 -10 CURVE SMOOTH",
"328 -10 OFFCURVE",
"356 -6 OFFCURVE",
"386 1 CURVE",
"422 -98 OFFCURVE",
"511 -119 OFFCURVE",
"557 -119 CURVE",
"562 -79 LINE",
"502 -76 OFFCURVE",
"452 -50 OFFCURVE",
"429 18 CURVE",
"548 79 OFFCURVE",
"607 194 OFFCURVE",
"630 360 CURVE SMOOTH",
"662 604 OFFCURVE",
"574 733 OFFCURVE",
"400 733 CURVE SMOOTH",
"226 733 OFFCURVE",
"105 604 OFFCURVE",
"72 360 CURVE SMOOTH"
);
},
{
closed = 1;
nodes = (
"143 577 OFFCURVE",
"241 692 OFFCURVE",
"395 692 CURVE SMOOTH",
"550 692 OFFCURVE",
"617 577 OFFCURVE",
"588 360 CURVE SMOOTH",
"559 137 OFFCURVE",
"458 31 OFFCURVE",
"307 31 CURVE SMOOTH",
"155 31 OFFCURVE",
"85 137 OFFCURVE",
"113 358 CURVE SMOOTH"
);
}
);
width = 682;
}
);
leftKerningGroup = O;
rightKerningGroup = O;
unicode = 0051;
},
{
glyphname = R;
lastChange = "2018-04-30 19:32:15 +0000";
layers = (
{
anchors = (
{
name = bottom;
position = "{325, 0}";
},
{
name = top;
position = "{416, 723}";
}
);
background = {
anchors = (
{
name = bottom;
position = "{437, 0}";
},
{
name = top;
position = "{427, 742}";
}
);
paths = (
{
closed = 1;
nodes = (
"644 312 LINE SMOOTH",
"641 320 OFFCURVE",
"641 328 OFFCURVE",
"648 331 CURVE SMOOTH",
"724 360 OFFCURVE",
"779 436 OFFCURVE",
"779 530 CURVE SMOOTH",
"779 664 OFFCURVE",
"667 742 OFFCURVE",
"474 742 CURVE SMOOTH",
"140 742 LINE SMOOTH",
"128 742 OFFCURVE",
"121 734 OFFCURVE",
"121 719 CURVE SMOOTH",
"121 25 LINE SMOOTH",
"121 8 OFFCURVE",
"127 0 OFFCURVE",
"147 0 CURVE SMOOTH",
"315 0 LINE SMOOTH",
"338 0 OFFCURVE",
"348 8 OFFCURVE",
"348 29 CURVE SMOOTH",
"348 284 LINE SMOOTH",
"348 287 OFFCURVE",
"351 295 OFFCURVE",
"360 295 CURVE SMOOTH",
"406 295 LINE SMOOTH",
"425 295 OFFCURVE",
"433 290 OFFCURVE",
"437 279 CURVE SMOOTH",
"531 21 LINE SMOOTH",
"535 7 OFFCURVE",
"544 0 OFFCURVE",
"558 0 CURVE SMOOTH",
"752 0 LINE SMOOTH",
"768 0 OFFCURVE",
"777 15 OFFCURVE",
"770 32 CURVE SMOOTH"
);
},
{
closed = 1;
nodes = (
"365 444 LINE SMOOTH",
"352 444 OFFCURVE",
"348 450 OFFCURVE",
"348 465 CURVE SMOOTH",
"348 574 LINE SMOOTH",
"348 589 OFFCURVE",
"354 594 OFFCURVE",
"371 594 CURVE SMOOTH",
"459 594 LINE SMOOTH",
"504 594 OFFCURVE",
"544 567 OFFCURVE",
"544 516 CURVE SMOOTH",
"544 473 OFFCURVE",
"516 444 OFFCURVE",
"465 444 CURVE SMOOTH"
);
}
);
};
layerId = "258ED206-D907-4350-8EBA-CBDDA1C16BF7";
paths = (
{
closed = 1;
nodes = (
"546 280 LINE",
"619 321 OFFCURVE",
"674 379 OFFCURVE",
"690 490 CURVE SMOOTH",
"708 621 OFFCURVE",
"650 723 OFFCURVE",
"462 723 CURVE SMOOTH",
"135 723 LINE",
"33 0 LINE",
"228 0 LINE",
"263 248 LINE",
"365 248 LINE",
"435 0 LINE",
"633 0 LINE"
);
},
{
closed = 1;
nodes = (
"283 394 LINE",
"309 579 LINE",
"420 579 LINE SMOOTH",
"464 579 OFFCURVE",
"501 538 OFFCURVE",
"494 487 CURVE SMOOTH",
"487 440 OFFCURVE",
"443 394 OFFCURVE",
"394 394 CURVE SMOOTH"
);
}
);
width = 716;
},
{
anchors = (
{
name = bottom;
position = "{282, 0}";
},
{
name = top;
position = "{372, 723}";
}
);
background = {
anchors = (
{
name = bottom;
position = "{408, 0}";
},
{
name = top;
position = "{401, 742}";
}
);
paths = (
{
closed = 1;
nodes = (
"520 359 LINE",
"519 362 OFFCURVE",
"520 365 OFFCURVE",
"524 366 CURVE SMOOTH",
"593 384 OFFCURVE",
"676 435 OFFCURVE",
"676 558 CURVE SMOOTH",
"676 680 OFFCURVE",
"592 742 OFFCURVE",
"448 742 CURVE SMOOTH",
"190 742 LINE SMOOTH",
"183 742 OFFCURVE",
"181 740 OFFCURVE",
"181 732 CURVE SMOOTH",
"181 9 LINE SMOOTH",
"181 3 OFFCURVE",
"183 0 OFFCURVE",
"191 0 CURVE SMOOTH",
"217 0 LINE SMOOTH",
"225 0 OFFCURVE",
"227 3 OFFCURVE",
"227 11 CURVE SMOOTH",
"227 344 LINE SMOOTH",
"227 351 OFFCURVE",
"230 355 OFFCURVE",
"239 355 CURVE SMOOTH",
"455 355 LINE SMOOTH",
"468 355 OFFCURVE",
"473 352 OFFCURVE",
"476 345 CURVE SMOOTH",
"618 9 LINE SMOOTH",
"621 3 OFFCURVE",
"623 0 OFFCURVE",
"630 0 CURVE SMOOTH",
"658 0 LINE SMOOTH",
"665 0 OFFCURVE",
"669 7 OFFCURVE",
"666 14 CURVE SMOOTH"
);
},
{
closed = 1;
nodes = (
"234 395 LINE SMOOTH",
"229 395 OFFCURVE",
"227 398 OFFCURVE",
"227 404 CURVE SMOOTH",
"227 694 LINE SMOOTH",
"227 700 OFFCURVE",
"230 702 OFFCURVE",
"238 702 CURVE SMOOTH",
"447 702 LINE SMOOTH",
"568 702 OFFCURVE",
"628 653 OFFCURVE",
"628 551 CURVE SMOOTH",
"628 439 OFFCURVE",
"556 395 OFFCURVE",
"413 395 CURVE SMOOTH"
);
}
);
};
layerId = "91AB5BCA-6A50-42DA-B2F7-8181BF189245";
paths = (
{
closed = 1;
nodes = (
"431 353 LINE",
"499 371 OFFCURVE",
"587 423 OFFCURVE",
"602 544 CURVE SMOOTH",
"618 663 OFFCURVE",
"549 723 OFFCURVE",
"416 723 CURVE SMOOTH",
"173 723 LINE",
"77 0 LINE",
"114 0 LINE",
"160 344 LINE",
"390 344 LINE",
"484 0 LINE",
"526 0 LINE"
);
},
{
closed = 1;
nodes = (
"166 385 LINE",
"205 682 LINE",
"409 682 LINE SMOOTH",
"521 682 OFFCURVE",
"575 639 OFFCURVE",
"562 537 CURVE SMOOTH",
"547 428 OFFCURVE",
"470 385 OFFCURVE",
"338 385 CURVE SMOOTH"
);
}
);
width = 637;
}
);
leftMetricsKey = N;
rightKerningGroup = R;
unicode = 0052;
},
{
glyphname = S;
lastChange = "2018-04-30 19:32:15 +0000";
layers = (
{
anchors = (
{
name = bottom;
position = "{334, 0}";
},
{
name = top;
position = "{435, 723}";
}
);
background = {
anchors = (
{
name = bottom;
position = "{445, 0}";
},
{
name = top;
position = "{445, 742}";
}
);
paths = (
{
closed = 1;
nodes = (
"598 529 OFFCURVE",
"604 528 OFFCURVE",
"614 535 CURVE SMOOTH",
"723 614 LINE SMOOTH",
"736 624 OFFCURVE",
"729 635 OFFCURVE",
"723 644 CURVE SMOOTH",
"677 709 OFFCURVE",
"564 752 OFFCURVE",
"445 752 CURVE SMOOTH",
"256 752 OFFCURVE",
"137 645 OFFCURVE",
"137 515 CURVE SMOOTH",
"137 410 OFFCURVE",
"213 323 OFFCURVE",
"333 293 CURVE SMOOTH",
"485 256 LINE SMOOTH",
"528 246 OFFCURVE",
"548 226 OFFCURVE",
"548 202 CURVE SMOOTH",
"548 165 OFFCURVE",
"500 144 OFFCURVE",
"427 144 CURVE SMOOTH",
"348 144 OFFCURVE",
"309 167 OFFCURVE",
"265 224 CURVE SMOOTH",
"257 234 OFFCURVE",
"245 238 OFFCURVE",
"227 226 CURVE SMOOTH",
"124 155 LINE SMOOTH",
"110 144 OFFCURVE",
"110 136 OFFCURVE",
"118 122 CURVE SMOOTH",
"165 43 OFFCURVE",
"298 -10 OFFCURVE",
"444 -10 CURVE SMOOTH",
"641 -10 OFFCURVE",
"764 86 OFFCURVE",
"764 234 CURVE SMOOTH",
"764 337 OFFCURVE",
"706 421 OFFCURVE",
"581 452 CURVE SMOOTH",
"415 495 LINE SMOOTH",
"365 507 OFFCURVE",
"351 528 OFFCURVE",
"351 546 CURVE SMOOTH",
"351 571 OFFCURVE",
"378 597 OFFCURVE",
"453 597 CURVE SMOOTH",
"531 597 OFFCURVE",
"560 569 OFFCURVE",
"584 543 CURVE SMOOTH"
);
}
);
};
guideLines = (
{
angle = 214.3236;
position = "{606, 404}";
}
);
layerId = "258ED206-D907-4350-8EBA-CBDDA1C16BF7";
paths = (
{
closed = 1;
nodes = (
"523 -10 OFFCURVE",
"656 84 OFFCURVE",
"677 228 CURVE SMOOTH",
"690 328 OFFCURVE",
"643 399 OFFCURVE",
"527 431 CURVE SMOOTH",
"371 473 LINE SMOOTH",
"310 489 OFFCURVE",
"314 514 OFFCURVE",
"316 532 CURVE SMOOTH",
"320 556 OFFCURVE",
"350 582 OFFCURVE",
"423 582 CURVE SMOOTH",
"509 582 OFFCURVE",
"530 548 OFFCURVE",
"557 512 CURVE",
"703 603 LINE",
"668 689 OFFCURVE",
"558 733 OFFCURVE",
"436 733 CURVE SMOOTH",
"252 733 OFFCURVE",
"121 628 OFFCURVE",
"104 502 CURVE SMOOTH",
"89 399 OFFCURVE",
"157 324 OFFCURVE",
"265 295 CURVE SMOOTH",
"420 254 LINE SMOOTH",
"464 243 OFFCURVE",
"466 221 OFFCURVE",
"463 201 CURVE SMOOTH",
"457 161 OFFCURVE",
"398 150 OFFCURVE",
"337 150 CURVE SMOOTH",
"241 150 OFFCURVE",
"206 177 OFFCURVE",
"169 231 CURVE",
"23 139 LINE",
"58 50 OFFCURVE",
"184 -10 OFFCURVE",
"331 -10 CURVE SMOOTH"
);
}
);
width = 721;
},
{
anchors = (
{
name = bottom;
position = "{275, 0}";
},
{
name = top;
position = "{377, 723}";
}
);
background = {
anchors = (
{
name = bottom;
position = "{410, 0}";
},
{
name = top;
position = "{406, 742}";
}
);
paths = (
{
closed = 1;
nodes = (
"593 620 OFFCURVE",
"595 618 OFFCURVE",
"600 622 CURVE SMOOTH",
"622 642 LINE SMOOTH",
"628 647 OFFCURVE",
"626 652 OFFCURVE",
"622 656 CURVE SMOOTH",
"565 716 OFFCURVE",
"498 752 OFFCURVE",
"405 752 CURVE SMOOTH",
"268 752 OFFCURVE",
"173 681 OFFCURVE",
"173 556 CURVE SMOOTH",
"173 492 OFFCURVE",
"203 421 OFFCURVE",
"311 380 CURVE SMOOTH",
"462 322 LINE SMOOTH",
"571 280 OFFCURVE",
"594 239 OFFCURVE",
"594 180 CURVE SMOOTH",
"594 73 OFFCURVE",
"515 32 OFFCURVE",
"396 32 CURVE SMOOTH",
"289 32 OFFCURVE",
"241 69 OFFCURVE",
"185 141 CURVE SMOOTH",
"180 147 OFFCURVE",
"175 148 OFFCURVE",
"165 141 CURVE SMOOTH",
"154 133 LINE SMOOTH",
"144 126 OFFCURVE",
"143 120 OFFCURVE",
"148 113 CURVE SMOOTH",
"207 29 OFFCURVE",
"285 -10 OFFCURVE",
"396 -10 CURVE SMOOTH",
"547 -10 OFFCURVE",
"640 60 OFFCURVE",
"640 182 CURVE SMOOTH",
"640 266 OFFCURVE",
"597 326 OFFCURVE",
"479 369 CURVE SMOOTH",
"341 419 LINE SMOOTH",
"234 458 OFFCURVE",
"219 518 OFFCURVE",
"219 557 CURVE SMOOTH",
"219 656 OFFCURVE",
"293 710 OFFCURVE",
"402 710 CURVE SMOOTH",
"486 710 OFFCURVE",
"547 674 OFFCURVE",
"587 627 CURVE SMOOTH"
);
}
);
};
layerId = "91AB5BCA-6A50-42DA-B2F7-8181BF189245";
paths = (
{
closed = 1;
nodes = (
"409 -10 OFFCURVE",
"505 58 OFFCURVE",
"520 177 CURVE SMOOTH",
"532 259 OFFCURVE",
"500 318 OFFCURVE",
"397 360 CURVE SMOOTH",
"275 408 LINE SMOOTH",
"181 446 OFFCURVE",
"172 505 OFFCURVE",
"176 543 CURVE SMOOTH",
"189 639 OFFCURVE",
"268 690 OFFCURVE",
"368 690 CURVE SMOOTH",
"450 690 OFFCURVE",
"504 653 OFFCURVE",
"536 602 CURVE",
"572 631 LINE",
"525 695 OFFCURVE",
"466 733 OFFCURVE",
"377 733 CURVE SMOOTH",
"250 733 OFFCURVE",
"153 663 OFFCURVE",
"137 542 CURVE SMOOTH",
"129 479 OFFCURVE",
"148 417 OFFCURVE",
"243 377 CURVE SMOOTH",
"375 321 LINE SMOOTH",
"470 280 OFFCURVE",
"488 233 OFFCURVE",
"480 175 CURVE SMOOTH",
"467 71 OFFCURVE",
"385 33 OFFCURVE",
"275 33 CURVE SMOOTH",
"173 33 OFFCURVE",
"133 70 OFFCURVE",
"89 146 CURVE",
"51 121 LINE",
"95 31 OFFCURVE",
"164 -10 OFFCURVE",
"269 -10 CURVE SMOOTH"
);
}
);
width = 611;
}
);
leftKerningGroup = S;
rightKerningGroup = S;
unicode = 0053;
},
{
glyphname = Schwa;
lastChange = "2018-04-30 19:32:15 +0000";
layers = (
{
background = {
paths = (
{
closed = 1;
nodes = (
"546 437 OFFCURVE",
"533 425 OFFCURVE",
"520 425 CURVE SMOOTH",
"87 425 LINE SMOOTH",
"65 425 OFFCURVE",
"68 420 OFFCURVE",
"65 403 CURVE SMOOTH",
"29 142 OFFCURVE",
"132 -10 OFFCURVE",
"369 -10 CURVE SMOOTH",
"558 -10 OFFCURVE",
"746 152 OFFCURVE",
"777 369 CURVE SMOOTH",
"808 593 OFFCURVE",
"689 752 OFFCURVE",
"463 752 CURVE SMOOTH",
"321 752 OFFCURVE",
"209 694 OFFCURVE",
"130 577 CURVE SMOOTH",
"121 556 OFFCURVE",
"124 544 OFFCURVE",
"135 538 CURVE SMOOTH",
"265 471 LINE SMOOTH",
"280 462 OFFCURVE",
"284 457 OFFCURVE",
"290 459 CURVE SMOOTH",
"346 539 OFFCURVE",
"391 578 OFFCURVE",
"457 578 CURVE SMOOTH",
"551 578 OFFCURVE",
"557 512 OFFCURVE",
"549 458 CURVE SMOOTH"
);
},
{
closed = 1;
nodes = (
"498 198 OFFCURVE",
"458 146 OFFCURVE",
"373 146 CURVE SMOOTH",
"309 146 OFFCURVE",
"279 195 OFFCURVE",
"288 256 CURVE SMOOTH",
"291 276 OFFCURVE",
"301 285 OFFCURVE",
"318 285 CURVE SMOOTH",
"523 290 LINE"
);
}
);
};
layerId = "258ED206-D907-4350-8EBA-CBDDA1C16BF7";
paths = (
{
closed = 1;
nodes = (
"67 414 LINE",
"32 146 OFFCURVE",
"131 -10 OFFCURVE",
"360 -10 CURVE SMOOTH",
"544 -10 OFFCURVE",
"727 148 OFFCURVE",
"757 360 CURVE SMOOTH",
"788 578 OFFCURVE",
"672 733 OFFCURVE",
"452 733 CURVE SMOOTH",
"305 733 OFFCURVE",
"190 667 OFFCURVE",
"110 536 CURVE",
"283 446 LINE",
"338 525 OFFCURVE",
"381 563 OFFCURVE",
"446 563 CURVE SMOOTH",
"532 563 OFFCURVE",
"538 481 OFFCURVE",
"530 414 CURVE"
);
},
{
closed = 1;
nodes = (
"486 193 OFFCURVE",
"447 142 OFFCURVE",
"364 142 CURVE SMOOTH",
"304 142 OFFCURVE",
"277 203 OFFCURVE",
"285 277 CURVE",
"510 283 LINE"
);
}
);
width = 788;
},
{
background = {
paths = (
{
closed = 1;
nodes = (
"636 382 OFFCURVE",
"634 380 OFFCURVE",
"629 380 CURVE SMOOTH",
"94 380 LINE SMOOTH",
"86 380 OFFCURVE",
"87 376 OFFCURVE",
"86 371 CURVE SMOOTH",
"58 175 OFFCURVE",
"99 -10 OFFCURVE",
"335 -10 CURVE SMOOTH",
"563 -10 OFFCURVE",
"660 179 OFFCURVE",
"686 364 CURVE SMOOTH",
"709 530 OFFCURVE",
"689 752 OFFCURVE",
"438 752 CURVE SMOOTH",
"211 752 OFFCURVE",
"142 561 OFFCURVE",
"120 524 CURVE SMOOTH",
"119 518 OFFCURVE",
"118 514 OFFCURVE",
"122 513 CURVE SMOOTH",
"158 500 LINE SMOOTH",
"162 499 OFFCURVE",
"163 497 OFFCURVE",
"165 498 CURVE SMOOTH",
"182 530 OFFCURVE",
"226 709 OFFCURVE",
"436 709 CURVE SMOOTH",
"653 709 OFFCURVE",
"654 505 OFFCURVE",
"637 388 CURVE SMOOTH"
);
},
{
closed = 1;
nodes = (
"607 192 OFFCURVE",
"534 33 OFFCURVE",
"337 33 CURVE SMOOTH",
"141 33 OFFCURVE",
"113 191 OFFCURVE",
"132 330 CURVE SMOOTH",
"133 335 OFFCURVE",
"136 338 OFFCURVE",
"142 338 CURVE SMOOTH",
"630 339 LINE"
);
}
);
};
layerId = "91AB5BCA-6A50-42DA-B2F7-8181BF189245";
paths = (
{
closed = 1;
nodes = (
"86 370 LINE",
"61 174 OFFCURVE",
"99 -10 OFFCURVE",
"316 -10 CURVE SMOOTH",
"527 -10 OFFCURVE",
"616 174 OFFCURVE",
"641 355 CURVE SMOOTH",
"662 516 OFFCURVE",
"644 733 OFFCURVE",
"411 733 CURVE SMOOTH",
"197 733 OFFCURVE",
"133 540 OFFCURVE",
"112 503 CURVE",
"158 484 LINE",
"175 516 OFFCURVE",
"214 691 OFFCURVE",
"409 691 CURVE SMOOTH",
"610 691 OFFCURVE",
"610 487 OFFCURVE",
"594 370 CURVE"
);
},
{
closed = 1;
nodes = (
"568 187 OFFCURVE",
"500 32 OFFCURVE",
"318 32 CURVE SMOOTH",
"138 32 OFFCURVE",
"111 190 OFFCURVE",
"129 329 CURVE",
"589 330 LINE"
);
}
);
width = 697;
}
);
leftMetricsKey = O;
rightMetricsKey = O;
unicode = 018F;
},
{
glyphname = T;
lastChange = "2018-04-30 19:32:15 +0000";
layers = (
{
anchors = (
{
name = bottom;
position = "{291, 0}";
},
{
name = top;
position = "{393, 723}";
}
);
background = {
anchors = (
{
name = bottom;
position = "{407, 0}";
},
{
name = top;
position = "{407, 742}";
}
);
paths = (
{
closed = 1;
nodes = (
"83 586 OFFCURVE",
"92 581 OFFCURVE",
"106 581 CURVE SMOOTH",
"282 581 LINE SMOOTH",
"290 581 OFFCURVE",
"293 577 OFFCURVE",
"293 567 CURVE SMOOTH",
"293 20 LINE SMOOTH",
"293 7 OFFCURVE",
"300 0 OFFCURVE",
"311 0 CURVE SMOOTH",
"501 0 LINE SMOOTH",
"512 0 OFFCURVE",
"520 7 OFFCURVE",
"520 22 CURVE SMOOTH",
"520 571 LINE SMOOTH",
"520 578 OFFCURVE",
"524 581 OFFCURVE",
"532 581 CURVE SMOOTH",
"709 581 LINE SMOOTH",
"722 581 OFFCURVE",
"731 586 OFFCURVE",
"731 600 CURVE SMOOTH",
"731 719 LINE SMOOTH",
"731 732 OFFCURVE",
"723 742 OFFCURVE",
"706 742 CURVE SMOOTH",
"108 742 LINE SMOOTH",
"91 742 OFFCURVE",
"83 732 OFFCURVE",
"83 719 CURVE SMOOTH",
"83 600 LINE SMOOTH"
);
}
);
};
layerId = "258ED206-D907-4350-8EBA-CBDDA1C16BF7";
paths = (
{
closed = 1;
nodes = (
"262 551 LINE",
"185 0 LINE",
"380 0 LINE",
"457 551 LINE",
"664 551 LINE",
"688 723 LINE",
"81 723 LINE",
"57 551 LINE"
);
}
);
width = 639;
},
{
anchors = (
{
name = bottom;
position = "{241, 0}";
},
{
name = top;
position = "{337, 723}";
}
);
background = {
anchors = (
{
name = bottom;
position = "{363, 0}";
},
{
name = top;
position = "{363, 742}";
}
);
paths = (
{
closed = 1;
nodes = (
"87 703 OFFCURVE",
"89 702 OFFCURVE",
"95 702 CURVE SMOOTH",
"329 702 LINE SMOOTH",
"337 702 OFFCURVE",
"339 701 OFFCURVE",
"339 693 CURVE SMOOTH",
"339 10 LINE SMOOTH",
"339 2 OFFCURVE",
"341 0 OFFCURVE",
"349 0 CURVE SMOOTH",
"376 0 LINE SMOOTH",
"383 0 OFFCURVE",
"385 2 OFFCURVE",
"385 10 CURVE SMOOTH",
"385 693 LINE SMOOTH",
"385 701 OFFCURVE",
"387 702 OFFCURVE",
"395 702 CURVE SMOOTH",
"608 702 LINE SMOOTH",
"614 702 OFFCURVE",
"616 703 OFFCURVE",
"616 709 CURVE SMOOTH",
"616 735 LINE SMOOTH",
"616 740 OFFCURVE",
"614 742 OFFCURVE",
"609 742 CURVE SMOOTH",
"94 742 LINE SMOOTH",
"89 742 OFFCURVE",
"87 740 OFFCURVE",
"87 735 CURVE SMOOTH",
"87 709 LINE SMOOTH"
);
}
);
};
layerId = "91AB5BCA-6A50-42DA-B2F7-8181BF189245";
paths = (
{
closed = 1;
nodes = (
"312 682 LINE",
"221 0 LINE",
"258 0 LINE",
"349 682 LINE",
"565 682 LINE",
"570 723 LINE",
"81 723 LINE",
"75 682 LINE"
);
}
);
width = 520;
}
);
leftKerningGroup = T;
rightKerningGroup = T;
unicode = 0054;
},
{
glyphname = Tbar;
lastChange = "2018-04-30 19:32:15 +0000";
layers = (
{
background = {
components = (
{
name = T;
}
);
paths = (
{
closed = 1;
nodes = (
"591 408 OFFCURVE",
"582 422 OFFCURVE",
"571 422 CURVE SMOOTH",
"170 422 LINE SMOOTH",
"158 422 OFFCURVE",
"155 420 OFFCURVE",
"153 405 CURVE SMOOTH",
"140 312 LINE SMOOTH",
"138 295 OFFCURVE",
"145 281 OFFCURVE",
"165 281 CURVE SMOOTH",
"544 281 LINE SMOOTH",
"567 281 OFFCURVE",
"573 283 OFFCURVE",
"576 303 CURVE SMOOTH",
"589 396 LINE SMOOTH"
);
}
);
};
components = (
{
name = T;
}
);
layerId = "258ED206-D907-4350-8EBA-CBDDA1C16BF7";
paths = (
{
closed = 1;
nodes = (
"151 411 LINE",
"133 274 LINE",
"558 274 LINE",
"578 411 LINE"
);
}
);
width = 639;
},
{
background = {
components = (
{
name = T;
}
);
guideLines = (
{
angle = 90;
position = "{212, 188}";
showMeasurement = 1;
}
);
paths = (
{
closed = 1;
nodes = (
"528 398 OFFCURVE",
"525 402 OFFCURVE",
"520 402 CURVE SMOOTH",
"168 402 LINE SMOOTH",
"163 402 OFFCURVE",
"162 400 OFFCURVE",
"161 394 CURVE SMOOTH",
"158 371 LINE SMOOTH",
"157 364 OFFCURVE",
"159 360 OFFCURVE",
"167 360 CURVE SMOOTH",
"510 360 LINE SMOOTH",
"519 360 OFFCURVE",
"523 362 OFFCURVE",
"524 370 CURVE SMOOTH",
"527 393 LINE SMOOTH"
);
}
);
};
components = (
{
name = T;
}
);
guideLines = (
{
angle = 90;
position = "{16, 87}";
showMeasurement = 1;
}
);
layerId = "91AB5BCA-6A50-42DA-B2F7-8181BF189245";
paths = (
{
closed = 1;
nodes = (
"155 392 LINE",
"150 351 LINE",
"488 351 LINE",
"493 392 LINE"
);
}
);
width = 520;
}
);
leftMetricsKey = T;
rightMetricsKey = T;
unicode = 0166;
},
{
glyphname = U;
lastChange = "2018-04-30 19:32:15 +0000";
layers = (
{
anchors = (
{
name = ogonek;
position = "{425, 12}";
},
{
name = top;
position = "{429, 723}";
}
);
background = {
anchors = (
{
name = ogonek;
position = "{555, 10}";
},
{
name = top;
position = "{460, 742}";
}
);
paths = (
{
closed = 1;
nodes = (
"763 721 LINE SMOOTH",
"763 734 OFFCURVE",
"757 742 OFFCURVE",
"745 742 CURVE SMOOTH",
"595 742 LINE SMOOTH",
"583 742 OFFCURVE",
"576 734 OFFCURVE",
"576 719 CURVE SMOOTH",
"576 292 LINE SMOOTH",
"576 181 OFFCURVE",
"522 149 OFFCURVE",
"460 149 CURVE SMOOTH",
"392 149 OFFCURVE",
"350 187 OFFCURVE",
"350 289 CURVE SMOOTH",
"350 721 LINE SMOOTH",
"350 734 OFFCURVE",
"344 742 OFFCURVE",
"332 742 CURVE SMOOTH",
"142 742 LINE SMOOTH",
"131 742 OFFCURVE",
"123 734 OFFCURVE",
"123 719 CURVE SMOOTH",
"123 313 LINE SMOOTH",
"123 104 OFFCURVE",
"204 -10 OFFCURVE",
"443 -10 CURVE SMOOTH",
"634 -10 OFFCURVE",
"763 62 OFFCURVE",
"763 293 CURVE SMOOTH"
);
}
);
};
layerId = "258ED206-D907-4350-8EBA-CBDDA1C16BF7";
paths = (
{
closed = 1;
nodes = (
"758 723 LINE",
"561 723 LINE",
"501 290 LINE SMOOTH",
"486 191 OFFCURVE",
"427 153 OFFCURVE",
"366 153 CURVE SMOOTH",
"306 153 OFFCURVE",
"256 191 OFFCURVE",
"271 290 CURVE SMOOTH",
"331 723 LINE",
"135 723 LINE",
"75 299 LINE SMOOTH",
"49 115 OFFCURVE",
"110 -10 OFFCURVE",
"343 -10 CURVE SMOOTH",
"576 -10 OFFCURVE",
"672 115 OFFCURVE",
"699 299 CURVE SMOOTH"
);
}
);
width = 748;
},
{
anchors = (
{
name = ogonek;
position = "{372, 9}";
},
{
name = top;
position = "{404, 723}";
}
);
background = {
anchors = (
{
name = ogonek;
position = "{504, 9}";
},
{
name = top;
position = "{436, 742}";
}
);
paths = (
{
closed = 1;
nodes = (
"679 733 LINE SMOOTH",
"679 739 OFFCURVE",
"677 742 OFFCURVE",
"671 742 CURVE SMOOTH",
"647 742 LINE SMOOTH",
"641 742 OFFCURVE",
"639 739 OFFCURVE",
"639 733 CURVE SMOOTH",
"639 229 LINE SMOOTH",
"639 97 OFFCURVE",
"572 32 OFFCURVE",
"434 32 CURVE SMOOTH",
"298 32 OFFCURVE",
"231 96 OFFCURVE",
"231 226 CURVE SMOOTH",
"231 732 LINE SMOOTH",
"231 740 OFFCURVE",
"229 742 OFFCURVE",
"221 742 CURVE SMOOTH",
"193 742 LINE SMOOTH",
"187 742 OFFCURVE",
"185 739 OFFCURVE",
"185 731 CURVE SMOOTH",
"185 245 LINE SMOOTH",
"185 71 OFFCURVE",
"264 -10 OFFCURVE",
"432 -10 CURVE SMOOTH",
"598 -10 OFFCURVE",
"679 69 OFFCURVE",
"679 230 CURVE SMOOTH"
);
}
);
};
layerId = "91AB5BCA-6A50-42DA-B2F7-8181BF189245";
paths = (
{
closed = 1;
nodes = (
"629 723 LINE",
"592 723 LINE",
"526 222 LINE SMOOTH",
"508 94 OFFCURVE",
"436 28 OFFCURVE",
"308 28 CURVE SMOOTH",
"182 28 OFFCURVE",
"130 95 OFFCURVE",
"148 222 CURVE SMOOTH",
"214 723 LINE",
"173 723 LINE",
"109 239 LINE SMOOTH",
"87 69 OFFCURVE",
"147 -10 OFFCURVE",
"303 -10 CURVE SMOOTH",
"456 -10 OFFCURVE",
"541 67 OFFCURVE",
"562 224 CURVE SMOOTH"
);
}
);
width = 675;
}
);
leftKerningGroup = U;
rightKerningGroup = U;
unicode = 0055;
},
{
glyphname = V;
lastChange = "2018-04-30 19:32:15 +0000";
layers = (
{
background = {
paths = (
{
closed = 1;
nodes = (
"620 742 LINE SMOOTH",
"608 742 OFFCURVE",
"597 734 OFFCURVE",
"594 721 CURVE SMOOTH",
"469 283 LINE SMOOTH",
"466 273 OFFCURVE",
"462 273 OFFCURVE",
"459 282 CURVE SMOOTH",
"325 721 LINE SMOOTH",
"321 734 OFFCURVE",
"312 742 OFFCURVE",
"300 742 CURVE SMOOTH",
"107 742 LINE SMOOTH",
"91 742 OFFCURVE",
"82 728 OFFCURVE",
"88 713 CURVE SMOOTH",
"320 25 LINE SMOOTH",
"325 8 OFFCURVE",
"337 0 OFFCURVE",
"357 0 CURVE SMOOTH",
"519 0 LINE SMOOTH",
"539 0 OFFCURVE",
"551 8 OFFCURVE",
"556 25 CURVE SMOOTH",
"788 713 LINE SMOOTH",
"793 728 OFFCURVE",
"785 742 OFFCURVE",
"769 742 CURVE SMOOTH"
);
}
);
};
guideLines = (
{
angle = -108.62;
position = "{280, 222}";
}
);
layerId = "258ED206-D907-4350-8EBA-CBDDA1C16BF7";
paths = (
{
closed = 1;
nodes = (
"594 723 LINE",
"358 228 LINE",
"259 723 LINE",
"76 723 LINE",
"218 0 LINE",
"433 0 LINE",
"778 723 LINE"
);
}
);
width = 724;
},
{
background = {
paths = (
{
closed = 1;
nodes = (
"642 742 LINE SMOOTH",
"636 742 OFFCURVE",
"633 740 OFFCURVE",
"631 735 CURVE SMOOTH",
"387 65 LINE SMOOTH",
"382 51 OFFCURVE",
"376 51 OFFCURVE",
"371 64 CURVE SMOOTH",
"134 734 LINE SMOOTH",
"132 740 OFFCURVE",
"129 742 OFFCURVE",
"121 742 CURVE SMOOTH",
"98 742 LINE SMOOTH",
"91 742 OFFCURVE",
"88 738 OFFCURVE",
"90 732 CURVE SMOOTH",
"345 10 LINE SMOOTH",
"347 3 OFFCURVE",
"353 0 OFFCURVE",
"364 0 CURVE SMOOTH",
"396 0 LINE SMOOTH",
"405 0 OFFCURVE",
"409 3 OFFCURVE",
"412 11 CURVE SMOOTH",
"674 733 LINE SMOOTH",
"676 738 OFFCURVE",
"673 742 OFFCURVE",
"667 742 CURVE SMOOTH"
);
}
);
};
layerId = "91AB5BCA-6A50-42DA-B2F7-8181BF189245";
paths = (
{
closed = 1;
nodes = (
"587 723 LINE",
"261 41 LINE",
"122 723 LINE",
"80 723 LINE",
"227 0 LINE",
"281 0 LINE",
"627 723 LINE"
);
}
);
width = 576;
}
);
leftKerningGroup = V;
rightKerningGroup = V;
unicode = 0056;
},
{
glyphname = W;
lastChange = "2018-04-30 19:32:15 +0000";
layers = (
{
anchors = (
{
name = top;
position = "{556, 723}";
}
);
background = {
anchors = (
{
name = top;
position = "{594, 742}";
}
);
paths = (
{
closed = 1;
nodes = (
"974 742 LINE SMOOTH",
"953 742 OFFCURVE",
"945 734 OFFCURVE",
"942 721 CURVE SMOOTH",
"840 339 LINE SMOOTH",
"838 331 OFFCURVE",
"831 333 OFFCURVE",
"829 341 CURVE SMOOTH",
"719 721 LINE SMOOTH",
"715 734 OFFCURVE",
"708 742 OFFCURVE",
"687 742 CURVE SMOOTH",
"547 742 LINE SMOOTH",
"526 742 OFFCURVE",
"518 734 OFFCURVE",
"515 721 CURVE SMOOTH",
"410 346 LINE SMOOTH",
"407 335 OFFCURVE",
"402 335 OFFCURVE",
"398 350 CURVE SMOOTH",
"292 721 LINE SMOOTH",
"288 734 OFFCURVE",
"281 742 OFFCURVE",
"260 742 CURVE SMOOTH",
"95 742 LINE SMOOTH",
"69 742 OFFCURVE",
"59 725 OFFCURVE",
"65 702 CURVE SMOOTH",
"269 25 LINE SMOOTH",
"275 8 OFFCURVE",
"285 0 OFFCURVE",
"305 0 CURVE SMOOTH",
"448 0 LINE SMOOTH",
"469 0 OFFCURVE",
"479 8 OFFCURVE",
"484 25 CURVE SMOOTH",
"587 375 LINE SMOOTH",
"594 395 OFFCURVE",
"599 393 OFFCURVE",
"603 377 CURVE SMOOTH",
"707 25 LINE SMOOTH",
"712 8 OFFCURVE",
"723 0 OFFCURVE",
"743 0 CURVE SMOOTH",
"881 0 LINE SMOOTH",
"901 0 OFFCURVE",
"911 8 OFFCURVE",
"917 25 CURVE SMOOTH",
"1120 702 LINE SMOOTH",
"1126 725 OFFCURVE",
"1116 742 OFFCURVE",
"1090 742 CURVE SMOOTH"
);
}
);
};
guideLines = (
{
angle = -73.94;
position = "{262, 704}";
},
{
angle = 74.3834;
position = "{477, 704}";
}
);
layerId = "258ED206-D907-4350-8EBA-CBDDA1C16BF7";
paths = (
{
closed = 1;
nodes = (
"845 723 LINE",
"682 335 LINE",
"625 723 LINE",
"489 723 LINE",
"327 335 LINE",
"269 723 LINE",
"81 723 LINE",
"198 0 LINE",
"341 0 LINE",
"511 393 LINE",
"570 0 LINE",
"715 0 LINE",
"1033 723 LINE"
);
}
);
width = 984;
},
{
anchors = (
{
name = top;
position = "{518, 723}";
}
);
background = {
anchors = (
{
name = top;
position = "{559, 742}";
}
);
guideLines = (
{
position = "{93, 125}";
showMeasurement = 1;
}
);
paths = (
{
closed = 1;
nodes = (
"981 742 LINE SMOOTH",
"975 742 OFFCURVE",
"970 740 OFFCURVE",
"969 735 CURVE SMOOTH",
"780 72 LINE SMOOTH",
"776 58 OFFCURVE",
"772 58 OFFCURVE",
"768 71 CURVE SMOOTH",
"583 734 LINE SMOOTH",
"581 740 OFFCURVE",
"579 742 OFFCURVE",
"571 742 CURVE SMOOTH",
"546 742 LINE SMOOTH",
"537 742 OFFCURVE",
"534 738 OFFCURVE",
"533 735 CURVE SMOOTH",
"344 72 LINE SMOOTH",
"340 58 OFFCURVE",
"336 58 OFFCURVE",
"332 71 CURVE SMOOTH",
"147 734 LINE SMOOTH",
"145 740 OFFCURVE",
"143 742 OFFCURVE",
"135 742 CURVE SMOOTH",
"110 742 LINE SMOOTH",
"103 742 OFFCURVE",
"100 738 OFFCURVE",
"102 732 CURVE SMOOTH",
"304 10 LINE SMOOTH",
"306 3 OFFCURVE",
"312 0 OFFCURVE",
"322 0 CURVE SMOOTH",
"354 0 LINE SMOOTH",
"364 0 OFFCURVE",
"368 3 OFFCURVE",
"370 11 CURVE SMOOTH",
"555 658 LINE SMOOTH",
"556 662 OFFCURVE",
"558 662 OFFCURVE",
"559 658 CURVE SMOOTH",
"740 10 LINE SMOOTH",
"742 3 OFFCURVE",
"748 0 OFFCURVE",
"758 0 CURVE SMOOTH",
"790 0 LINE SMOOTH",
"800 0 OFFCURVE",
"804 3 OFFCURVE",
"806 11 CURVE SMOOTH",
"1013 733 LINE SMOOTH",
"1014 738 OFFCURVE",
"1012 742 OFFCURVE",
"1006 742 CURVE SMOOTH"
);
}
);
};
guideLines = (
{
position = "{6, 58}";
showMeasurement = 1;
}
);
layerId = "91AB5BCA-6A50-42DA-B2F7-8181BF189245";
paths = (
{
closed = 1;
nodes = (
"891 723 LINE",
"620 49 LINE",
"530 723 LINE",
"493 723 LINE",
"222 49 LINE",
"135 723 LINE",
"94 723 LINE",
"190 0 LINE",
"240 0 LINE",
"501 648 LINE",
"587 0 LINE",
"639 0 LINE",
"932 723 LINE"
);
}
);
width = 896;
}
);
leftKerningGroup = W;
rightKerningGroup = W;
unicode = 0057;
},
{
glyphname = X;
lastChange = "2018-04-30 19:32:15 +0000";
layers = (
{
background = {
paths = (
{
closed = 1;
nodes = (
"567 403 LINE",
"789 742 LINE",
"572 742 LINE",
"458 541 LINE",
"344 742 LINE",
"89 742 LINE",
"325 374 LINE",
"116 51 LINE SMOOTH",
"90 11 OFFCURVE",
"101 0 OFFCURVE",
"129 0 CURVE SMOOTH",
"303 0 LINE",
"436 233 LINE",
"572 0 LINE",
"782 0 LINE SMOOTH",
"810 0 OFFCURVE",
"821 12 OFFCURVE",
"796 51 CURVE SMOOTH"
);
}
);
};
layerId = "258ED206-D907-4350-8EBA-CBDDA1C16BF7";
paths = (
{
closed = 1;
nodes = (
"492 393 LINE",
"755 723 LINE",
"551 723 LINE",
"412 527 LINE",
"328 723 LINE",
"87 723 LINE",
"266 364 LINE",
"-20 0 LINE",
"187 0 LINE",
"348 227 LINE",
"449 0 LINE",
"693 0 LINE"
);
}
);
width = 745;
},
{
background = {
guideLines = (
{
angle = 90;
position = "{109, 437}";
},
{
angle = 90;
position = "{620, 372}";
},
{
position = "{75, 716}";
showMeasurement = 1;
},
{
position = "{69, 32}";
showMeasurement = 1;
},
{
position = "{139, 454}";
showMeasurement = 1;
},
{
position = "{137, 290}";
showMeasurement = 1;
},
{
angle = 236.602;
position = "{352, 374}";
},
{
angle = 123.344;
position = "{409, 374}";
},
{
angle = 56.5817;
position = "{397, 370}";
},
{
angle = 123.4;
position = "{362, 370}";
}
);
paths = (
{
closed = 1;
nodes = (
"411 374 LINE SMOOTH",
"407 380 OFFCURVE",
"408 384 OFFCURVE",
"412 390 CURVE SMOOTH",
"646 736 LINE SMOOTH",
"648 739 OFFCURVE",
"648 742 OFFCURVE",
"644 742 CURVE SMOOTH",
"603 742 LINE SMOOTH",
"599 742 OFFCURVE",
"597 741 OFFCURVE",
"595 738 CURVE SMOOTH",
"388 431 LINE SMOOTH",
"381 421 OFFCURVE",
"377 422 OFFCURVE",
"371 430 CURVE SMOOTH",
"164 738 LINE SMOOTH",
"162 741 OFFCURVE",
"161 742 OFFCURVE",
"155 742 CURVE SMOOTH",
"116 742 LINE SMOOTH",
"112 742 OFFCURVE",
"111 737 OFFCURVE",
"113 734 CURVE SMOOTH",
"345 391 LINE SMOOTH",
"350 383 OFFCURVE",
"351 377 OFFCURVE",
"346 370 CURVE SMOOTH",
"104 10 LINE SMOOTH",
"99 2 OFFCURVE",
"101 0 OFFCURVE",
"107 0 CURVE SMOOTH",
"143 0 LINE SMOOTH",
"146 0 OFFCURVE",
"149 1 OFFCURVE",
"151 4 CURVE SMOOTH",
"368 324 LINE SMOOTH",
"378 339 OFFCURVE",
"382 338 OFFCURVE",
"389 327 CURVE SMOOTH",
"609 4 LINE SMOOTH",
"611 1 OFFCURVE",
"612 0 OFFCURVE",
"616 0 CURVE SMOOTH",
"652 0 LINE SMOOTH",
"658 0 OFFCURVE",
"662 2 OFFCURVE",
"656 10 CURVE SMOOTH"
);
}
);
};
guideLines = (
{
angle = 90;
position = "{9, 202}";
},
{
angle = 90;
position = "{41, 172}";
},
{
position = "{12, 331}";
showMeasurement = 1;
},
{
position = "{-2, 15}";
showMeasurement = 1;
},
{
position = "{11, 210}";
showMeasurement = 1;
},
{
position = "{8, 134}";
showMeasurement = 1;
},
{
angle = 236.602;
position = "{24, 173}";
},
{
angle = 123.344;
position = "{27, 173}";
},
{
angle = 56.5817;
position = "{26, 171}";
},
{
angle = 123.4;
position = "{24, 171}";
}
);
layerId = "91AB5BCA-6A50-42DA-B2F7-8181BF189245";
paths = (
{
closed = 1;
nodes = (
"329 371 LINE",
"601 723 LINE",
"554 723 LINE",
"308 407 LINE",
"149 723 LINE",
"100 723 LINE",
"279 370 LINE",
"-7 0 LINE",
"41 0 LINE",
"300 332 LINE",
"470 0 LINE",
"518 0 LINE"
);
}
);
width = 583;
}
);
leftKerningGroup = X;
rightKerningGroup = X;
unicode = 0058;
},
{
glyphname = Y;
lastChange = "2018-04-30 19:32:15 +0000";
layers = (
{
anchors = (
{
name = top;
position = "{448, 723}";
}
);
background = {
anchors = (
{
name = top;
position = "{460, 742}";
}
);
paths = (
{
closed = 1;
nodes = (
"633 742 LINE SMOOTH",
"614 742 OFFCURVE",
"607 738 OFFCURVE",
"599 721 CURVE SMOOTH",
"478 498 LINE SMOOTH",
"471 486 OFFCURVE",
"467 487 OFFCURVE",
"461 499 CURVE SMOOTH",
"338 721 LINE SMOOTH",
"329 737 OFFCURVE",
"324 742 OFFCURVE",
"304 742 CURVE SMOOTH",
"103 742 LINE SMOOTH",
"82 742 OFFCURVE",
"75 730 OFFCURVE",
"85 714 CURVE SMOOTH",
"319 332 LINE SMOOTH",
"328 317 OFFCURVE",
"333 309 OFFCURVE",
"333 288 CURVE SMOOTH",
"333 25 LINE SMOOTH",
"333 8 OFFCURVE",
"339 0 OFFCURVE",
"359 0 CURVE SMOOTH",
"527 0 LINE SMOOTH",
"550 0 OFFCURVE",
"560 8 OFFCURVE",
"560 29 CURVE SMOOTH",
"560 275 LINE SMOOTH",
"560 317 OFFCURVE",
"561 327 OFFCURVE",
"570 341 CURVE SMOOTH",
"804 719 LINE SMOOTH",
"812 732 OFFCURVE",
"807 742 OFFCURVE",
"790 742 CURVE SMOOTH"
);
}
);
};
guideLines = (
{
angle = 58.823;
position = "{551, 704}";
}
);
layerId = "258ED206-D907-4350-8EBA-CBDDA1C16BF7";
paths = (
{
closed = 1;
nodes = (
"565 723 LINE",
"387 466 LINE",
"280 723 LINE",
"70 723 LINE",
"266 301 LINE",
"224 0 LINE",
"419 0 LINE",
"461 301 LINE",
"777 723 LINE"
);
}
);
width = 718;
},
{
anchors = (
{
name = top;
position = "{318, 723}";
}
);
background = {
anchors = (
{
name = top;
position = "{344, 742}";
}
);
paths = (
{
closed = 1;
nodes = (
"586 742 LINE SMOOTH",
"577 742 OFFCURVE",
"575 741 OFFCURVE",
"570 733 CURVE SMOOTH",
"361 374 LINE SMOOTH",
"353 361 OFFCURVE",
"346 360 OFFCURVE",
"337 376 CURVE SMOOTH",
"127 733 LINE SMOOTH",
"123 740 OFFCURVE",
"120 742 OFFCURVE",
"111 742 CURVE SMOOTH",
"88 742 LINE SMOOTH",
"78 742 OFFCURVE",
"76 737 OFFCURVE",
"80 730 CURVE SMOOTH",
"324 315 LINE SMOOTH",
"328 308 OFFCURVE",
"329 305 OFFCURVE",
"329 295 CURVE SMOOTH",
"329 11 LINE SMOOTH",
"329 4 OFFCURVE",
"332 0 OFFCURVE",
"341 0 CURVE SMOOTH",
"360 0 LINE SMOOTH",
"371 0 OFFCURVE",
"375 4 OFFCURVE",
"375 13 CURVE SMOOTH",
"375 306 LINE SMOOTH",
"375 316 OFFCURVE",
"375 320 OFFCURVE",
"379 326 CURVE SMOOTH",
"618 731 LINE SMOOTH",
"622 737 OFFCURVE",
"619 742 OFFCURVE",
"612 742 CURVE SMOOTH"
);
}
);
};
guideLines = (
{
angle = 239.8907;
position = "{20, 148}";
},
{
angle = -59.5603;
position = "{14, 233}";
},
{
angle = 54.2961;
position = "{41, 343}";
}
);
layerId = "91AB5BCA-6A50-42DA-B2F7-8181BF189245";
paths = (
{
closed = 1;
nodes = (
"528 723 LINE",
"273 349 LINE",
"113 723 LINE",
"75 723 LINE",
"250 312 LINE",
"208 0 LINE",
"245 0 LINE",
"287 311 LINE",
"568 723 LINE"
);
}
);
width = 513;
}
);
leftKerningGroup = Y;
rightKerningGroup = Y;
unicode = 0059;
},
{
glyphname = Z;
lastChange = "2018-04-30 19:32:15 +0000";
layers = (
{
anchors = (
{
name = bottom;
position = "{322, 0}";
},
{
name = top;
position = "{446, 723}";
}
);
background = {
anchors = (
{
name = bottom;
position = "{434, 0}";
},
{
name = top;
position = "{458, 742}";
}
);
paths = (
{
closed = 1;
nodes = (
"764 0 LINE",
"764 166 LINE",
"423 166 LINE",
"770 654 LINE",
"770 742 LINE",
"146 742 LINE",
"146 577 LINE",
"453 577 LINE",
"113 91 LINE",
"113 0 LINE"
);
}
);
};
layerId = "258ED206-D907-4350-8EBA-CBDDA1C16BF7";
paths = (
{
closed = 1;
nodes = (
"624 0 LINE",
"646 162 LINE",
"304 162 LINE",
"719 637 LINE",
"731 723 LINE",
"142 723 LINE",
"120 562 LINE",
"429 562 LINE",
"22 89 LINE",
"9 0 LINE"
);
}
);
width = 706;
},
{
anchors = (
{
name = bottom;
position = "{258, 0}";
},
{
name = top;
position = "{348, 723}";
}
);
background = {
anchors = (
{
name = bottom;
position = "{382, 0}";
},
{
name = top;
position = "{375, 742}";
}
);
paths = (
{
closed = 1;
nodes = (
"614 0 LINE",
"614 40 LINE",
"180 40 LINE",
"614 715 LINE",
"614 742 LINE",
"135 742 LINE",
"135 702 LINE",
"556 702 LINE",
"125 28 LINE",
"125 0 LINE"
);
}
);
};
guideLines = (
{
angle = 237.1304;
position = "{41, 329}";
}
);
layerId = "91AB5BCA-6A50-42DA-B2F7-8181BF189245";
paths = (
{
closed = 1;
nodes = (
"472 0 LINE",
"477 39 LINE",
"71 39 LINE",
"565 693 LINE",
"568 723 LINE",
"125 723 LINE",
"120 684 LINE",
"514 684 LINE",
"24 31 LINE",
"20 0 LINE"
);
}
);
width = 564;
}
);
leftKerningGroup = Z;
rightKerningGroup = Z;
unicode = 005A;
},
{
glyphname = a;
lastChange = "2018-04-30 19:32:15 +0000";
layers = (
{
anchors = (
{
name = ogonek;
position = "{464, 10}";
},
{
name = top;
position = "{328, 516}";
}
);
background = {
anchors = (
{
name = ogonek;
position = "{579, 10}";
},
{
name = top;
position = "{367, 530}";
}
);
guideLines = (
{
angle = 90;
position = "{417, 102}";
}
);
paths = (
{
closed = 1;
nodes = (
"410 56 OFFCURVE",
"418 55 OFFCURVE",
"420 42 CURVE SMOOTH",
"421 35 LINE SMOOTH",
"424 16 OFFCURVE",
"429 0 OFFCURVE",
"447 0 CURVE SMOOTH",
"584 0 LINE SMOOTH",
"603 0 OFFCURVE",
"607 7 OFFCURVE",
"607 27 CURVE SMOOTH",
"607 375 LINE SMOOTH",
"607 473 OFFCURVE",
"552 540 OFFCURVE",
"367 540 CURVE SMOOTH",
"236 540 OFFCURVE",
"145 506 OFFCURVE",
"115 421 CURVE SMOOTH",
"106 396 OFFCURVE",
"112 391 OFFCURVE",
"122 389 CURVE SMOOTH",
"253 363 LINE SMOOTH",
"271 360 OFFCURVE",
"275 363 OFFCURVE",
"280 374 CURVE SMOOTH",
"297 411 OFFCURVE",
"330 421 OFFCURVE",
"358 421 CURVE SMOOTH",
"398 421 OFFCURVE",
"417 400 OFFCURVE",
"417 363 CURVE SMOOTH",
"417 346 LINE SMOOTH",
"417 334 OFFCURVE",
"407 332 OFFCURVE",
"402 332 CURVE SMOOTH",
"395 332 LINE SMOOTH",
"206 332 OFFCURVE",
"88 253 OFFCURVE",
"88 136 CURVE SMOOTH",
"88 53 OFFCURVE",
"148 -10 OFFCURVE",
"248 -10 CURVE SMOOTH",
"310 -10 OFFCURVE",
"357 12 OFFCURVE",
"393 42 CURVE SMOOTH"
);
},
{
closed = 1;
nodes = (
"417 171 LINE SMOOTH",
"417 156 OFFCURVE",
"406 145 OFFCURVE",
"394 135 CURVE SMOOTH",
"383 126 OFFCURVE",
"365 116 OFFCURVE",
"339 116 CURVE SMOOTH",
"303 116 OFFCURVE",
"282 135 OFFCURVE",
"282 163 CURVE SMOOTH",
"282 219 OFFCURVE",
"366 242 OFFCURVE",
"398 242 CURVE SMOOTH",
"402 242 LINE SMOOTH",
"414 242 OFFCURVE",
"417 236 OFFCURVE",
"417 224 CURVE SMOOTH"
);
}
);
};
guideLines = (
{
angle = 270;
position = "{135, 97}";
}
);
layerId = "258ED206-D907-4350-8EBA-CBDDA1C16BF7";
paths = (
{
closed = 1;
nodes = (
"237 -10 OFFCURVE",
"296 20 OFFCURVE",
"325 80 CURVE",
"329 0 LINE",
"490 0 LINE",
"541 365 LINE SMOOTH",
"554 461 OFFCURVE",
"510 526 OFFCURVE",
"330 526 CURVE SMOOTH",
"198 526 OFFCURVE",
"98 464 OFFCURVE",
"60 361 CURVE",
"213 350 LINE",
"239 398 OFFCURVE",
"276 410 OFFCURVE",
"305 410 CURVE SMOOTH",
"344 410 OFFCURVE",
"359 390 OFFCURVE",
"355 354 CURVE SMOOTH",
"352 332 LINE",
"312 332 LINE SMOOTH",
"124 332 OFFCURVE",
"27 267 OFFCURVE",
"12 155 CURVE SMOOTH",
"-3 48 OFFCURVE",
"69 -10 OFFCURVE",
"167 -10 CURVE SMOOTH"
);
},
{
closed = 1;
nodes = (
"219 113 OFFCURVE",
"191 135 OFFCURVE",
"197 174 CURVE SMOOTH",
"205 230 OFFCURVE",
"276 241 OFFCURVE",
"307 241 CURVE SMOOTH",
"338 241 LINE",
"329 174 LINE",
"323 142 OFFCURVE",
"290 113 OFFCURVE",
"252 113 CURVE SMOOTH"
);
}
);
width = 572;
},
{
anchors = (
{
name = ogonek;
position = "{403, 14}";
},
{
name = top;
position = "{299, 516}";
}
);
background = {
anchors = (
{
name = ogonek;
position = "{541, 14}";
},
{
name = top;
position = "{356, 530}";
}
);
paths = (
{
closed = 1;
nodes = (
"503 78 OFFCURVE",
"507 77 OFFCURVE",
"508 70 CURVE SMOOTH",
"510 9 LINE SMOOTH",
"510 2 OFFCURVE",
"513 0 OFFCURVE",
"519 0 CURVE SMOOTH",
"537 0 LINE SMOOTH",
"543 0 OFFCURVE",
"547 2 OFFCURVE",
"547 10 CURVE SMOOTH",
"547 367 LINE SMOOTH",
"547 475 OFFCURVE",
"473 540 OFFCURVE",
"360 540 CURVE SMOOTH",
"265 540 OFFCURVE",
"198 493 OFFCURVE",
"156 431 CURVE SMOOTH",
"152 426 OFFCURVE",
"153 423 OFFCURVE",
"156 421 CURVE SMOOTH",
"180 406 LINE SMOOTH",
"184 403 OFFCURVE",
"186 405 OFFCURVE",
"190 410 CURVE SMOOTH",
"235 470 OFFCURVE",
"289 502 OFFCURVE",
"358 502 CURVE SMOOTH",
"448 502 OFFCURVE",
"507 448 OFFCURVE",
"507 363 CURVE SMOOTH",
"507 332 LINE SMOOTH",
"507 323 OFFCURVE",
"501 318 OFFCURVE",
"490 317 CURVE SMOOTH",
"385 308 LINE SMOOTH",
"221 294 OFFCURVE",
"138 236 OFFCURVE",
"138 135 CURVE SMOOTH",
"138 45 OFFCURVE",
"203 -10 OFFCURVE",
"308 -10 CURVE SMOOTH",
"382 -10 OFFCURVE",
"443 17 OFFCURVE",
"498 72 CURVE SMOOTH"
);
},
{
closed = 1;
nodes = (
"507 171 LINE SMOOTH",
"507 141 OFFCURVE",
"487 107 OFFCURVE",
"450 77 CURVE SMOOTH",
"412 47 OFFCURVE",
"363 28 OFFCURVE",
"314 28 CURVE SMOOTH",
"233 28 OFFCURVE",
"180 69 OFFCURVE",
"180 138 CURVE SMOOTH",
"180 215 OFFCURVE",
"247 261 OFFCURVE",
"404 273 CURVE SMOOTH",
"493 280 LINE SMOOTH",
"502 281 OFFCURVE",
"507 277 OFFCURVE",
"507 266 CURVE SMOOTH"
);
}
);
};
hints = (
{
horizontal = 1;
place = "{258, -5}";
type = Stem;
}
);
layerId = "91AB5BCA-6A50-42DA-B2F7-8181BF189245";
paths = (
{
closed = 1;
nodes = (
"256 -10 OFFCURVE",
"320 19 OFFCURVE",
"381 80 CURVE",
"373 0 LINE",
"407 0 LINE",
"454 358 LINE SMOOTH",
"468 463 OFFCURVE",
"409 526 OFFCURVE",
"304 526 CURVE SMOOTH",
"214 526 OFFCURVE",
"144 477 OFFCURVE",
"95 413 CURVE",
"124 393 LINE",
"174 456 OFFCURVE",
"231 489 OFFCURVE",
"297 489 CURVE SMOOTH",
"380 489 OFFCURVE",
"428 436 OFFCURVE",
"417 354 CURVE SMOOTH",
"411 310 LINE",
"297 300 LINE SMOOTH",
"131 285 OFFCURVE",
"61 247 OFFCURVE",
"46 132 CURVE SMOOTH",
"34 44 OFFCURVE",
"87 -10 OFFCURVE",
"184 -10 CURVE SMOOTH"
);
},
{
closed = 1;
nodes = (
"120 27 OFFCURVE",
"75 67 OFFCURVE",
"85 134 CURVE SMOOTH",
"97 225 OFFCURVE",
"151 253 OFFCURVE",
"310 266 CURVE SMOOTH",
"406 274 LINE",
"392 167 LINE SMOOTH",
"383 96 OFFCURVE",
"277 27 OFFCURVE",
"195 27 CURVE SMOOTH"
);
}
);
width = 539;
}
);
leftKerningGroup = a;
unicode = 0061;
},
{
glyphname = ae;
lastChange = "2018-04-30 19:32:15 +0000";
layers = (
{
anchors = (
{
name = top;
position = "{490, 516}";
}
);
background = {
anchors = (
{
name = top;
position = "{503, 530}";
}
);
paths = (
{
closed = 1;
nodes = (
"887 229 LINE SMOOTH",
"904 230 OFFCURVE",
"901 231 OFFCURVE",
"903 243 CURVE SMOOTH",
"929 429 OFFCURVE",
"826 540 OFFCURVE",
"665 540 CURVE SMOOTH",
"617 540 OFFCURVE",
"566 529 OFFCURVE",
"515 500 CURVE",
"484 522 OFFCURVE",
"427 539 OFFCURVE",
"334 540 CURVE SMOOTH",
"185 540 OFFCURVE",
"125 504 OFFCURVE",
"76 432 CURVE SMOOTH",
"70 415 OFFCURVE",
"75 392 OFFCURVE",
"84 390 CURVE SMOOTH",
"211 364 LINE SMOOTH",
"228 361 OFFCURVE",
"229 356 OFFCURVE",
"237 364 CURVE",
"258 406 OFFCURVE",
"296 421 OFFCURVE",
"328 421 CURVE SMOOTH",
"364 421 OFFCURVE",
"377 406 OFFCURVE",
"372 369 CURVE SMOOTH",
"369 352 LINE SMOOTH",
"368 340 OFFCURVE",
"352 332 OFFCURVE",
"344 332 CURVE",
"321 331 LINE SMOOTH",
"128 322 OFFCURVE",
"27 256 OFFCURVE",
"12 154 CURVE SMOOTH",
"-1 58 OFFCURVE",
"53 -10 OFFCURVE",
"170 -10 CURVE SMOOTH",
"258 -10 OFFCURVE",
"325 8 OFFCURVE",
"393 62 CURVE SMOOTH",
"395 69 OFFCURVE",
"403 79 OFFCURVE",
"409 79 CURVE SMOOTH",
"449 24 OFFCURVE",
"519 -10 OFFCURVE",
"607 -10 CURVE SMOOTH",
"715 -10 OFFCURVE",
"784 12 OFFCURVE",
"872 108 CURVE",
"881 124 OFFCURVE",
"874 136 OFFCURVE",
"864 140 CURVE SMOOTH",
"779 177 LINE SMOOTH",
"766 182 OFFCURVE",
"765 187 OFFCURVE",
"758 186 CURVE SMOOTH",
"709 139 OFFCURVE",
"675 122 OFFCURVE",
"637 122 CURVE SMOOTH",
"583 122 OFFCURVE",
"545 145 OFFCURVE",
"553 201 CURVE SMOOTH",
"555 218 OFFCURVE",
"566 229 OFFCURVE",
"576 229 CURVE SMOOTH"
);
},
{
closed = 1;
nodes = (
"719 423 OFFCURVE",
"728 378 OFFCURVE",
"725 357 CURVE SMOOTH",
"723 340 OFFCURVE",
"713 332 OFFCURVE",
"700 332 CURVE SMOOTH",
"574 327 LINE",
"581 389 OFFCURVE",
"628 423 OFFCURVE",
"673 423 CURVE SMOOTH"
);
},
{
closed = 1;
nodes = (
"343 166 LINE SMOOTH",
"338 133 OFFCURVE",
"294 108 OFFCURVE",
"252 108 CURVE SMOOTH",
"217 108 OFFCURVE",
"202 121 OFFCURVE",
"205 145 CURVE SMOOTH",
"213 199 OFFCURVE",
"286 230 OFFCURVE",
"325 233 CURVE SMOOTH",
"339 234 LINE SMOOTH",
"351 234 OFFCURVE",
"353 234 OFFCURVE",
"351 222 CURVE SMOOTH"
);
}
);
};
layerId = "258ED206-D907-4350-8EBA-CBDDA1C16BF7";
paths = (
{
closed = 1;
nodes = (
"878 223 LINE",
"912 418 OFFCURVE",
"804 526 OFFCURVE",
"648 526 CURVE SMOOTH",
"601 526 OFFCURVE",
"551 515 OFFCURVE",
"502 487 CURVE",
"472 509 OFFCURVE",
"416 525 OFFCURVE",
"325 526 CURVE SMOOTH",
"167 526 OFFCURVE",
"102 479 OFFCURVE",
"51 387 CURVE",
"229 350 LINE",
"246 382 OFFCURVE",
"276 409 OFFCURVE",
"313 409 CURVE SMOOTH",
"335 409 OFFCURVE",
"374 404 OFFCURVE",
"363 355 CURVE SMOOTH",
"357 324 LINE",
"313 322 LINE SMOOTH",
"125 314 OFFCURVE",
"26 249 OFFCURVE",
"12 150 CURVE SMOOTH",
"-1 57 OFFCURVE",
"52 -10 OFFCURVE",
"166 -10 CURVE SMOOTH",
"251 -10 OFFCURVE",
"317 8 OFFCURVE",
"383 60 CURVE SMOOTH",
"385 67 OFFCURVE",
"393 77 OFFCURVE",
"398 77 CURVE SMOOTH",
"437 23 OFFCURVE",
"506 -10 OFFCURVE",
"591 -10 CURVE SMOOTH",
"704 -10 OFFCURVE",
"775 16 OFFCURVE",
"868 125 CURVE",
"738 181 LINE",
"691 135 OFFCURVE",
"658 119 OFFCURVE",
"621 119 CURVE SMOOTH",
"571 119 OFFCURVE",
"535 149 OFFCURVE",
"543 223 CURVE"
);
},
{
closed = 1;
nodes = (
"693 411 OFFCURVE",
"724 363 OFFCURVE",
"722 319 CURVE",
"559 319 LINE",
"566 379 OFFCURVE",
"607 411 OFFCURVE",
"651 411 CURVE SMOOTH"
);
},
{
closed = 1;
nodes = (
"334 162 LINE SMOOTH",
"329 130 OFFCURVE",
"286 105 OFFCURVE",
"245 105 CURVE SMOOTH",
"211 105 OFFCURVE",
"197 118 OFFCURVE",
"200 141 CURVE SMOOTH",
"207 194 OFFCURVE",
"279 224 OFFCURVE",
"317 227 CURVE SMOOTH",
"344 229 LINE"
);
}
);
width = 917;
},
{
anchors = (
{
name = top;
position = "{472, 516}";
}
);
background = {
anchors = (
{
name = top;
position = "{509, 530}";
}
);
paths = (
{
closed = 1;
nodes = (
"881 254 LINE SMOOTH",
"895 254 OFFCURVE",
"899 260 OFFCURVE",
"901 272 CURVE SMOOTH",
"925 443 OFFCURVE",
"846 540 OFFCURVE",
"708 540 CURVE SMOOTH",
"615 540 OFFCURVE",
"537 501 OFFCURVE",
"486 421 CURVE",
"478 500 OFFCURVE",
"427 540 OFFCURVE",
"327 540 CURVE SMOOTH",
"243 540 OFFCURVE",
"160 501 OFFCURVE",
"108 433 CURVE SMOOTH",
"105 427 OFFCURVE",
"105 424 OFFCURVE",
"108 422 CURVE SMOOTH",
"128 407 LINE SMOOTH",
"132 404 OFFCURVE",
"133 403 OFFCURVE",
"139 408 CURVE SMOOTH",
"194 469 OFFCURVE",
"252 502 OFFCURVE",
"317 502 CURVE SMOOTH",
"416 502 OFFCURVE",
"462 449 OFFCURVE",
"450 364 CURVE SMOOTH",
"446 333 LINE SMOOTH",
"444 324 OFFCURVE",
"436 318 OFFCURVE",
"424 317 CURVE SMOOTH",
"311 308 LINE SMOOTH",
"146 294 OFFCURVE",
"63 235 OFFCURVE",
"49 138 CURVE SMOOTH",
"36 46 OFFCURVE",
"91 -10 OFFCURVE",
"196 -10 CURVE SMOOTH",
"326 -10 OFFCURVE",
"394 61 OFFCURVE",
"437 106 CURVE SMOOTH",
"438 110 OFFCURVE",
"440 112 OFFCURVE",
"442 110 CURVE SMOOTH",
"465 66 OFFCURVE",
"508 -10 OFFCURVE",
"631 -10 CURVE SMOOTH",
"727 -10 OFFCURVE",
"815 36 OFFCURVE",
"858 98 CURVE SMOOTH",
"861 105 OFFCURVE",
"859 107 OFFCURVE",
"856 109 CURVE SMOOTH",
"836 124 LINE SMOOTH",
"832 127 OFFCURVE",
"831 128 OFFCURVE",
"825 123 CURVE SMOOTH",
"790 82 OFFCURVE",
"740 28 OFFCURVE",
"635 28 CURVE SMOOTH",
"524 28 OFFCURVE",
"451 133 OFFCURVE",
"465 226 CURVE SMOOTH",
"468 248 OFFCURVE",
"472 253 OFFCURVE",
"489 253 CURVE SMOOTH"
);
},
{
closed = 1;
nodes = (
"812 502 OFFCURVE",
"878 415 OFFCURVE",
"863 308 CURVE SMOOTH",
"861 295 OFFCURVE",
"859 290 OFFCURVE",
"843 290 CURVE SMOOTH",
"476 290 LINE",
"494 417 OFFCURVE",
"592 502 OFFCURVE",
"703 502 CURVE SMOOTH"
);
},
{
closed = 1;
nodes = (
"424 178 LINE",
"413 100 OFFCURVE",
"317 34 OFFCURVE",
"208 29 CURVE SMOOTH",
"124 25 OFFCURVE",
"83 70 OFFCURVE",
"92 136 CURVE SMOOTH",
"103 214 OFFCURVE",
"176 260 OFFCURVE",
"328 272 CURVE SMOOTH",
"424 279 LINE SMOOTH",
"437 280 OFFCURVE",
"438 276 OFFCURVE",
"436 266 CURVE SMOOTH"
);
}
);
};
hints = (
{
horizontal = 1;
place = "{265, 5}";
type = Stem;
}
);
layerId = "91AB5BCA-6A50-42DA-B2F7-8181BF189245";
paths = (
{
closed = 1;
nodes = (
"833 247 LINE",
"855 426 OFFCURVE",
"783 526 OFFCURVE",
"657 526 CURVE SMOOTH",
"570 526 OFFCURVE",
"498 488 OFFCURVE",
"452 410 CURVE",
"444 487 OFFCURVE",
"396 526 OFFCURVE",
"304 526 CURVE SMOOTH",
"225 526 OFFCURVE",
"146 485 OFFCURVE",
"97 415 CURVE",
"126 392 LINE",
"178 455 OFFCURVE",
"233 489 OFFCURVE",
"295 489 CURVE SMOOTH",
"387 489 OFFCURVE",
"429 437 OFFCURVE",
"418 355 CURVE SMOOTH",
"413 311 LINE",
"289 300 LINE SMOOTH",
"136 286 OFFCURVE",
"60 229 OFFCURVE",
"47 134 CURVE SMOOTH",
"35 45 OFFCURVE",
"86 -10 OFFCURVE",
"183 -10 CURVE SMOOTH",
"303 -10 OFFCURVE",
"366 59 OFFCURVE",
"406 103 CURVE SMOOTH",
"407 107 OFFCURVE",
"409 109 OFFCURVE",
"411 107 CURVE SMOOTH",
"432 64 OFFCURVE",
"472 -10 OFFCURVE",
"586 -10 CURVE SMOOTH",
"676 -10 OFFCURVE",
"759 38 OFFCURVE",
"799 101 CURVE",
"770 126 LINE",
"737 83 OFFCURVE",
"689 27 OFFCURVE",
"589 27 CURVE SMOOTH",
"490 27 OFFCURVE",
"423 143 OFFCURVE",
"435 246 CURVE"
);
},
{
closed = 1;
nodes = (
"751 489 OFFCURVE",
"812 397 OFFCURVE",
"797 283 CURVE",
"442 283 LINE",
"459 406 OFFCURVE",
"549 489 OFFCURVE",
"652 489 CURVE SMOOTH"
);
},
{
closed = 1;
nodes = (
"394 173 LINE",
"384 97 OFFCURVE",
"295 33 OFFCURVE",
"194 28 CURVE SMOOTH",
"116 24 OFFCURVE",
"78 68 OFFCURVE",
"87 133 CURVE SMOOTH",
"97 209 OFFCURVE",
"165 253 OFFCURVE",
"305 265 CURVE SMOOTH",
"407 273 LINE"
);
}
);
width = 902;
}
);
leftMetricsKey = a;
rightMetricsKey = e;
unicode = 00E6;
},
{
glyphname = b;
lastChange = "2018-04-30 19:32:15 +0000";
layers = (
{
background = {
paths = (
{
closed = 1;
nodes = (
"245 0 OFFCURVE",
"253 7 OFFCURVE",
"258 23 CURVE SMOOTH",
"274 70 LINE SMOOTH",
"277 78 OFFCURVE",
"281 79 OFFCURVE",
"287 73 CURVE SMOOTH",
"326 22 OFFCURVE",
"380 -10 OFFCURVE",
"443 -10 CURVE SMOOTH",
"589 -10 OFFCURVE",
"670 99 OFFCURVE",
"670 269 CURVE SMOOTH",
"670 436 OFFCURVE",
"594 540 OFFCURVE",
"464 540 CURVE SMOOTH",
"419 540 OFFCURVE",
"378 527 OFFCURVE",
"337 488 CURVE SMOOTH",
"327 480 OFFCURVE",
"318 480 OFFCURVE",
"318 496 CURVE SMOOTH",
"318 721 LINE SMOOTH",
"318 734 OFFCURVE",
"312 742 OFFCURVE",
"300 742 CURVE SMOOTH",
"137 742 LINE SMOOTH",
"126 742 OFFCURVE",
"118 734 OFFCURVE",
"118 719 CURVE SMOOTH",
"118 25 LINE SMOOTH",
"118 8 OFFCURVE",
"124 0 OFFCURVE",
"145 0 CURVE SMOOTH",
"232 0 LINE SMOOTH"
);
},
{
closed = 1;
nodes = (
"338 403 OFFCURVE",
"361 418 OFFCURVE",
"392 418 CURVE SMOOTH",
"441 418 OFFCURVE",
"468 381 OFFCURVE",
"468 265 CURVE SMOOTH",
"468 148 OFFCURVE",
"441 107 OFFCURVE",
"389 107 CURVE SMOOTH",
"347 107 OFFCURVE",
"318 135 OFFCURVE",
"318 185 CURVE SMOOTH",
"318 378 LINE"
);
}
);
};
layerId = "258ED206-D907-4350-8EBA-CBDDA1C16BF7";
paths = (
{
closed = 1;
nodes = (
"470 -10 OFFCURVE",
"565 96 OFFCURVE",
"588 262 CURVE SMOOTH",
"611 425 OFFCURVE",
"551 526 OFFCURVE",
"425 526 CURVE SMOOTH",
"374 526 OFFCURVE",
"314 502 OFFCURVE",
"270 438 CURVE",
"313 742 LINE",
"118 742 LINE",
"14 0 LINE",
"151 0 LINE",
"193 92 LINE",
"213 35 OFFCURVE",
"264 -10 OFFCURVE",
"328 -10 CURVE SMOOTH"
);
},
{
closed = 1;
nodes = (
"250 116 OFFCURVE",
"230 152 OFFCURVE",
"242 239 CURVE",
"248 284 LINE",
"261 373 OFFCURVE",
"292 399 OFFCURVE",
"336 399 CURVE SMOOTH",
"376 399 OFFCURVE",
"407 377 OFFCURVE",
"392 264 CURVE SMOOTH",
"375 150 OFFCURVE",
"339 116 OFFCURVE",
"293 116 CURVE"
);
}
);
width = 613;
},
{
background = {
paths = (
{
closed = 1;
nodes = (
"205 0 OFFCURVE",
"208 3 OFFCURVE",
"208 13 CURVE SMOOTH",
"210 64 LINE SMOOTH",
"210 73 OFFCURVE",
"215 74 OFFCURVE",
"220 67 CURVE SMOOTH",
"232 50 OFFCURVE",
"282 -10 OFFCURVE",
"385 -10 CURVE SMOOTH",
"529 -10 OFFCURVE",
"613 96 OFFCURVE",
"613 267 CURVE SMOOTH",
"613 416 OFFCURVE",
"549 540 OFFCURVE",
"396 540 CURVE SMOOTH",
"290 540 OFFCURVE",
"234 482 OFFCURVE",
"224 473 CURVE SMOOTH",
"215 465 OFFCURVE",
"211 465 OFFCURVE",
"211 478 CURVE SMOOTH",
"211 731 LINE SMOOTH",
"211 739 OFFCURVE",
"209 742 OFFCURVE",
"203 742 CURVE SMOOTH",
"180 742 LINE SMOOTH",
"174 742 OFFCURVE",
"171 739 OFFCURVE",
"171 732 CURVE SMOOTH",
"171 13 LINE SMOOTH",
"171 3 OFFCURVE",
"174 0 OFFCURVE",
"182 0 CURVE SMOOTH",
"193 0 LINE SMOOTH"
);
},
{
closed = 1;
nodes = (
"251 463 OFFCURVE",
"315 502 OFFCURVE",
"389 502 CURVE SMOOTH",
"507 502 OFFCURVE",
"570 409 OFFCURVE",
"570 267 CURVE SMOOTH",
"570 103 OFFCURVE",
"485 28 OFFCURVE",
"381 28 CURVE SMOOTH",
"297 28 OFFCURVE",
"211 96 OFFCURVE",
"211 177 CURVE SMOOTH",
"211 415 LINE"
);
}
);
};
layerId = "91AB5BCA-6A50-42DA-B2F7-8181BF189245";
paths = (
{
closed = 1;
nodes = (
"388 -10 OFFCURVE",
"480 94 OFFCURVE",
"502 260 CURVE SMOOTH",
"522 405 OFFCURVE",
"479 526 OFFCURVE",
"338 526 CURVE SMOOTH",
"232 526 OFFCURVE",
"168 460 OFFCURVE",
"156 449 CURVE",
"195 742 LINE",
"158 742 LINE",
"59 0 LINE",
"93 0 LINE",
"106 78 LINE",
"115 58 OFFCURVE",
"154 -10 OFFCURVE",
"255 -10 CURVE SMOOTH"
);
},
{
closed = 1;
nodes = (
"179 27 OFFCURVE",
"108 94 OFFCURVE",
"119 172 CURVE SMOOTH",
"150 404 LINE",
"193 451 OFFCURVE",
"257 489 OFFCURVE",
"325 489 CURVE SMOOTH",
"435 489 OFFCURVE",
"481 398 OFFCURVE",
"462 260 CURVE SMOOTH",
"441 100 OFFCURVE",
"353 27 OFFCURVE",
"257 27 CURVE SMOOTH"
);
}
);
width = 558;
}
);
leftMetricsKey = h;
unicode = 0062;
},
{
glyphname = c;
lastChange = "2018-04-30 19:32:15 +0000";
layers = (
{
anchors = (
{
name = bottom;
position = "{258, 0}";
},
{
name = top;
position = "{331, 516}";
}
);
background = {
anchors = (
{
name = bottom;
position = "{369, 0}";
},
{
name = top;
position = "{370, 530}";
}
);
paths = (
{
closed = 1;
nodes = (
"212 540 OFFCURVE",
"93 428 OFFCURVE",
"93 263 CURVE SMOOTH",
"93 101 OFFCURVE",
"210 -10 OFFCURVE",
"370 -10 CURVE SMOOTH",
"532 -10 OFFCURVE",
"598 105 OFFCURVE",
"608 157 CURVE SMOOTH",
"612 172 OFFCURVE",
"610 178 OFFCURVE",
"599 180 CURVE SMOOTH",
"505 198 LINE SMOOTH",
"492 200 OFFCURVE",
"488 198 OFFCURVE",
"485 193 CURVE SMOOTH",
"460 148 OFFCURVE",
"441 114 OFFCURVE",
"386 114 CURVE SMOOTH",
"329 114 OFFCURVE",
"295 154 OFFCURVE",
"295 265 CURVE SMOOTH",
"295 372 OFFCURVE",
"326 414 OFFCURVE",
"375 414 CURVE SMOOTH",
"423 414 OFFCURVE",
"432 376 OFFCURVE",
"436 351 CURVE SMOOTH",
"438 340 OFFCURVE",
"442 336 OFFCURVE",
"453 337 CURVE SMOOTH",
"590 344 LINE SMOOTH",
"607 345 OFFCURVE",
"613 353 OFFCURVE",
"608 370 CURVE SMOOTH",
"592 447 OFFCURVE",
"513 540 OFFCURVE",
"370 540 CURVE SMOOTH"
);
}
);
};
guideLines = (
{
angle = -0.5577;
position = "{-717, 176}";
},
{
position = "{373, 129}";
},
{
angle = 3.769;
position = "{340, 323}";
}
);
layerId = "258ED206-D907-4350-8EBA-CBDDA1C16BF7";
paths = (
{
closed = 1;
nodes = (
"183 526 OFFCURVE",
"48 416 OFFCURVE",
"25 256 CURVE SMOOTH",
"3 97 OFFCURVE",
"109 -10 OFFCURVE",
"257 -10 CURVE SMOOTH",
"399 -10 OFFCURVE",
"501 89 OFFCURVE",
"518 179 CURVE",
"359 200 LINE",
"349 170 OFFCURVE",
"329 114 OFFCURVE",
"280 114 CURVE SMOOTH",
"230 114 OFFCURVE",
"202 172 OFFCURVE",
"213 258 CURVE SMOOTH",
"225 341 OFFCURVE",
"267 402 OFFCURVE",
"317 402 CURVE SMOOTH",
"367 402 OFFCURVE",
"370 343 OFFCURVE",
"371 306 CURVE",
"542 326 LINE",
"553 423 OFFCURVE",
"479 526 OFFCURVE",
"333 526 CURVE SMOOTH"
);
}
);
width = 563;
},
{
anchors = (
{
name = bottom;
position = "{241, 0}";
},
{
name = top;
position = "{308, 516}";
}
);
background = {
anchors = (
{
name = bottom;
position = "{368, 0}";
},
{
name = top;
position = "{366, 530}";
}
);
paths = (
{
closed = 1;
nodes = (
"226 540 OFFCURVE",
"127 425 OFFCURVE",
"127 263 CURVE SMOOTH",
"127 100 OFFCURVE",
"224 -10 OFFCURVE",
"367 -10 CURVE SMOOTH",
"452 -10 OFFCURVE",
"524 29 OFFCURVE",
"572 107 CURVE SMOOTH",
"574 111 OFFCURVE",
"573 115 OFFCURVE",
"570 117 CURVE SMOOTH",
"547 132 LINE SMOOTH",
"543 135 OFFCURVE",
"541 134 OFFCURVE",
"537 128 CURVE SMOOTH",
"493 60 OFFCURVE",
"439 28 OFFCURVE",
"371 28 CURVE SMOOTH",
"249 28 OFFCURVE",
"169 123 OFFCURVE",
"169 265 CURVE SMOOTH",
"169 407 OFFCURVE",
"249 502 OFFCURVE",
"372 502 CURVE SMOOTH",
"428 502 OFFCURVE",
"473 478 OFFCURVE",
"528 411 CURVE SMOOTH",
"532 406 OFFCURVE",
"536 405 OFFCURVE",
"539 407 CURVE SMOOTH",
"563 423 LINE SMOOTH",
"566 425 OFFCURVE",
"567 427 OFFCURVE",
"563 433 CURVE SMOOTH",
"517 499 OFFCURVE",
"456 540 OFFCURVE",
"367 540 CURVE SMOOTH"
);
}
);
};
layerId = "91AB5BCA-6A50-42DA-B2F7-8181BF189245";
paths = (
{
closed = 1;
nodes = (
"178 526 OFFCURVE",
"83 415 OFFCURVE",
"62 256 CURVE SMOOTH",
"40 98 OFFCURVE",
"105 -10 OFFCURVE",
"238 -10 CURVE SMOOTH",
"319 -10 OFFCURVE",
"383 30 OFFCURVE",
"439 110 CURVE",
"410 132 LINE",
"358 60 OFFCURVE",
"314 27 OFFCURVE",
"248 27 CURVE SMOOTH",
"137 27 OFFCURVE",
"82 119 OFFCURVE",
"101 258 CURVE SMOOTH",
"119 396 OFFCURVE",
"199 489 OFFCURVE",
"310 489 CURVE SMOOTH",
"367 489 OFFCURVE",
"394 464 OFFCURVE",
"437 394 CURVE",
"472 415 LINE",
"437 483 OFFCURVE",
"393 526 OFFCURVE",
"311 526 CURVE SMOOTH"
);
}
);
width = 527;
}
);
leftKerningGroup = o;
leftMetricsKey = e;
unicode = 0063;
},
{
glyphname = d;
lastChange = "2018-04-30 19:32:15 +0000";
layers = (
{
anchors = (
{
name = bottom;
position = "{261, 0}";
},
{
name = center;
position = "{297, 258}";
},
{
name = topright;
position = "{612, 516}";
}
);
background = {
anchors = (
{
name = bottom;
position = "{372, 0}";
},
{
name = center;
position = "{372, 265}";
},
{
name = topright;
position = "{658, 530}";
}
);
paths = (
{
closed = 1;
nodes = (
"613 0 LINE SMOOTH",
"634 0 OFFCURVE",
"640 8 OFFCURVE",
"640 25 CURVE SMOOTH",
"640 719 LINE SMOOTH",
"640 734 OFFCURVE",
"632 742 OFFCURVE",
"621 742 CURVE SMOOTH",
"459 742 LINE SMOOTH",
"447 742 OFFCURVE",
"441 734 OFFCURVE",
"441 721 CURVE SMOOTH",
"441 496 LINE SMOOTH",
"441 480 OFFCURVE",
"432 480 OFFCURVE",
"422 488 CURVE SMOOTH",
"381 528 OFFCURVE",
"343 540 OFFCURVE",
"298 540 CURVE SMOOTH",
"188 540 OFFCURVE",
"88 431 OFFCURVE",
"88 263 CURVE SMOOTH",
"88 82 OFFCURVE",
"170 -10 OFFCURVE",
"288 -10 CURVE SMOOTH",
"350 -10 OFFCURVE",
"389 10 OFFCURVE",
"428 46 CURVE SMOOTH",
"435 52 OFFCURVE",
"443 51 OFFCURVE",
"443 42 CURVE SMOOTH",
"443 23 LINE SMOOTH",
"443 6 OFFCURVE",
"455 0 OFFCURVE",
"468 0 CURVE SMOOTH"
);
},
{
closed = 1;
nodes = (
"440 176 LINE SMOOTH",
"440 137 OFFCURVE",
"409 110 OFFCURVE",
"370 110 CURVE SMOOTH",
"319 110 OFFCURVE",
"290 149 OFFCURVE",
"290 264 CURVE SMOOTH",
"290 380 OFFCURVE",
"323 416 OFFCURVE",
"370 416 CURVE SMOOTH",
"401 416 OFFCURVE",
"419 403 OFFCURVE",
"440 378 CURVE"
);
}
);
};
layerId = "258ED206-D907-4350-8EBA-CBDDA1C16BF7";
paths = (
{
closed = 1;
nodes = (
"291 -10 OFFCURVE",
"346 40 OFFCURVE",
"376 88 CURVE",
"389 0 LINE",
"526 0 LINE",
"630 742 LINE",
"436 742 LINE",
"393 438 LINE",
"371 511 OFFCURVE",
"314 526 OFFCURVE",
"263 526 CURVE SMOOTH",
"136 526 OFFCURVE",
"48 425 OFFCURVE",
"25 262 CURVE SMOOTH",
"2 96 OFFCURVE",
"65 -10 OFFCURVE",
"208 -10 CURVE SMOOTH"
);
},
{
closed = 1;
nodes = (
"232 116 OFFCURVE",
"206 150 OFFCURVE",
"222 264 CURVE SMOOTH",
"238 377 OFFCURVE",
"275 399 OFFCURVE",
"315 399 CURVE SMOOTH",
"359 399 OFFCURVE",
"384 373 OFFCURVE",
"371 284 CURVE",
"364 239 LINE",
"353 152 OFFCURVE",
"321 116 OFFCURVE",
"278 116 CURVE"
);
}
);
width = 608;
},
{
anchors = (
{
name = bottom;
position = "{240, 0}";
},
{
name = center;
position = "{285, 258}";
},
{
name = topright;
position = "{638, 723}";
}
);
background = {
anchors = (
{
name = bottom;
position = "{367, 0}";
},
{
name = center;
position = "{379, 265}";
},
{
name = topright;
position = "{692, 742}";
}
);
paths = (
{
closed = 1;
nodes = (
"554 0 LINE SMOOTH",
"563 0 OFFCURVE",
"566 3 OFFCURVE",
"566 12 CURVE SMOOTH",
"566 733 LINE SMOOTH",
"566 739 OFFCURVE",
"563 742 OFFCURVE",
"558 742 CURVE SMOOTH",
"535 742 LINE SMOOTH",
"528 742 OFFCURVE",
"526 739 OFFCURVE",
"526 732 CURVE SMOOTH",
"526 493 LINE SMOOTH",
"526 480 OFFCURVE",
"524 476 OFFCURVE",
"512 486 CURVE SMOOTH",
"481 510 OFFCURVE",
"438 540 OFFCURVE",
"365 540 CURVE SMOOTH",
"218 540 OFFCURVE",
"122 425 OFFCURVE",
"122 255 CURVE SMOOTH",
"122 78 OFFCURVE",
"225 -10 OFFCURVE",
"353 -10 CURVE SMOOTH",
"449 -10 OFFCURVE",
"500 49 OFFCURVE",
"516 66 CURVE SMOOTH",
"524 74 OFFCURVE",
"528 73 OFFCURVE",
"528 62 CURVE SMOOTH",
"528 11 LINE SMOOTH",
"528 4 OFFCURVE",
"531 0 OFFCURVE",
"538 0 CURVE SMOOTH"
);
},
{
closed = 1;
nodes = (
"526 170 LINE SMOOTH",
"526 110 OFFCURVE",
"454 28 OFFCURVE",
"358 28 CURVE SMOOTH",
"256 28 OFFCURVE",
"164 100 OFFCURVE",
"164 259 CURVE SMOOTH",
"164 411 OFFCURVE",
"249 502 OFFCURVE",
"366 502 CURVE SMOOTH",
"427 502 OFFCURVE",
"477 474 OFFCURVE",
"526 426 CURVE"
);
}
);
};
layerId = "91AB5BCA-6A50-42DA-B2F7-8181BF189245";
paths = (
{
closed = 1;
nodes = (
"321 -10 OFFCURVE",
"381 57 OFFCURVE",
"399 77 CURVE",
"390 0 LINE",
"425 0 LINE",
"524 742 LINE",
"486 742 LINE",
"448 463 LINE",
"406 504 OFFCURVE",
"368 526 OFFCURVE",
"309 526 CURVE SMOOTH",
"173 526 OFFCURVE",
"82 414 OFFCURVE",
"61 248 CURVE SMOOTH",
"37 76 OFFCURVE",
"106 -10 OFFCURVE",
"225 -10 CURVE SMOOTH"
);
},
{
closed = 1;
nodes = (
"142 27 OFFCURVE",
"79 97 OFFCURVE",
"100 252 CURVE SMOOTH",
"119 400 OFFCURVE",
"196 489 OFFCURVE",
"304 489 CURVE SMOOTH",
"360 489 OFFCURVE",
"403 462 OFFCURVE",
"443 415 CURVE",
"410 166 LINE",
"401 107 OFFCURVE",
"324 27 OFFCURVE",
"236 27 CURVE SMOOTH"
);
}
);
width = 543;
}
);
leftKerningGroup = o;
unicode = 0064;
},
{
glyphname = eth;
lastChange = "2018-04-30 19:32:15 +0000";
layers = (
{
background = {
paths = (
{
closed = 1;
nodes = (
"608 434 OFFCURVE",
"550 579 OFFCURVE",
"438 666 CURVE",
"495 692 LINE SMOOTH",
"501 696 OFFCURVE",
"497 699 OFFCURVE",
"495 704 CURVE SMOOTH",
"478 742 LINE SMOOTH",
"476 747 OFFCURVE",
"469 757 OFFCURVE",
"461 752 CURVE SMOOTH",
"379 704 LINE",
"345 723 OFFCURVE",
"306 739 OFFCURVE",
"261 746 CURVE SMOOTH",
"253 751 OFFCURVE",
"252 756 OFFCURVE",
"244 750 CURVE SMOOTH",
"149 681 LINE SMOOTH",
"143 675 OFFCURVE",
"151 667 OFFCURVE",
"160 667 CURVE SMOOTH",
"186 655 OFFCURVE",
"210 644 OFFCURVE",
"233 631 CURVE",
"150 591 LINE SMOOTH",
"143 588 OFFCURVE",
"145 583 OFFCURVE",
"151 572 CURVE SMOOTH",
"164 548 LINE SMOOTH",
"168 537 OFFCURVE",
"174 527 OFFCURVE",
"186 533 CURVE SMOOTH",
"291 593 LINE",
"315 572 OFFCURVE",
"331 556 OFFCURVE",
"347 535 CURVE SMOOTH",
"346 528 OFFCURVE",
"341 520 OFFCURVE",
"333 520 CURVE SMOOTH",
"179 520 OFFCURVE",
"47 415 OFFCURVE",
"26 263 CURVE SMOOTH",
"4 109 OFFCURVE",
"105 -10 OFFCURVE",
"273 -10 CURVE SMOOTH",
"436 -10 OFFCURVE",
"560 96 OFFCURVE",
"585 271 CURVE SMOOTH"
);
},
{
closed = 1;
nodes = (
"227 118 OFFCURVE",
"213 156 OFFCURVE",
"225 245 CURVE SMOOTH",
"239 345 OFFCURVE",
"274 396 OFFCURVE",
"331 396 CURVE SMOOTH",
"381 396 OFFCURVE",
"395 357 OFFCURVE",
"382 267 CURVE SMOOTH",
"369 169 OFFCURVE",
"334 118 OFFCURVE",
"276 118 CURVE SMOOTH"
);
}
);
};
layerId = "258ED206-D907-4350-8EBA-CBDDA1C16BF7";
paths = (
{
closed = 1;
nodes = (
"592 423 OFFCURVE",
"536 564 OFFCURVE",
"427 649 CURVE",
"486 676 LINE",
"459 739 LINE",
"369 686 LINE",
"331 705 OFFCURVE",
"287 722 OFFCURVE",
"236 730 CURVE",
"138 659 LINE",
"170 644 OFFCURVE",
"199 630 OFFCURVE",
"227 615 CURVE",
"139 572 LINE",
"171 513 LINE",
"284 578 LINE",
"307 557 OFFCURVE",
"323 542 OFFCURVE",
"338 521 CURVE SMOOTH",
"337 514 OFFCURVE",
"332 507 OFFCURVE",
"325 507 CURVE SMOOTH",
"174 507 OFFCURVE",
"46 404 OFFCURVE",
"25 256 CURVE SMOOTH",
"4 106 OFFCURVE",
"102 -10 OFFCURVE",
"266 -10 CURVE SMOOTH",
"425 -10 OFFCURVE",
"546 94 OFFCURVE",
"570 264 CURVE SMOOTH"
);
},
{
closed = 1;
nodes = (
"221 115 OFFCURVE",
"208 152 OFFCURVE",
"219 239 CURVE SMOOTH",
"233 336 OFFCURVE",
"267 386 OFFCURVE",
"323 386 CURVE SMOOTH",
"371 386 OFFCURVE",
"385 348 OFFCURVE",
"372 260 CURVE SMOOTH",
"360 165 OFFCURVE",
"325 115 OFFCURVE",
"269 115 CURVE SMOOTH"
);
}
);
width = 594;
},
{
background = {
paths = (
{
closed = 1;
nodes = (
"567 421 OFFCURVE",
"531 562 OFFCURVE",
"390 668 CURVE",
"489 718 LINE SMOOTH",
"492 720 OFFCURVE",
"490 723 OFFCURVE",
"489 726 CURVE SMOOTH",
"480 748 LINE SMOOTH",
"480 750 OFFCURVE",
"475 753 OFFCURVE",
"471 751 CURVE SMOOTH",
"359 691 LINE",
"327 712 OFFCURVE",
"292 731 OFFCURVE",
"250 748 CURVE SMOOTH",
"243 753 OFFCURVE",
"239 752 OFFCURVE",
"233 748 CURVE SMOOTH",
"213 736 LINE SMOOTH",
"208 732 OFFCURVE",
"210 726 OFFCURVE",
"216 725 CURVE SMOOTH",
"254 707 OFFCURVE",
"289 690 OFFCURVE",
"320 671 CURVE",
"151 584 LINE SMOOTH",
"148 582 OFFCURVE",
"147 579 OFFCURVE",
"150 573 CURVE SMOOTH",
"157 559 LINE SMOOTH",
"160 553 OFFCURVE",
"163 550 OFFCURVE",
"169 553 CURVE SMOOTH",
"351 649 LINE",
"429 591 OFFCURVE",
"471 524 OFFCURVE",
"492 451 CURVE",
"454 493 OFFCURVE",
"399 520 OFFCURVE",
"327 520 CURVE SMOOTH",
"192 520 OFFCURVE",
"79 409 OFFCURVE",
"57 254 CURVE SMOOTH",
"36 99 OFFCURVE",
"118 -10 OFFCURVE",
"263 -10 CURVE SMOOTH",
"416 -10 OFFCURVE",
"522 100 OFFCURVE",
"543 253 CURVE SMOOTH"
);
},
{
closed = 1;
nodes = (
"154 28 OFFCURVE",
"82 127 OFFCURVE",
"99 252 CURVE SMOOTH",
"117 379 OFFCURVE",
"219 482 OFFCURVE",
"335 482 CURVE SMOOTH",
"448 482 OFFCURVE",
"519 382 OFFCURVE",
"502 256 CURVE SMOOTH",
"484 128 OFFCURVE",
"385 28 OFFCURVE",
"269 28 CURVE SMOOTH"
);
}
);
};
layerId = "91AB5BCA-6A50-42DA-B2F7-8181BF189245";
paths = (
{
closed = 1;
nodes = (
"526 410 OFFCURVE",
"493 548 OFFCURVE",
"362 651 CURVE",
"457 701 LINE",
"442 735 LINE",
"333 673 LINE",
"301 696 OFFCURVE",
"266 715 OFFCURVE",
"223 733 CURVE",
"190 712 LINE",
"229 693 OFFCURVE",
"265 674 OFFCURVE",
"297 654 CURVE",
"135 566 LINE",
"151 535 LINE",
"325 632 LINE",
"398 576 OFFCURVE",
"437 511 OFFCURVE",
"457 439 CURVE",
"421 480 OFFCURVE",
"370 507 OFFCURVE",
"304 507 CURVE SMOOTH",
"178 507 OFFCURVE",
"74 398 OFFCURVE",
"54 247 CURVE SMOOTH",
"34 96 OFFCURVE",
"110 -10 OFFCURVE",
"244 -10 CURVE SMOOTH",
"386 -10 OFFCURVE",
"484 97 OFFCURVE",
"503 246 CURVE SMOOTH"
);
},
{
closed = 1;
nodes = (
"143 27 OFFCURVE",
"77 124 OFFCURVE",
"93 246 CURVE SMOOTH",
"109 369 OFFCURVE",
"204 470 OFFCURVE",
"311 470 CURVE SMOOTH",
"416 470 OFFCURVE",
"481 372 OFFCURVE",
"465 249 CURVE SMOOTH",
"449 125 OFFCURVE",
"357 27 OFFCURVE",
"249 27 CURVE SMOOTH"
);
}
);
width = 561;
}
);
leftMetricsKey = o;
rightMetricsKey = o;
unicode = 00F0;
},
{
glyphname = dcroat;
lastChange = "2018-04-30 19:32:15 +0000";
layers = (
{
background = {
components = (
{
name = d;
}
);
paths = (
{
closed = 1;
nodes = (
"707 674 OFFCURVE",
"699 687 OFFCURVE",
"689 687 CURVE SMOOTH",
"350 687 LINE SMOOTH",
"340 687 OFFCURVE",
"338 686 OFFCURVE",
"336 673 CURVE SMOOTH",
"327 608 LINE SMOOTH",
"325 593 OFFCURVE",
"332 580 OFFCURVE",
"349 580 CURVE SMOOTH",
"669 580 LINE SMOOTH",
"689 580 OFFCURVE",
"694 581 OFFCURVE",
"697 598 CURVE SMOOTH",
"706 663 LINE SMOOTH"
);
}
);
};
components = (
{
name = d;
}
);
layerId = "258ED206-D907-4350-8EBA-CBDDA1C16BF7";
paths = (
{
closed = 1;
nodes = (
"329 669 LINE",
"315 565 LINE",
"677 565 LINE",
"691 669 LINE"
);
}
);
width = 675;
},
{
background = {
components = (
{
name = d;
transform = "{1, 0, 0, 1, 8, 0}";
}
);
paths = (
{
closed = 1;
nodes = (
"677 659 OFFCURVE",
"675 662 OFFCURVE",
"672 662 CURVE SMOOTH",
"393 662 LINE SMOOTH",
"390 662 OFFCURVE",
"389 661 OFFCURVE",
"388 656 CURVE SMOOTH",
"385 636 LINE SMOOTH",
"384 630 OFFCURVE",
"386 627 OFFCURVE",
"392 627 CURVE SMOOTH",
"664 627 LINE SMOOTH",
"671 627 OFFCURVE",
"673 628 OFFCURVE",
"674 634 CURVE SMOOTH",
"677 655 LINE SMOOTH"
);
}
);
};
components = (
{
name = d;
}
);
layerId = "91AB5BCA-6A50-42DA-B2F7-8181BF189245";
paths = (
{
closed = 1;
nodes = (
"361 645 LINE",
"356 611 LINE",
"624 611 LINE",
"629 645 LINE"
);
}
);
width = 600;
}
);
leftKerningGroup = o;
leftMetricsKey = d;
unicode = 0111;
},
{
glyphname = e;
lastChange = "2018-04-30 19:32:15 +0000";
layers = (
{
anchors = (
{
name = bottom;
position = "{265, 0}";
},
{
name = ogonek;
position = "{394, 25}";
},
{
name = top;
position = "{334, 516}";
}
);
background = {
anchors = (
{
name = bottom;
position = "{376, 0}";
},
{
name = ogonek;
position = "{505, 26}";
},
{
name = top;
position = "{373, 530}";
}
);
paths = (
{
closed = 1;
nodes = (
"299 224 OFFCURVE",
"304 229 OFFCURVE",
"314 229 CURVE SMOOTH",
"625 229 LINE SMOOTH",
"642 230 OFFCURVE",
"643 237 OFFCURVE",
"643 254 CURVE SMOOTH",
"643 435 OFFCURVE",
"528 540 OFFCURVE",
"371 540 CURVE SMOOTH",
"223 540 OFFCURVE",
"93 426 OFFCURVE",
"93 256 CURVE SMOOTH",
"93 99 OFFCURVE",
"215 -10 OFFCURVE",
"375 -10 CURVE SMOOTH",
"487 -10 OFFCURVE",
"555 17 OFFCURVE",
"627 118 CURVE SMOOTH",
"636 129 OFFCURVE",
"633 138 OFFCURVE",
"623 142 CURVE SMOOTH",
"532 179 LINE SMOOTH",
"519 184 OFFCURVE",
"516 183 OFFCURVE",
"511 178 CURVE SMOOTH",
"467 135 OFFCURVE",
"436 122 OFFCURVE",
"402 122 CURVE SMOOTH",
"344 122 OFFCURVE",
"299 151 OFFCURVE",
"299 212 CURVE SMOOTH"
);
},
{
closed = 1;
nodes = (
"301 395 OFFCURVE",
"339 423 OFFCURVE",
"380 423 CURVE SMOOTH",
"430 423 OFFCURVE",
"449 372 OFFCURVE",
"449 346 CURVE SMOOTH",
"449 334 OFFCURVE",
"445 332 OFFCURVE",
"432 332 CURVE SMOOTH",
"302 333 LINE"
);
}
);
};
layerId = "258ED206-D907-4350-8EBA-CBDDA1C16BF7";
paths = (
{
closed = 1;
nodes = (
"553 203 LINE",
"560 248 LINE",
"582 401 OFFCURVE",
"505 526 OFFCURVE",
"335 526 CURVE SMOOTH",
"170 526 OFFCURVE",
"45 399 OFFCURVE",
"24 251 CURVE SMOOTH",
"2 95 OFFCURVE",
"106 -10 OFFCURVE",
"268 -10 CURVE SMOOTH",
"382 -10 OFFCURVE",
"478 41 OFFCURVE",
"532 134 CURVE",
"388 169 LINE",
"366 134 OFFCURVE",
"324 111 OFFCURVE",
"283 111 CURVE SMOOTH",
"236 111 OFFCURVE",
"201 141 OFFCURVE",
"211 203 CURVE"
);
},
{
closed = 1;
nodes = (
"235 377 OFFCURVE",
"265 414 OFFCURVE",
"320 414 CURVE SMOOTH",
"374 414 OFFCURVE",
"395 377 OFFCURVE",
"388 326 CURVE",
"228 326 LINE"
);
}
);
width = 591;
},
{
anchors = (
{
name = bottom;
position = "{229, 0}";
},
{
name = ogonek;
position = "{328, 18}";
},
{
name = top;
position = "{306, 516}";
}
);
background = {
anchors = (
{
name = bottom;
position = "{367, 0}";
},
{
name = ogonek;
position = "{460, 18}";
},
{
name = top;
position = "{364, 530}";
}
);
paths = (
{
closed = 1;
nodes = (
"165 247 OFFCURVE",
"167 254 OFFCURVE",
"171 254 CURVE SMOOTH",
"582 254 LINE SMOOTH",
"597 254 OFFCURVE",
"595 266 OFFCURVE",
"595 274 CURVE SMOOTH",
"595 442 OFFCURVE",
"507 540 OFFCURVE",
"366 540 CURVE SMOOTH",
"225 540 OFFCURVE",
"123 436 OFFCURVE",
"123 261 CURVE SMOOTH",
"123 100 OFFCURVE",
"222 -10 OFFCURVE",
"366 -10 CURVE SMOOTH",
"460 -10 OFFCURVE",
"530 27 OFFCURVE",
"576 100 CURVE SMOOTH",
"579 104 OFFCURVE",
"578 108 OFFCURVE",
"575 110 CURVE SMOOTH",
"552 125 LINE SMOOTH",
"548 128 OFFCURVE",
"545 127 OFFCURVE",
"541 121 CURVE SMOOTH",
"505 61 OFFCURVE",
"446 28 OFFCURVE",
"366 28 CURVE SMOOTH",
"254 28 OFFCURVE",
"165 127 OFFCURVE",
"165 240 CURVE SMOOTH"
);
},
{
closed = 1;
nodes = (
"165 390 OFFCURVE",
"233 502 OFFCURVE",
"365 502 CURVE SMOOTH",
"481 502 OFFCURVE",
"553 414 OFFCURVE",
"553 304 CURVE SMOOTH",
"553 293 OFFCURVE",
"550 290 OFFCURVE",
"536 290 CURVE SMOOTH",
"166 290 LINE"
);
}
);
};
guideLines = (
{
angle = 88.4926;
position = "{21, 241}";
}
);
layerId = "91AB5BCA-6A50-42DA-B2F7-8181BF189245";
paths = (
{
closed = 1;
nodes = (
"469 247 LINE",
"474 277 LINE",
"496 436 OFFCURVE",
"433 526 OFFCURVE",
"308 526 CURVE SMOOTH",
"175 526 OFFCURVE",
"84 425 OFFCURVE",
"61 254 CURVE SMOOTH",
"38 85 OFFCURVE",
"117 -10 OFFCURVE",
"246 -10 CURVE SMOOTH",
"324 -10 OFFCURVE",
"395 27 OFFCURVE",
"440 106 CURVE",
"406 120 LINE",
"370 63 OFFCURVE",
"327 29 OFFCURVE",
"251 29 CURVE SMOOTH",
"127 29 OFFCURVE",
"85 131 OFFCURVE",
"100 247 CURVE"
);
},
{
closed = 1;
nodes = (
"118 384 OFFCURVE",
"182 487 OFFCURVE",
"301 487 CURVE SMOOTH",
"411 487 OFFCURVE",
"452 401 OFFCURVE",
"436 286 CURVE",
"106 286 LINE"
);
}
);
width = 538;
}
);
leftKerningGroup = o;
unicode = 0065;
},
{
glyphname = f;
lastChange = "2018-04-30 19:32:15 +0000";
layers = (
{
background = {
paths = (
{
closed = 1;
nodes = (
"374 530 LINE SMOOTH",
"366 530 OFFCURVE",
"361 533 OFFCURVE",
"361 543 CURVE SMOOTH",
"361 561 LINE SMOOTH",
"361 589 OFFCURVE",
"383 612 OFFCURVE",
"406 612 CURVE SMOOTH",
"449 612 LINE SMOOTH",
"461 612 OFFCURVE",
"467 621 OFFCURVE",
"467 632 CURVE",
"466 716 LINE",
"466 732 OFFCURVE",
"456 742 OFFCURVE",
"437 742 CURVE SMOOTH",
"324 742 LINE SMOOTH",
"227 742 OFFCURVE",
"166 688 OFFCURVE",
"166 601 CURVE SMOOTH",
"166 548 LINE SMOOTH",
"166 535 OFFCURVE",
"163 530 OFFCURVE",
"152 530 CURVE SMOOTH",
"104 530 LINE SMOOTH",
"87 530 OFFCURVE",
"80 520 OFFCURVE",
"80 508 CURVE SMOOTH",
"80 414 LINE SMOOTH",
"80 400 OFFCURVE",
"88 395 OFFCURVE",
"102 395 CURVE SMOOTH",
"158 395 LINE SMOOTH",
"164 395 OFFCURVE",
"166 392 OFFCURVE",
"166 385 CURVE SMOOTH",
"166 20 LINE SMOOTH",
"166 7 OFFCURVE",
"173 0 OFFCURVE",
"184 0 CURVE SMOOTH",
"347 0 LINE SMOOTH",
"359 0 OFFCURVE",
"366 7 OFFCURVE",
"366 22 CURVE SMOOTH",
"366 383 LINE SMOOTH",
"366 391 OFFCURVE",
"371 395 OFFCURVE",
"378 395 CURVE SMOOTH",
"440 395 LINE SMOOTH",
"453 395 OFFCURVE",
"462 400 OFFCURVE",
"462 414 CURVE SMOOTH",
"462 508 LINE SMOOTH",
"462 520 OFFCURVE",
"454 530 OFFCURVE",
"437 530 CURVE SMOOTH"
);
}
);
};
layerId = "258ED206-D907-4350-8EBA-CBDDA1C16BF7";
paths = (
{
closed = 1;
nodes = (
"322 516 LINE",
"327 547 LINE SMOOTH",
"332 585 OFFCURVE",
"346 596 OFFCURVE",
"378 596 CURVE SMOOTH",
"437 596 LINE",
"454 723 LINE",
"316 723 LINE SMOOTH",
"221 723 OFFCURVE",
"154 670 OFFCURVE",
"142 586 CURVE SMOOTH",
"132 516 LINE",
"49 516 LINE",
"30 385 LINE",
"114 385 LINE",
"60 0 LINE",
"255 0 LINE",
"309 385 LINE",
"402 385 LINE",
"421 516 LINE"
);
}
);
width = 392;
},
{
background = {
paths = (
{
closed = 1;
nodes = (
"293 530 LINE SMOOTH",
"288 530 OFFCURVE",
"286 532 OFFCURVE",
"286 537 CURVE SMOOTH",
"286 627 LINE SMOOTH",
"286 678 OFFCURVE",
"299 707 OFFCURVE",
"349 707 CURVE SMOOTH",
"429 707 LINE SMOOTH",
"434 707 OFFCURVE",
"437 709 OFFCURVE",
"437 714 CURVE SMOOTH",
"437 735 LINE SMOOTH",
"437 740 OFFCURVE",
"435 742 OFFCURVE",
"431 742 CURVE SMOOTH",
"359 742 LINE SMOOTH",
"279 742 OFFCURVE",
"246 700 OFFCURVE",
"246 618 CURVE SMOOTH",
"246 537 LINE SMOOTH",
"246 532 OFFCURVE",
"244 530 OFFCURVE",
"239 530 CURVE SMOOTH",
"126 530 LINE SMOOTH",
"122 530 OFFCURVE",
"120 528 OFFCURVE",
"120 524 CURVE SMOOTH",
"120 501 LINE SMOOTH",
"120 497 OFFCURVE",
"122 495 OFFCURVE",
"126 495 CURVE SMOOTH",
"240 495 LINE SMOOTH",
"244 495 OFFCURVE",
"246 492 OFFCURVE",
"246 488 CURVE SMOOTH",
"246 10 LINE SMOOTH",
"246 3 OFFCURVE",
"248 0 OFFCURVE",
"254 0 CURVE SMOOTH",
"277 0 LINE SMOOTH",
"283 0 OFFCURVE",
"286 3 OFFCURVE",
"286 11 CURVE SMOOTH",
"286 488 LINE SMOOTH",
"286 493 OFFCURVE",
"288 495 OFFCURVE",
"293 495 CURVE SMOOTH",
"426 495 LINE SMOOTH",
"430 495 OFFCURVE",
"432 497 OFFCURVE",
"432 501 CURVE SMOOTH",
"432 524 LINE SMOOTH",
"432 528 OFFCURVE",
"430 530 OFFCURVE",
"427 530 CURVE SMOOTH"
);
}
);
};
layerId = "91AB5BCA-6A50-42DA-B2F7-8181BF189245";
paths = (
{
closed = 1;
nodes = (
"234 516 LINE",
"247 611 LINE SMOOTH",
"253 661 OFFCURVE",
"269 689 OFFCURVE",
"316 689 CURVE SMOOTH",
"396 689 LINE",
"401 723 LINE",
"329 723 LINE SMOOTH",
"255 723 OFFCURVE",
"219 682 OFFCURVE",
"209 602 CURVE SMOOTH",
"197 516 LINE",
"80 516 LINE",
"75 482 LINE",
"192 482 LINE",
"128 0 LINE",
"166 0 LINE",
"229 482 LINE",
"364 482 LINE",
"369 516 LINE"
);
}
);
width = 380;
}
);
leftKerningGroup = f;
rightKerningGroup = f;
unicode = 0066;
},
{
glyphname = g;
lastChange = "2018-04-30 19:32:15 +0000";
layers = (
{
anchors = (
{
name = top;
position = "{342, 516}";
}
);
background = {
anchors = (
{
name = top;
position = "{381, 530}";
}
);
paths = (
{
closed = 1;
nodes = (
"661 562 OFFCURVE",
"605 534 OFFCURVE",
"578 496 CURVE SMOOTH",
"571 486 OFFCURVE",
"557 485 OFFCURVE",
"547 493 CURVE SMOOTH",
"514 519 OFFCURVE",
"456 538 OFFCURVE",
"380 538 CURVE SMOOTH",
"201 538 OFFCURVE",
"110 469 OFFCURVE",
"110 373 CURVE SMOOTH",
"110 312 OFFCURVE",
"148 265 OFFCURVE",
"214 237 CURVE SMOOTH",
"224 231 OFFCURVE",
"217 228 OFFCURVE",
"211 225 CURVE SMOOTH",
"157 202 OFFCURVE",
"102 169 OFFCURVE",
"102 122 CURVE SMOOTH",
"102 81 OFFCURVE",
"133 56 OFFCURVE",
"168 39 CURVE SMOOTH",
"176 35 OFFCURVE",
"178 31 OFFCURVE",
"168 28 CURVE SMOOTH",
"115 13 OFFCURVE",
"71 -8 OFFCURVE",
"71 -53 CURVE SMOOTH",
"71 -137 OFFCURVE",
"173 -175 OFFCURVE",
"382 -175 CURVE SMOOTH",
"583 -175 OFFCURVE",
"685 -99 OFFCURVE",
"685 3 CURVE SMOOTH",
"685 85 OFFCURVE",
"619 143 OFFCURVE",
"471 152 CURVE SMOOTH",
"319 161 LINE SMOOTH",
"290 163 OFFCURVE",
"275 167 OFFCURVE",
"275 182 CURVE SMOOTH",
"275 198 OFFCURVE",
"302 209 OFFCURVE",
"368 209 CURVE SMOOTH",
"536 209 OFFCURVE",
"625 284 OFFCURVE",
"625 374 CURVE SMOOTH",
"625 384 OFFCURVE",
"623 395 OFFCURVE",
"620 405 CURVE SMOOTH",
"616 419 OFFCURVE",
"621 428 OFFCURVE",
"640 428 CURVE SMOOTH",
"652 428 OFFCURVE",
"671 425 OFFCURVE",
"684 421 CURVE SMOOTH",
"699 416 OFFCURVE",
"710 424 OFFCURVE",
"710 447 CURVE SMOOTH",
"710 537 LINE SMOOTH",
"710 555 OFFCURVE",
"701 562 OFFCURVE",
"690 562 CURVE SMOOTH"
);
},
{
closed = 1;
nodes = (
"316 300 OFFCURVE",
"288 334 OFFCURVE",
"288 370 CURVE SMOOTH",
"288 411 OFFCURVE",
"316 445 OFFCURVE",
"366 445 CURVE SMOOTH",
"422 445 OFFCURVE",
"444 411 OFFCURVE",
"444 370 CURVE SMOOTH",
"444 335 OFFCURVE",
"422 300 OFFCURVE",
"366 300 CURVE SMOOTH"
);
},
{
closed = 1;
nodes = (
"489 0 OFFCURVE",
"512 -16 OFFCURVE",
"512 -35 CURVE SMOOTH",
"512 -64 OFFCURVE",
"470 -86 OFFCURVE",
"392 -86 CURVE SMOOTH",
"267 -86 OFFCURVE",
"232 -64 OFFCURVE",
"232 -27 CURVE SMOOTH",
"232 -6 OFFCURVE",
"258 10 OFFCURVE",
"301 8 CURVE SMOOTH",
"446 2 LINE SMOOTH"
);
}
);
};
layerId = "258ED206-D907-4350-8EBA-CBDDA1C16BF7";
paths = (
{
closed = 1;
nodes = (
"442 -171 OFFCURVE",
"552 -96 OFFCURVE",
"566 3 CURVE SMOOTH",
"577 83 OFFCURVE",
"523 148 OFFCURVE",
"381 158 CURVE SMOOTH",
"338 161 OFFCURVE",
"297 163 OFFCURVE",
"279 164 CURVE SMOOTH",
"230 167 OFFCURVE",
"198 167 OFFCURVE",
"199 181 CURVE",
"200 186 OFFCURVE",
"204 188 OFFCURVE",
"214 190 CURVE",
"232 188 OFFCURVE",
"267 187 OFFCURVE",
"283 187 CURVE SMOOTH",
"447 187 OFFCURVE",
"546 277 OFFCURVE",
"558 364 CURVE SMOOTH",
"559 371 OFFCURVE",
"560 380 OFFCURVE",
"559 387 CURVE SMOOTH",
"556 400 OFFCURVE",
"561 408 OFFCURVE",
"579 410 CURVE SMOOTH",
"600 412 OFFCURVE",
"627 415 OFFCURVE",
"648 417 CURVE",
"668 554 LINE",
"633 541 OFFCURVE",
"580 521 OFFCURVE",
"532 503 CURVE SMOOTH",
"522 499 OFFCURVE",
"491 487 OFFCURVE",
"489 488 CURVE SMOOTH",
"454 508 OFFCURVE",
"416 524 OFFCURVE",
"342 524 CURVE SMOOTH",
"201 524 OFFCURVE",
"71 468 OFFCURVE",
"56 363 CURVE SMOOTH",
"48 309 OFFCURVE",
"76 243 OFFCURVE",
"146 209 CURVE",
"63 199 OFFCURVE",
"20 160 OFFCURVE",
"14 119 CURVE SMOOTH",
"9 82 OFFCURVE",
"36 55 OFFCURVE",
"67 38 CURVE SMOOTH",
"75 34 OFFCURVE",
"76 30 OFFCURVE",
"66 27 CURVE SMOOTH",
"12 13 OFFCURVE",
"-33 -8 OFFCURVE",
"-40 -52 CURVE SMOOTH",
"-49 -118 OFFCURVE",
"43 -171 OFFCURVE",
"246 -171 CURVE SMOOTH"
);
},
{
closed = 1;
nodes = (
"192 -69 OFFCURVE",
"148 -62 OFFCURVE",
"153 -29 CURVE SMOOTH",
"155 -12 OFFCURVE",
"171 11 OFFCURVE",
"225 8 CURVE SMOOTH",
"317 2 LINE SMOOTH",
"357 -1 OFFCURVE",
"380 -15 OFFCURVE",
"376 -37 CURVE SMOOTH",
"374 -56 OFFCURVE",
"359 -69 OFFCURVE",
"291 -69 CURVE SMOOTH"
);
},
{
closed = 1;
nodes = (
"266 288 OFFCURVE",
"245 318 OFFCURVE",
"250 357 CURVE SMOOTH",
"256 396 OFFCURVE",
"286 430 OFFCURVE",
"323 430 CURVE SMOOTH",
"360 430 OFFCURVE",
"381 396 OFFCURVE",
"375 357 CURVE SMOOTH",
"370 318 OFFCURVE",
"340 288 OFFCURVE",
"303 288 CURVE SMOOTH"
);
}
);
width = 630;
},
{
anchors = (
{
name = top;
position = "{310, 516}";
}
);
background = {
anchors = (
{
name = top;
position = "{368, 530}";
}
);
guideLines = (
{
angle = 90;
position = "{364, 374}";
showMeasurement = 1;
}
);
paths = (
{
closed = 1;
nodes = (
"582 530 OFFCURVE",
"552 507 OFFCURVE",
"532 492 CURVE SMOOTH",
"525 487 OFFCURVE",
"521 487 OFFCURVE",
"514 493 CURVE SMOOTH",
"480 522 OFFCURVE",
"437 538 OFFCURVE",
"371 538 CURVE SMOOTH",
"239 538 OFFCURVE",
"161 475 OFFCURVE",
"161 369 CURVE SMOOTH",
"161 307 OFFCURVE",
"185 266 OFFCURVE",
"240 235 CURVE SMOOTH",
"247 231 OFFCURVE",
"249 225 OFFCURVE",
"241 223 CURVE SMOOTH",
"191 207 OFFCURVE",
"174 181 OFFCURVE",
"174 159 CURVE SMOOTH",
"174 137 OFFCURVE",
"185 121 OFFCURVE",
"212 109 CURVE SMOOTH",
"219 106 OFFCURVE",
"219 102 OFFCURVE",
"212 98 CURVE SMOOTH",
"149 63 OFFCURVE",
"120 21 OFFCURVE",
"120 -27 CURVE SMOOTH",
"120 -120 OFFCURVE",
"206 -175 OFFCURVE",
"360 -175 CURVE SMOOTH",
"511 -175 OFFCURVE",
"599 -119 OFFCURVE",
"599 -19 CURVE SMOOTH",
"599 60 OFFCURVE",
"552 110 OFFCURVE",
"445 116 CURVE SMOOTH",
"325 123 LINE SMOOTH",
"248 127 OFFCURVE",
"216 136 OFFCURVE",
"216 160 CURVE SMOOTH",
"216 184 OFFCURVE",
"249 209 OFFCURVE",
"364 209 CURVE SMOOTH",
"505 209 OFFCURVE",
"566 280 OFFCURVE",
"566 369 CURVE SMOOTH",
"566 411 OFFCURVE",
"552 434 OFFCURVE",
"545 451 CURVE SMOOTH",
"542 458 OFFCURVE",
"547 464 OFFCURVE",
"565 474 CURVE SMOOTH",
"581 483 OFFCURVE",
"594 487 OFFCURVE",
"620 488 CURVE SMOOTH",
"634 489 OFFCURVE",
"637 495 OFFCURVE",
"637 504 CURVE SMOOTH",
"637 517 LINE SMOOTH",
"637 526 OFFCURVE",
"633 530 OFFCURVE",
"618 530 CURVE SMOOTH"
);
},
{
closed = 1;
nodes = (
"260 247 OFFCURVE",
"201 290 OFFCURVE",
"201 371 CURVE SMOOTH",
"201 453 OFFCURVE",
"261 500 OFFCURVE",
"365 500 CURVE SMOOTH",
"471 500 OFFCURVE",
"526 454 OFFCURVE",
"526 371 CURVE SMOOTH",
"526 289 OFFCURVE",
"473 247 OFFCURVE",
"365 247 CURVE SMOOTH"
);
},
{
closed = 1;
nodes = (
"528 70 OFFCURVE",
"557 36 OFFCURVE",
"557 -19 CURVE SMOOTH",
"557 -101 OFFCURVE",
"491 -137 OFFCURVE",
"369 -137 CURVE SMOOTH",
"238 -137 OFFCURVE",
"162 -96 OFFCURVE",
"162 -23 CURVE SMOOTH",
"162 43 OFFCURVE",
"236 88 OFFCURVE",
"268 86 CURVE SMOOTH",
"444 75 LINE SMOOTH"
);
}
);
};
guideLines = (
{
angle = 90;
position = "{24, 173}";
showMeasurement = 1;
}
);
layerId = "91AB5BCA-6A50-42DA-B2F7-8181BF189245";
paths = (
{
closed = 1;
nodes = (
"350 -171 OFFCURVE",
"439 -116 OFFCURVE",
"452 -19 CURVE SMOOTH",
"462 58 OFFCURVE",
"425 107 OFFCURVE",
"327 113 CURVE SMOOTH",
"280 116 OFFCURVE",
"245 118 OFFCURVE",
"217 120 CURVE SMOOTH",
"139 126 OFFCURVE",
"118 133 OFFCURVE",
"121 156 CURVE SMOOTH",
"124 178 OFFCURVE",
"156 202 OFFCURVE",
"254 204 CURVE SMOOTH",
"257 204 OFFCURVE",
"260 204 OFFCURVE",
"264 204 CURVE SMOOTH",
"394 204 OFFCURVE",
"460 273 OFFCURVE",
"472 360 CURVE SMOOTH",
"477 397 OFFCURVE",
"468 422 OFFCURVE",
"465 433 CURVE SMOOTH",
"461 445 OFFCURVE",
"461 447 OFFCURVE",
"484 452 CURVE SMOOTH",
"507 457 OFFCURVE",
"517 459 OFFCURVE",
"552 466 CURVE",
"560 523 LINE",
"522 508 OFFCURVE",
"480 490 OFFCURVE",
"456 479 CURVE SMOOTH",
"449 476 OFFCURVE",
"446 474 OFFCURVE",
"440 480 CURVE SMOOTH",
"412 509 OFFCURVE",
"374 524 OFFCURVE",
"313 524 CURVE SMOOTH",
"191 524 OFFCURVE",
"110 463 OFFCURVE",
"97 360 CURVE SMOOTH",
"88 295 OFFCURVE",
"106 257 OFFCURVE",
"163 222 CURVE",
"114 207 OFFCURVE",
"86 183 OFFCURVE",
"82 155 CURVE SMOOTH",
"79 133 OFFCURVE",
"87 118 OFFCURVE",
"110 106 CURVE SMOOTH",
"117 103 OFFCURVE",
"116 99 OFFCURVE",
"108 95 CURVE SMOOTH",
"47 61 OFFCURVE",
"14 20 OFFCURVE",
"8 -26 CURVE SMOOTH",
"-5 -117 OFFCURVE",
"67 -171 OFFCURVE",
"210 -171 CURVE SMOOTH"
);
},
{
closed = 1;
nodes = (
"102 -133 OFFCURVE",
"37 -94 OFFCURVE",
"47 -22 CURVE SMOOTH",
"56 42 OFFCURVE",
"130 86 OFFCURVE",
"160 84 CURVE SMOOTH",
"320 73 LINE SMOOTH",
"398 68 OFFCURVE",
"420 35 OFFCURVE",
"413 -19 CURVE SMOOTH",
"403 -98 OFFCURVE",
"336 -133 OFFCURVE",
"223 -133 CURVE SMOOTH"
);
},
{
closed = 1;
nodes = (
"172 241 OFFCURVE",
"124 283 OFFCURVE",
"134 361 CURVE SMOOTH",
"144 441 OFFCURVE",
"206 487 OFFCURVE",
"303 487 CURVE SMOOTH",
"401 487 OFFCURVE",
"447 442 OFFCURVE",
"435 361 CURVE SMOOTH",
"424 282 OFFCURVE",
"370 241 OFFCURVE",
"270 241 CURVE SMOOTH"
);
}
);
width = 571;
}
);
leftKerningGroup = g;
unicode = 0067;
},
{
glyphname = gcommaaccent;
lastChange = "2018-04-30 19:32:15 +0000";
layers = (
{
anchors = (
{
name = _top;
position = "{370, 536}";
}
);
background = {
anchors = (
{
name = _top;
position = "{380, 550}";
}
);
components = (
{
name = g;
}
);
paths = (
{
closed = 1;
nodes = (
"437 599 LINE SMOOTH",
"447 599 OFFCURVE",
"453 604 OFFCURVE",
"455 618 CURVE SMOOTH",
"465 682 LINE SMOOTH",
"468 698 OFFCURVE",
"465 702 OFFCURVE",
"454 702 CURVE SMOOTH",
"424 702 LINE SMOOTH",
"413 702 OFFCURVE",
"411 714 OFFCURVE",
"423 728 CURVE SMOOTH",
"468 780 LINE SMOOTH",
"475 788 OFFCURVE",
"474 796 OFFCURVE",
"467 796 CURVE SMOOTH",
"439 796 LINE SMOOTH",
"425 796 OFFCURVE",
"419 787 OFFCURVE",
"409 777 CURVE SMOOTH",
"349 718 LINE SMOOTH",
"343 712 OFFCURVE",
"338 702 OFFCURVE",
"337 695 CURVE SMOOTH",
"325 613 LINE SMOOTH",
"324 603 OFFCURVE",
"330 599 OFFCURVE",
"341 599 CURVE SMOOTH"
);
}
);
};
components = (
{
name = g;
}
);
layerId = "258ED206-D907-4350-8EBA-CBDDA1C16BF7";
paths = (
{
closed = 1;
nodes = (
"440 584 LINE",
"456 684 LINE",
"391 684 LINE",
"470 776 LINE",
"417 776 LINE",
"330 690 LINE",
"315 584 LINE"
);
}
);
width = 630;
},
{
anchors = (
{
name = _top;
position = "{342, 536}";
}
);
background = {
anchors = (
{
name = _top;
position = "{368, 550}";
}
);
components = (
{
name = g;
transform = "{1, 0, 0, 1, 8, 0}";
}
);
paths = (
{
closed = 1;
nodes = (
"400 632 LINE SMOOTH",
"404 632 OFFCURVE",
"406 634 OFFCURVE",
"407 641 CURVE SMOOTH",
"416 707 LINE SMOOTH",
"417 712 OFFCURVE",
"416 715 OFFCURVE",
"410 715 CURVE SMOOTH",
"399 715 LINE SMOOTH",
"394 715 OFFCURVE",
"393 717 OFFCURVE",
"398 725 CURVE SMOOTH",
"431 779 LINE SMOOTH",
"434 783 OFFCURVE",
"433 786 OFFCURVE",
"429 786 CURVE SMOOTH",
"413 786 LINE SMOOTH",
"409 786 OFFCURVE",
"405 785 OFFCURVE",
"401 779 CURVE SMOOTH",
"365 726 LINE SMOOTH",
"362 722 OFFCURVE",
"360 717 OFFCURVE",
"359 713 CURVE SMOOTH",
"349 638 LINE SMOOTH",
"348 633 OFFCURVE",
"349 632 OFFCURVE",
"353 632 CURVE SMOOTH"
);
}
);
};
components = (
{
name = g;
}
);
layerId = "91AB5BCA-6A50-42DA-B2F7-8181BF189245";
paths = (
{
closed = 1;
nodes = (
"377 616 LINE",
"387 697 LINE",
"364 697 LINE",
"404 766 LINE",
"377 766 LINE",
"335 700 LINE",
"323 616 LINE"
);
}
);
width = 571;
}
);
leftKerningGroup = g;
unicode = 0123;
},
{
glyphname = h;
lastChange = "2018-04-30 19:32:15 +0000";
layers = (
{
anchors = (
{
name = bottom;
position = "{271, 0}";
},
{
name = top;
position = "{478, 516}";
}
);
background = {
anchors = (
{
name = bottom;
position = "{382, 0}";
},
{
name = top;
position = "{521, 530}";
}
);
paths = (
{
closed = 1;
nodes = (
"285 0 LINE SMOOTH",
"309 0 OFFCURVE",
"318 8 OFFCURVE",
"318 29 CURVE SMOOTH",
"318 349 LINE",
"337 383 OFFCURVE",
"361 399 OFFCURVE",
"392 399 CURVE SMOOTH",
"424 399 OFFCURVE",
"444 381 OFFCURVE",
"444 351 CURVE SMOOTH",
"444 25 LINE SMOOTH",
"444 6 OFFCURVE",
"450 0 OFFCURVE",
"467 0 CURVE SMOOTH",
"614 0 LINE SMOOTH",
"635 0 OFFCURVE",
"644 10 OFFCURVE",
"644 30 CURVE SMOOTH",
"644 375 LINE SMOOTH",
"644 481 OFFCURVE",
"587 540 OFFCURVE",
"488 540 CURVE SMOOTH",
"435 540 OFFCURVE",
"385 523 OFFCURVE",
"328 468 CURVE SMOOTH",
"320 461 OFFCURVE",
"315 464 OFFCURVE",
"315 472 CURVE SMOOTH",
"315 721 LINE SMOOTH",
"315 734 OFFCURVE",
"309 742 OFFCURVE",
"297 742 CURVE SMOOTH",
"137 742 LINE SMOOTH",
"125 742 OFFCURVE",
"118 733 OFFCURVE",
"118 719 CURVE SMOOTH",
"118 25 LINE SMOOTH",
"118 7 OFFCURVE",
"125 0 OFFCURVE",
"144 0 CURVE SMOOTH"
);
}
);
};
layerId = "258ED206-D907-4350-8EBA-CBDDA1C16BF7";
paths = (
{
closed = 1;
nodes = (
"208 0 LINE",
"256 340 LINE",
"280 373 OFFCURVE",
"305 389 OFFCURVE",
"335 389 CURVE SMOOTH",
"366 389 OFFCURVE",
"383 371 OFFCURVE",
"379 342 CURVE SMOOTH",
"331 0 LINE",
"526 0 LINE",
"577 365 LINE SMOOTH",
"591 469 OFFCURVE",
"545 526 OFFCURVE",
"448 526 CURVE SMOOTH",
"393 526 OFFCURVE",
"318 498 OFFCURVE",
"263 414 CURVE",
"310 742 LINE",
"118 742 LINE",
"14 0 LINE"
);
}
);
width = 608;
},
{
anchors = (
{
name = bottom;
position = "{255, 0}";
},
{
name = top;
position = "{344, 516}";
}
);
background = {
anchors = (
{
name = bottom;
position = "{383, 0}";
},
{
name = top;
position = "{405, 530}";
}
);
paths = (
{
closed = 1;
nodes = (
"202 0 LINE SMOOTH",
"208 0 OFFCURVE",
"211 3 OFFCURVE",
"211 9 CURVE SMOOTH",
"211 410 LINE",
"291 471 OFFCURVE",
"338 502 OFFCURVE",
"409 502 CURVE SMOOTH",
"496 502 OFFCURVE",
"532 455 OFFCURVE",
"532 377 CURVE SMOOTH",
"532 9 LINE SMOOTH",
"532 3 OFFCURVE",
"535 0 OFFCURVE",
"541 0 CURVE SMOOTH",
"563 0 LINE SMOOTH",
"569 0 OFFCURVE",
"572 3 OFFCURVE",
"572 10 CURVE SMOOTH",
"572 393 LINE SMOOTH",
"572 480 OFFCURVE",
"517 540 OFFCURVE",
"410 540 CURVE SMOOTH",
"337 540 OFFCURVE",
"292 511 OFFCURVE",
"216 457 CURVE SMOOTH",
"210 452 OFFCURVE",
"208 453 OFFCURVE",
"208 460 CURVE SMOOTH",
"208 734 LINE SMOOTH",
"208 740 OFFCURVE",
"206 742 OFFCURVE",
"200 742 CURVE SMOOTH",
"179 742 LINE SMOOTH",
"173 742 OFFCURVE",
"171 739 OFFCURVE",
"171 733 CURVE SMOOTH",
"171 9 LINE SMOOTH",
"171 3 OFFCURVE",
"174 0 OFFCURVE",
"180 0 CURVE SMOOTH"
);
}
);
};
layerId = "91AB5BCA-6A50-42DA-B2F7-8181BF189245";
paths = (
{
closed = 1;
nodes = (
"97 0 LINE",
"149 399 LINE",
"231 459 OFFCURVE",
"278 489 OFFCURVE",
"344 489 CURVE SMOOTH",
"424 489 OFFCURVE",
"453 443 OFFCURVE",
"442 367 CURVE SMOOTH",
"393 0 LINE",
"430 0 LINE",
"481 383 LINE SMOOTH",
"493 468 OFFCURVE",
"450 526 OFFCURVE",
"350 526 CURVE SMOOTH",
"280 526 OFFCURVE",
"232 496 OFFCURVE",
"152 439 CURVE",
"192 742 LINE",
"158 742 LINE",
"59 0 LINE"
);
}
);
width = 548;
}
);
unicode = 0068;
},
{
glyphname = hbar;
lastChange = "2018-04-30 19:32:15 +0000";
layers = (
{
background = {
components = (
{
name = h;
transform = "{1, 0, 0, 1, 16, 0}";
}
);
paths = (
{
closed = 1;
nodes = (
"452 674 OFFCURVE",
"443 687 OFFCURVE",
"433 687 CURVE SMOOTH",
"94 687 LINE SMOOTH",
"84 687 OFFCURVE",
"82 686 OFFCURVE",
"80 673 CURVE SMOOTH",
"71 608 LINE SMOOTH",
"69 593 OFFCURVE",
"76 580 OFFCURVE",
"93 580 CURVE SMOOTH",
"413 580 LINE SMOOTH",
"433 580 OFFCURVE",
"439 581 OFFCURVE",
"441 598 CURVE SMOOTH",
"450 663 LINE SMOOTH"
);
}
);
};
components = (
{
name = h;
transform = "{1, 0, 0, 1, 16, 0}";
}
);
layerId = "258ED206-D907-4350-8EBA-CBDDA1C16BF7";
paths = (
{
closed = 1;
nodes = (
"80 669 LINE",
"66 565 LINE",
"428 565 LINE",
"442 669 LINE"
);
}
);
width = 624;
},
{
background = {
components = (
{
name = h;
transform = "{1, 0, 0, 1, -35, 0}";
}
);
paths = (
{
closed = 1;
nodes = (
"366 659 OFFCURVE",
"364 662 OFFCURVE",
"361 662 CURVE SMOOTH",
"82 662 LINE SMOOTH",
"79 662 OFFCURVE",
"78 661 OFFCURVE",
"77 656 CURVE SMOOTH",
"74 636 LINE SMOOTH",
"73 630 OFFCURVE",
"75 627 OFFCURVE",
"81 627 CURVE SMOOTH",
"353 627 LINE SMOOTH",
"360 627 OFFCURVE",
"362 628 OFFCURVE",
"363 634 CURVE SMOOTH",
"366 655 LINE SMOOTH"
);
}
);
};
components = (
{
name = h;
transform = "{1, 0, 0, 1, -43, 0}";
}
);
layerId = "91AB5BCA-6A50-42DA-B2F7-8181BF189245";
paths = (
{
closed = 1;
nodes = (
"73 645 LINE",
"69 611 LINE",
"336 611 LINE",
"341 645 LINE"
);
}
);
width = 505;
}
);
rightMetricsKey = h;
unicode = 0127;
},
{
glyphname = i;
lastChange = "2018-04-30 19:32:15 +0000";
layers = (
{
background = {
paths = (
{
closed = 1;
nodes = (
"319 522 OFFCURVE",
"312 530 OFFCURVE",
"301 530 CURVE SMOOTH",
"138 530 LINE SMOOTH",
"126 530 OFFCURVE",
"119 522 OFFCURVE",
"119 507 CURVE SMOOTH",
"119 25 LINE SMOOTH",
"119 8 OFFCURVE",
"125 0 OFFCURVE",
"145 0 CURVE SMOOTH",
"286 0 LINE SMOOTH",
"309 0 OFFCURVE",
"319 8 OFFCURVE",
"319 29 CURVE SMOOTH",
"319 510 LINE SMOOTH"
);
},
{
closed = 1;
nodes = (
"319 734 OFFCURVE",
"312 742 OFFCURVE",
"301 742 CURVE SMOOTH",
"138 742 LINE SMOOTH",
"126 742 OFFCURVE",
"119 734 OFFCURVE",
"119 719 CURVE SMOOTH",
"119 600 LINE SMOOTH",
"119 583 OFFCURVE",
"125 574 OFFCURVE",
"145 574 CURVE SMOOTH",
"286 574 LINE SMOOTH",
"309 574 OFFCURVE",
"319 583 OFFCURVE",
"319 603 CURVE SMOOTH",
"319 721 LINE SMOOTH"
);
}
);
};
layerId = "258ED206-D907-4350-8EBA-CBDDA1C16BF7";
paths = (
{
closed = 1;
nodes = (
"87 516 LINE",
"15 0 LINE",
"209 0 LINE",
"281 516 LINE"
);
},
{
closed = 1;
nodes = (
"119 742 LINE",
"95 579 LINE",
"290 579 LINE",
"314 742 LINE"
);
}
);
width = 292;
},
{
background = {
paths = (
{
closed = 1;
nodes = (
"222 528 OFFCURVE",
"220 530 OFFCURVE",
"213 530 CURVE SMOOTH",
"191 530 LINE SMOOTH",
"184 530 OFFCURVE",
"182 528 OFFCURVE",
"182 520 CURVE SMOOTH",
"182 10 LINE SMOOTH",
"182 2 OFFCURVE",
"184 0 OFFCURVE",
"193 0 CURVE SMOOTH",
"210 0 LINE SMOOTH",
"220 0 OFFCURVE",
"222 2 OFFCURVE",
"222 12 CURVE SMOOTH",
"222 520 LINE SMOOTH"
);
},
{
closed = 1;
nodes = (
"227 737 OFFCURVE",
"222 742 OFFCURVE",
"215 742 CURVE SMOOTH",
"189 742 LINE SMOOTH",
"182 742 OFFCURVE",
"177 737 OFFCURVE",
"177 729 CURVE SMOOTH",
"177 658 LINE SMOOTH",
"177 650 OFFCURVE",
"179 644 OFFCURVE",
"188 644 CURVE SMOOTH",
"215 644 LINE SMOOTH",
"225 644 OFFCURVE",
"227 650 OFFCURVE",
"227 660 CURVE SMOOTH",
"227 729 LINE SMOOTH"
);
}
);
};
layerId = "91AB5BCA-6A50-42DA-B2F7-8181BF189245";
paths = (
{
closed = 1;
nodes = (
"139 516 LINE",
"69 0 LINE",
"106 0 LINE",
"175 516 LINE"
);
},
{
closed = 1;
nodes = (
"164 742 LINE",
"151 647 LINE",
"197 647 LINE",
"211 742 LINE"
);
}
);
width = 239;
}
);
unicode = 0069;
},
{
glyphname = idotless;
lastChange = "2018-04-30 19:32:15 +0000";
layers = (
{
anchors = (
{
name = ogonek;
position = "{178, 9}";
},
{
name = top;
position = "{183, 516}";
}
);
background = {
anchors = (
{
name = ogonek;
position = "{183, 9}";
},
{
name = top;
position = "{188, 530}";
}
);
paths = (
{
closed = 1;
nodes = (
"286 516 OFFCURVE",
"277 530 OFFCURVE",
"266 530 CURVE SMOOTH",
"103 530 LINE SMOOTH",
"91 530 OFFCURVE",
"88 528 OFFCURVE",
"86 513 CURVE SMOOTH",
"18 31 LINE SMOOTH",
"16 14 OFFCURVE",
"24 0 OFFCURVE",
"44 0 CURVE SMOOTH",
"185 0 LINE SMOOTH",
"208 0 OFFCURVE",
"214 2 OFFCURVE",
"217 23 CURVE SMOOTH",
"285 504 LINE SMOOTH"
);
}
);
};
layerId = "258ED206-D907-4350-8EBA-CBDDA1C16BF7";
paths = (
{
closed = 1;
nodes = (
"86 516 LINE",
"14 0 LINE",
"208 0 LINE",
"281 516 LINE"
);
}
);
width = 291;
},
{
anchors = (
{
name = ogonek;
position = "{95, 13}";
},
{
name = top;
position = "{150, 516}";
}
);
background = {
anchors = (
{
name = ogonek;
position = "{100, 13}";
},
{
name = top;
position = "{160, 530}";
}
);
paths = (
{
closed = 1;
nodes = (
"180 527 OFFCURVE",
"177 530 OFFCURVE",
"170 530 CURVE SMOOTH",
"148 530 LINE SMOOTH",
"141 530 OFFCURVE",
"140 529 OFFCURVE",
"139 521 CURVE SMOOTH",
"67 11 LINE SMOOTH",
"66 3 OFFCURVE",
"69 0 OFFCURVE",
"78 0 CURVE SMOOTH",
"95 0 LINE SMOOTH",
"105 0 OFFCURVE",
"106 1 OFFCURVE",
"107 11 CURVE SMOOTH",
"179 519 LINE SMOOTH"
);
}
);
};
layerId = "91AB5BCA-6A50-42DA-B2F7-8181BF189245";
paths = (
{
closed = 1;
nodes = (
"132 516 LINE",
"62 0 LINE",
"100 0 LINE",
"170 516 LINE"
);
}
);
width = 232;
}
);
unicode = 0131;
},
{
glyphname = j;
lastChange = "2018-04-30 19:32:15 +0000";
layers = (
{
background = {
paths = (
{
closed = 1;
nodes = (
"335 510 LINE SMOOTH",
"335 522 OFFCURVE",
"329 530 OFFCURVE",
"317 530 CURVE SMOOTH",
"155 530 LINE SMOOTH",
"143 530 OFFCURVE",
"135 522 OFFCURVE",
"135 507 CURVE SMOOTH",
"135 36 LINE SMOOTH",
"135 2 OFFCURVE",
"124 -6 OFFCURVE",
"111 -10 CURVE SMOOTH",
"76 -16 LINE SMOOTH",
"63 -19 OFFCURVE",
"56 -32 OFFCURVE",
"56 -43 CURVE SMOOTH",
"57 -145 LINE SMOOTH",
"57 -166 OFFCURVE",
"69 -170 OFFCURVE",
"125 -170 CURVE SMOOTH",
"267 -170 OFFCURVE",
"335 -103 OFFCURVE",
"335 29 CURVE SMOOTH"
);
},
{
closed = 1;
nodes = (
"335 734 OFFCURVE",
"329 742 OFFCURVE",
"317 742 CURVE SMOOTH",
"155 742 LINE SMOOTH",
"143 742 OFFCURVE",
"135 734 OFFCURVE",
"135 719 CURVE SMOOTH",
"135 600 LINE SMOOTH",
"135 583 OFFCURVE",
"142 574 OFFCURVE",
"162 574 CURVE SMOOTH",
"303 574 LINE SMOOTH",
"303 574 OFFCURVE",
"335 583 OFFCURVE",
"335 603 CURVE SMOOTH",
"335 721 LINE SMOOTH"
);
}
);
};
layerId = "258ED206-D907-4350-8EBA-CBDDA1C16BF7";
paths = (
{
closed = 1;
nodes = (
"297 516 LINE",
"103 516 LINE",
"34 28 LINE",
"31 7 OFFCURVE",
"19 -6 OFFCURVE",
"-19 -14 CURVE",
"-49 -19 LINE",
"-67 -149 LINE",
"-67 -149 OFFCURVE",
"-54 -166 OFFCURVE",
"-3 -166 CURVE",
"136 -166 OFFCURVE",
"211 -100 OFFCURVE",
"229 28 CURVE SMOOTH"
);
},
{
closed = 1;
nodes = (
"135 742 LINE",
"111 579 LINE",
"306 579 LINE",
"330 742 LINE"
);
}
);
width = 316;
},
{
background = {
paths = (
{
closed = 1;
nodes = (
"215 520 LINE SMOOTH",
"215 527 OFFCURVE",
"213 530 OFFCURVE",
"207 530 CURVE SMOOTH",
"185 530 LINE SMOOTH",
"178 530 OFFCURVE",
"175 527 OFFCURVE",
"175 520 CURVE SMOOTH",
"175 -46 LINE SMOOTH",
"175 -110 OFFCURVE",
"154 -132 OFFCURVE",
"101 -133 CURVE SMOOTH",
"43 -134 LINE SMOOTH",
"39 -134 OFFCURVE",
"37 -136 OFFCURVE",
"37 -140 CURVE SMOOTH",
"37 -161 LINE SMOOTH",
"37 -169 OFFCURVE",
"43 -170 OFFCURVE",
"102 -170 CURVE SMOOTH",
"193 -170 OFFCURVE",
"215 -133 OFFCURVE",
"215 -51 CURVE SMOOTH"
);
},
{
closed = 1;
nodes = (
"220 737 OFFCURVE",
"215 742 OFFCURVE",
"208 742 CURVE SMOOTH",
"182 742 LINE SMOOTH",
"175 742 OFFCURVE",
"170 737 OFFCURVE",
"170 729 CURVE SMOOTH",
"170 658 LINE SMOOTH",
"170 650 OFFCURVE",
"172 644 OFFCURVE",
"181 644 CURVE SMOOTH",
"208 644 LINE SMOOTH",
"218 644 OFFCURVE",
"220 650 OFFCURVE",
"220 660 CURVE SMOOTH",
"220 729 LINE SMOOTH"
);
}
);
};
layerId = "91AB5BCA-6A50-42DA-B2F7-8181BF189245";
paths = (
{
closed = 1;
nodes = (
"167 516 LINE",
"130 516 LINE",
"55 -45 LINE SMOOTH",
"47 -107 OFFCURVE",
"25 -129 OFFCURVE",
"-25 -130 CURVE SMOOTH",
"-84 -131 LINE",
"-88 -157 LINE SMOOTH",
"-88 -157 OFFCURVE",
"-83 -166 OFFCURVE",
"-28 -166 CURVE SMOOTH",
"56 -166 OFFCURVE",
"82 -130 OFFCURVE",
"92 -50 CURVE SMOOTH"
);
},
{
closed = 1;
nodes = (
"156 742 LINE",
"143 647 LINE",
"190 647 LINE",
"202 742 LINE"
);
}
);
width = 225;
}
);
unicode = 006A;
},
{
glyphname = jdotless;
lastChange = "2018-04-30 19:32:15 +0000";
layers = (
{
anchors = (
{
name = top;
position = "{180, 516}";
}
);
background = {
anchors = (
{
name = top;
position = "{184, 530}";
}
);
paths = (
{
closed = 1;
nodes = (
"284 504 LINE SMOOTH",
"285 516 OFFCURVE",
"277 530 OFFCURVE",
"265 530 CURVE SMOOTH",
"103 530 LINE SMOOTH",
"91 530 OFFCURVE",
"87 528 OFFCURVE",
"85 513 CURVE SMOOTH",
"19 42 LINE SMOOTH",
"14 8 OFFCURVE",
"-3 -4 OFFCURVE",
"-16 -8 CURVE SMOOTH",
"-42 -15 LINE SMOOTH",
"-56 -18 OFFCURVE",
"-60 -26 OFFCURVE",
"-61 -37 CURVE SMOOTH",
"-75 -139 LINE SMOOTH",
"-78 -160 OFFCURVE",
"-63 -170 OFFCURVE",
"-13 -170 CURVE SMOOTH",
"100 -170 OFFCURVE",
"197 -109 OFFCURVE",
"216 23 CURVE SMOOTH"
);
}
);
};
layerId = "258ED206-D907-4350-8EBA-CBDDA1C16BF7";
paths = (
{
closed = 1;
nodes = (
"291 516 LINE",
"95 516 LINE",
"29 41 LINE",
"27 27 OFFCURVE",
"24 -3 OFFCURVE",
"-19 -11 CURVE",
"-56 -18 LINE",
"-74 -145 LINE SMOOTH",
"-74 -145 OFFCURVE",
"-61 -166 OFFCURVE",
"-3 -166 CURVE SMOOTH",
"132 -166 OFFCURVE",
"202 -106 OFFCURVE",
"221 22 CURVE SMOOTH"
);
}
);
width = 323;
},
{
anchors = (
{
name = top;
position = "{131, 516}";
}
);
background = {
anchors = (
{
name = top;
position = "{141, 530}";
}
);
paths = (
{
closed = 1;
nodes = (
"160 519 LINE SMOOTH",
"161 526 OFFCURVE",
"158 530 OFFCURVE",
"152 530 CURVE SMOOTH",
"130 530 LINE SMOOTH",
"123 530 OFFCURVE",
"121 528 OFFCURVE",
"120 521 CURVE SMOOTH",
"40 -45 LINE SMOOTH",
"31 -109 OFFCURVE",
"6 -132 OFFCURVE",
"-47 -133 CURVE SMOOTH",
"-105 -134 LINE SMOOTH",
"-109 -134 OFFCURVE",
"-110 -135 OFFCURVE",
"-111 -139 CURVE SMOOTH",
"-114 -160 LINE SMOOTH",
"-115 -168 OFFCURVE",
"-108 -170 OFFCURVE",
"-48 -170 CURVE SMOOTH",
"42 -170 OFFCURVE",
"68 -134 OFFCURVE",
"79 -52 CURVE SMOOTH"
);
}
);
};
layerId = "91AB5BCA-6A50-42DA-B2F7-8181BF189245";
paths = (
{
closed = 1;
nodes = (
"151 516 LINE",
"113 516 LINE",
"38 -44 LINE SMOOTH",
"29 -106 OFFCURVE",
"6 -129 OFFCURVE",
"-43 -130 CURVE SMOOTH",
"-101 -131 LINE",
"-105 -158 LINE SMOOTH",
"-105 -158 OFFCURVE",
"-97 -166 OFFCURVE",
"-44 -166 CURVE SMOOTH",
"40 -166 OFFCURVE",
"63 -131 OFFCURVE",
"74 -51 CURVE SMOOTH"
);
}
);
width = 205;
}
);
unicode = 0237;
},
{
glyphname = k;
lastChange = "2018-04-30 19:32:15 +0000";
layers = (
{
anchors = (
{
name = bottom;
position = "{267, 0}";
}
);
background = {
anchors = (
{
name = bottom;
position = "{378, 0}";
}
);
paths = (
{
closed = 1;
nodes = (
"531 337 LINE SMOOTH",
"522 355 OFFCURVE",
"524 361 OFFCURVE",
"533 372 CURVE SMOOTH",
"662 501 LINE SMOOTH",
"675 515 OFFCURVE",
"671 530 OFFCURVE",
"648 530 CURVE SMOOTH",
"511 530 LINE SMOOTH",
"501 530 OFFCURVE",
"490 523 OFFCURVE",
"480 513 CURVE SMOOTH",
"330 344 LINE SMOOTH",
"322 335 OFFCURVE",
"318 340 OFFCURVE",
"318 346 CURVE SMOOTH",
"318 721 LINE SMOOTH",
"318 734 OFFCURVE",
"312 742 OFFCURVE",
"300 742 CURVE SMOOTH",
"137 742 LINE SMOOTH",
"126 742 OFFCURVE",
"118 734 OFFCURVE",
"118 719 CURVE SMOOTH",
"118 25 LINE SMOOTH",
"118 8 OFFCURVE",
"124 0 OFFCURVE",
"145 0 CURVE SMOOTH",
"286 0 LINE SMOOTH",
"309 0 OFFCURVE",
"318 8 OFFCURVE",
"318 29 CURVE SMOOTH",
"318 130 LINE SMOOTH",
"318 146 OFFCURVE",
"321 153 OFFCURVE",
"327 158 CURVE SMOOTH",
"375 203 LINE SMOOTH",
"385 213 OFFCURVE",
"390 211 OFFCURVE",
"396 198 CURVE SMOOTH",
"468 26 LINE SMOOTH",
"475 10 OFFCURVE",
"484 0 OFFCURVE",
"501 0 CURVE SMOOTH",
"672 0 LINE SMOOTH",
"690 0 OFFCURVE",
"697 17 OFFCURVE",
"691 28 CURVE SMOOTH"
);
}
);
};
guideLines = (
{
angle = -63.9531;
position = "{468, 148}";
},
{
angle = 44.2258;
position = "{417, 503}";
}
);
layerId = "258ED206-D907-4350-8EBA-CBDDA1C16BF7";
paths = (
{
closed = 1;
nodes = (
"406 303 LINE",
"625 516 LINE",
"428 516 LINE",
"260 359 LINE",
"313 742 LINE",
"118 742 LINE",
"14 0 LINE",
"208 0 LINE",
"229 146 LINE",
"273 190 LINE",
"365 0 LINE",
"554 0 LINE"
);
}
);
width = 598;
},
{
anchors = (
{
name = bottom;
position = "{228, 0}";
}
);
background = {
anchors = (
{
name = bottom;
position = "{353, 0}";
}
);
paths = (
{
closed = 1;
nodes = (
"386 331 LINE SMOOTH",
"383 336 OFFCURVE",
"384 339 OFFCURVE",
"387 342 CURVE SMOOTH",
"556 515 LINE SMOOTH",
"565 524 OFFCURVE",
"564 530 OFFCURVE",
"554 530 CURVE SMOOTH",
"522 530 LINE SMOOTH",
"515 530 OFFCURVE",
"512 528 OFFCURVE",
"505 520 CURVE",
"221 229 LINE SMOOTH",
"213 221 OFFCURVE",
"211 222 OFFCURVE",
"211 234 CURVE SMOOTH",
"211 732 LINE SMOOTH",
"211 740 OFFCURVE",
"209 742 OFFCURVE",
"202 742 CURVE SMOOTH",
"180 742 LINE SMOOTH",
"173 742 OFFCURVE",
"171 740 OFFCURVE",
"171 732 CURVE SMOOTH",
"171 10 LINE SMOOTH",
"171 2 OFFCURVE",
"173 0 OFFCURVE",
"182 0 CURVE SMOOTH",
"199 0 LINE SMOOTH",
"209 0 OFFCURVE",
"211 2 OFFCURVE",
"211 12 CURVE SMOOTH",
"211 152 LINE SMOOTH",
"211 159 OFFCURVE",
"213 164 OFFCURVE",
"218 169 CURVE SMOOTH",
"346 299 LINE SMOOTH",
"351 304 OFFCURVE",
"352 302 OFFCURVE",
"354 299 CURVE SMOOTH",
"536 7 LINE SMOOTH",
"539 2 OFFCURVE",
"542 0 OFFCURVE",
"548 0 CURVE SMOOTH",
"579 0 LINE SMOOTH",
"588 0 OFFCURVE",
"589 4 OFFCURVE",
"584 12 CURVE SMOOTH"
);
}
);
};
guideLines = (
{
angle = 121.8697;
position = "{28, 71}";
},
{
angle = 221.5891;
position = "{46, 245}";
},
{
angle = -64.3258;
position = "{39, 0}";
}
);
layerId = "91AB5BCA-6A50-42DA-B2F7-8181BF189245";
paths = (
{
closed = 1;
nodes = (
"298 328 LINE",
"497 516 LINE",
"441 516 LINE",
"124 217 LINE",
"195 742 LINE",
"158 742 LINE",
"59 0 LINE",
"97 0 LINE",
"116 158 LINE",
"266 299 LINE",
"402 0 LINE",
"448 0 LINE"
);
}
);
width = 529;
}
);
leftMetricsKey = h;
rightKerningGroup = k;
unicode = 006B;
},
{
glyphname = kgreenlandic;
lastChange = "2018-04-30 19:32:15 +0000";
layers = (
{
background = {
paths = (
{
closed = 1;
nodes = (
"470 332 LINE SMOOTH",
"465 350 OFFCURVE",
"472 357 OFFCURVE",
"482 368 CURVE SMOOTH",
"632 497 LINE SMOOTH",
"646 511 OFFCURVE",
"637 530 OFFCURVE",
"614 530 CURVE SMOOTH",
"477 530 LINE SMOOTH",
"467 530 OFFCURVE",
"457 527 OFFCURVE",
"445 517 CURVE SMOOTH",
"271 348 LINE SMOOTH",
"263 339 OFFCURVE",
"261 334 OFFCURVE",
"262 340 CURVE SMOOTH",
"284 503 LINE SMOOTH",
"286 516 OFFCURVE",
"278 530 OFFCURVE",
"266 530 CURVE SMOOTH",
"103 530 LINE SMOOTH",
"92 530 OFFCURVE",
"88 528 OFFCURVE",
"86 513 CURVE SMOOTH",
"18 31 LINE SMOOTH",
"16 14 OFFCURVE",
"24 0 OFFCURVE",
"45 0 CURVE SMOOTH",
"186 0 LINE SMOOTH",
"209 0 OFFCURVE",
"214 2 OFFCURVE",
"217 23 CURVE SMOOTH",
"231 124 LINE SMOOTH",
"233 140 OFFCURVE",
"241 149 OFFCURVE",
"247 154 CURVE SMOOTH",
"303 199 LINE SMOOTH",
"313 209 OFFCURVE",
"318 216 OFFCURVE",
"322 203 CURVE SMOOTH",
"371 31 LINE SMOOTH",
"374 15 OFFCURVE",
"384 0 OFFCURVE",
"401 0 CURVE SMOOTH",
"572 0 LINE SMOOTH",
"590 0 OFFCURVE",
"592 12 OFFCURVE",
"588 23 CURVE SMOOTH"
);
}
);
};
layerId = "258ED206-D907-4350-8EBA-CBDDA1C16BF7";
paths = (
{
closed = 1;
nodes = (
"451 342 LINE",
"653 516 LINE",
"446 516 LINE",
"255 330 LINE",
"280 516 LINE",
"86 516 LINE",
"14 0 LINE",
"208 0 LINE",
"228 139 LINE",
"311 207 LINE",
"370 0 LINE",
"582 0 LINE"
);
}
);
width = 626;
},
{
background = {
paths = (
{
closed = 1;
nodes = (
"320 330 LINE SMOOTH",
"318 335 OFFCURVE",
"321 338 OFFCURVE",
"325 341 CURVE SMOOTH",
"518 514 LINE SMOOTH",
"528 523 OFFCURVE",
"526 530 OFFCURVE",
"516 530 CURVE SMOOTH",
"484 530 LINE SMOOTH",
"477 530 OFFCURVE",
"474 529 OFFCURVE",
"466 521 CURVE",
"141 230 LINE SMOOTH",
"132 222 OFFCURVE",
"131 221 OFFCURVE",
"133 233 CURVE SMOOTH",
"173 519 LINE SMOOTH",
"174 527 OFFCURVE",
"171 530 OFFCURVE",
"164 530 CURVE SMOOTH",
"142 530 LINE SMOOTH",
"135 530 OFFCURVE",
"134 529 OFFCURVE",
"133 521 CURVE SMOOTH",
"61 11 LINE SMOOTH",
"60 3 OFFCURVE",
"63 0 OFFCURVE",
"72 0 CURVE SMOOTH",
"89 0 LINE SMOOTH",
"99 0 OFFCURVE",
"100 1 OFFCURVE",
"101 11 CURVE SMOOTH",
"121 151 LINE SMOOTH",
"122 158 OFFCURVE",
"126 163 OFFCURVE",
"131 168 CURVE SMOOTH",
"278 298 LINE SMOOTH",
"283 303 OFFCURVE",
"284 303 OFFCURVE",
"286 300 CURVE SMOOTH",
"427 8 LINE SMOOTH",
"429 3 OFFCURVE",
"432 0 OFFCURVE",
"438 0 CURVE SMOOTH",
"469 0 LINE SMOOTH",
"478 0 OFFCURVE",
"477 3 OFFCURVE",
"473 11 CURVE SMOOTH"
);
}
);
};
layerId = "91AB5BCA-6A50-42DA-B2F7-8181BF189245";
paths = (
{
closed = 1;
nodes = (
"296 326 LINE",
"497 516 LINE",
"442 516 LINE",
"123 215 LINE",
"164 516 LINE",
"126 516 LINE",
"56 0 LINE",
"94 0 LINE",
"114 156 LINE",
"265 296 LINE",
"400 0 LINE",
"444 0 LINE"
);
}
);
width = 525;
}
);
leftMetricsKey = k;
rightKerningGroup = k;
rightMetricsKey = k;
unicode = 0138;
},
{
glyphname = l;
lastChange = "2018-04-30 19:32:15 +0000";
layers = (
{
anchors = (
{
name = bottom;
position = "{98, 0}";
},
{
name = top;
position = "{219, 765}";
},
{
name = topright;
position = "{462, 765}";
}
);
background = {
anchors = (
{
name = bottom;
position = "{163, 0}";
},
{
name = top;
position = "{219, 742}";
},
{
name = topright;
position = "{406, 530}";
}
);
paths = (
{
closed = 1;
nodes = (
"396 129 LINE",
"396 129 OFFCURVE",
"370 131 OFFCURVE",
"361 133 CURVE SMOOTH",
"322 142 OFFCURVE",
"315 163 OFFCURVE",
"315 190 CURVE SMOOTH",
"315 742 LINE",
"118 742 LINE",
"115 173 LINE",
"115 95 OFFCURVE",
"126 -1 OFFCURVE",
"321 2 CURVE SMOOTH",
"347 3 OFFCURVE",
"363 5 OFFCURVE",
"396 9 CURVE"
);
}
);
};
layerId = "258ED206-D907-4350-8EBA-CBDDA1C16BF7";
paths = (
{
closed = 1;
nodes = (
"235 -11 OFFCURVE",
"261 -4 OFFCURVE",
"284 5 CURVE",
"301 123 LINE",
"281 125 LINE",
"230 132 OFFCURVE",
"227 157 OFFCURVE",
"231 182 CURVE SMOOTH",
"310 742 LINE",
"119 742 LINE",
"36 156 LINE",
"25 80 OFFCURVE",
"19 -11 OFFCURVE",
"209 -11 CURVE SMOOTH"
);
}
);
width = 340;
},
{
anchors = (
{
name = bottom;
position = "{75, 0}";
},
{
name = top;
position = "{176, 762}";
},
{
name = topright;
position = "{306, 723}";
}
);
background = {
anchors = (
{
name = bottom;
position = "{188, 0}";
},
{
name = top;
position = "{188, 742}";
},
{
name = topright;
position = "{333, 742}";
}
);
paths = (
{
closed = 1;
nodes = (
"318 36 LINE",
"308 36 OFFCURVE",
"295 36 OFFCURVE",
"279 36 CURVE SMOOTH",
"215 36 OFFCURVE",
"208 87 OFFCURVE",
"208 130 CURVE",
"208 742 LINE",
"168 742 LINE",
"168 130 LINE",
"168 57 OFFCURVE",
"196 2 OFFCURVE",
"267 2 CURVE SMOOTH",
"291 2 OFFCURVE",
"305 3 OFFCURVE",
"318 6 CURVE"
);
}
);
};
layerId = "91AB5BCA-6A50-42DA-B2F7-8181BF189245";
paths = (
{
closed = 1;
nodes = (
"157 1 OFFCURVE",
"170 2 OFFCURVE",
"182 5 CURVE",
"187 34 LINE",
"156 34 LINE",
"130 34 OFFCURVE",
"103 58 OFFCURVE",
"113 126 CURVE",
"195 742 LINE",
"158 742 LINE",
"76 126 LINE",
"66 55 OFFCURVE",
"85 1 OFFCURVE",
"151 1 CURVE SMOOTH"
);
}
);
width = 282;
}
);
leftMetricsKey = h;
unicode = 006C;
},
{
glyphname = lslash;
lastChange = "2018-04-30 19:32:15 +0000";
layers = (
{
background = {
components = (
{
name = l;
transform = "{1, 0, 0, 1, 62, 0}";
}
);
paths = (
{
closed = 1;
nodes = (
"396 501 OFFCURVE",
"388 514 OFFCURVE",
"369 503 CURVE SMOOTH",
"63 327 LINE SMOOTH",
"51 319 OFFCURVE",
"45 311 OFFCURVE",
"43 296 CURVE SMOOTH",
"26 176 LINE SMOOTH",
"24 159 OFFCURVE",
"31 147 OFFCURVE",
"53 160 CURVE SMOOTH",
"358 342 LINE SMOOTH",
"371 351 OFFCURVE",
"376 360 OFFCURVE",
"378 372 CURVE SMOOTH",
"394 485 LINE SMOOTH"
);
}
);
};
components = (
{
name = l;
transform = "{1, 0, 0, 1, 62, 0}";
}
);
layerId = "258ED206-D907-4350-8EBA-CBDDA1C16BF7";
paths = (
{
closed = 1;
nodes = (
"45 309 LINE",
"21 137 LINE",
"366 343 LINE",
"389 507 LINE"
);
}
);
width = 386;
},
{
background = {
components = (
{
name = l;
transform = "{1, 0, 0, 1, -8, 0}";
}
);
paths = (
{
closed = 1;
nodes = (
"263 436 OFFCURVE",
"261 440 OFFCURVE",
"255 436 CURVE SMOOTH",
"1 226 LINE SMOOTH",
"-3 223 OFFCURVE",
"-4 220 OFFCURVE",
"-5 216 CURVE SMOOTH",
"-9 187 LINE SMOOTH",
"-10 182 OFFCURVE",
"-8 176 OFFCURVE",
"-2 180 CURVE SMOOTH",
"252 391 LINE SMOOTH",
"256 395 OFFCURVE",
"258 398 OFFCURVE",
"258 402 CURVE SMOOTH",
"262 432 LINE SMOOTH"
);
}
);
};
components = (
{
name = l;
transform = "{1, 0, 0, 1, -16, 0}";
}
);
layerId = "91AB5BCA-6A50-42DA-B2F7-8181BF189245";
paths = (
{
closed = 1;
nodes = (
"-3 216 LINE",
"-10 168 LINE",
"238 385 LINE",
"244 432 LINE"
);
}
);
width = 206;
}
);
unicode = 0142;
},
{
glyphname = m;
lastChange = "2018-04-30 19:32:15 +0000";
layers = (
{
background = {
guideLines = (
{
angle = 90;
position = "{401, 331}";
showMeasurement = 1;
}
);
paths = (
{
closed = 1;
nodes = (
"285 0 LINE SMOOTH",
"309 0 OFFCURVE",
"318 8 OFFCURVE",
"318 29 CURVE SMOOTH",
"318 349 LINE",
"337 383 OFFCURVE",
"362 399 OFFCURVE",
"392 399 CURVE SMOOTH",
"424 399 OFFCURVE",
"444 381 OFFCURVE",
"444 351 CURVE SMOOTH",
"444 25 LINE SMOOTH",
"444 6 OFFCURVE",
"451 0 OFFCURVE",
"467 0 CURVE SMOOTH",
"613 0 LINE SMOOTH",
"634 0 OFFCURVE",
"643 10 OFFCURVE",
"643 30 CURVE SMOOTH",
"643 333 LINE SMOOTH",
"643 342 OFFCURVE",
"644 350 OFFCURVE",
"651 360 CURVE SMOOTH",
"666 381 OFFCURVE",
"692 399 OFFCURVE",
"717 399 CURVE SMOOTH",
"748 399 OFFCURVE",
"769 381 OFFCURVE",
"769 351 CURVE SMOOTH",
"769 25 LINE SMOOTH",
"769 6 OFFCURVE",
"775 0 OFFCURVE",
"792 0 CURVE SMOOTH",
"938 0 LINE SMOOTH",
"959 0 OFFCURVE",
"969 10 OFFCURVE",
"969 30 CURVE SMOOTH",
"969 373 LINE SMOOTH",
"969 480 OFFCURVE",
"905 540 OFFCURVE",
"815 540 CURVE SMOOTH",
"755 540 OFFCURVE",
"679 497 OFFCURVE",
"642 446 CURVE SMOOTH",
"637 440 OFFCURVE",
"632 440 OFFCURVE",
"630 445 CURVE SMOOTH",
"607 507 OFFCURVE",
"555 541 OFFCURVE",
"488 541 CURVE SMOOTH",
"427 541 OFFCURVE",
"371 507 OFFCURVE",
"328 461 CURVE SMOOTH",
"320 453 OFFCURVE",
"315 457 OFFCURVE",
"315 465 CURVE SMOOTH",
"315 510 LINE SMOOTH",
"315 522 OFFCURVE",
"309 530 OFFCURVE",
"297 530 CURVE SMOOTH",
"137 530 LINE SMOOTH",
"126 530 OFFCURVE",
"118 521 OFFCURVE",
"118 507 CURVE SMOOTH",
"118 25 LINE SMOOTH",
"118 7 OFFCURVE",
"125 0 OFFCURVE",
"144 0 CURVE SMOOTH"
);
}
);
};
guideLines = (
{
angle = 90;
position = "{216, 314}";
showMeasurement = 1;
}
);
layerId = "258ED206-D907-4350-8EBA-CBDDA1C16BF7";
paths = (
{
closed = 1;
nodes = (
"208 0 LINE",
"256 341 LINE",
"260 370 OFFCURVE",
"295 389 OFFCURVE",
"324 389 CURVE SMOOTH",
"354 389 OFFCURVE",
"383 370 OFFCURVE",
"379 341 CURVE SMOOTH",
"331 0 LINE",
"525 0 LINE",
"568 310 LINE SMOOTH",
"570 319 OFFCURVE",
"571 327 OFFCURVE",
"573 341 CURVE SMOOTH",
"577 370 OFFCURVE",
"613 389 OFFCURVE",
"642 389 CURVE SMOOTH",
"671 389 OFFCURVE",
"699 370 OFFCURVE",
"696 341 CURVE SMOOTH",
"648 0 LINE",
"843 0 LINE",
"893 363 LINE SMOOTH",
"908 468 OFFCURVE",
"852 526 OFFCURVE",
"767 526 CURVE SMOOTH",
"714 526 OFFCURVE",
"638 508 OFFCURVE",
"573 407 CURVE",
"566 474 OFFCURVE",
"532 527 OFFCURVE",
"447 527 CURVE SMOOTH",
"395 527 OFFCURVE",
"316 508 OFFCURVE",
"264 416 CURVE",
"278 516 LINE",
"86 516 LINE",
"14 0 LINE"
);
}
);
width = 925;
},
{
background = {
guideLines = (
{
position = "{349, 454}";
}
);
paths = (
{
closed = 1;
nodes = (
"200 0 LINE SMOOTH",
"206 0 OFFCURVE",
"209 3 OFFCURVE",
"209 9 CURVE SMOOTH",
"209 410 LINE",
"285 471 OFFCURVE",
"330 502 OFFCURVE",
"397 502 CURVE SMOOTH",
"477 502 OFFCURVE",
"510 455 OFFCURVE",
"510 377 CURVE SMOOTH",
"510 9 LINE SMOOTH",
"510 3 OFFCURVE",
"514 0 OFFCURVE",
"519 0 CURVE SMOOTH",
"541 0 LINE SMOOTH",
"546 0 OFFCURVE",
"550 3 OFFCURVE",
"550 10 CURVE SMOOTH",
"550 393 LINE SMOOTH",
"550 407 OFFCURVE",
"555 413 OFFCURVE",
"567 423 CURVE SMOOTH",
"606 455 OFFCURVE",
"665 502 OFFCURVE",
"738 502 CURVE SMOOTH",
"818 502 OFFCURVE",
"851 455 OFFCURVE",
"851 377 CURVE SMOOTH",
"851 9 LINE SMOOTH",
"851 3 OFFCURVE",
"854 0 OFFCURVE",
"860 0 CURVE SMOOTH",
"882 0 LINE SMOOTH",
"888 0 OFFCURVE",
"891 3 OFFCURVE",
"891 10 CURVE SMOOTH",
"891 393 LINE SMOOTH",
"891 480 OFFCURVE",
"839 540 OFFCURVE",
"739 540 CURVE SMOOTH",
"670 540 OFFCURVE",
"627 511 OFFCURVE",
"555 457 CURVE SMOOTH",
"549 452 OFFCURVE",
"542 448 OFFCURVE",
"540 454 CURVE SMOOTH",
"527 494 OFFCURVE",
"482 540 OFFCURVE",
"398 540 CURVE SMOOTH",
"329 540 OFFCURVE",
"286 511 OFFCURVE",
"214 457 CURVE SMOOTH",
"208 452 OFFCURVE",
"206 453 OFFCURVE",
"206 460 CURVE SMOOTH",
"206 522 LINE SMOOTH",
"206 528 OFFCURVE",
"204 530 OFFCURVE",
"198 530 CURVE SMOOTH",
"177 530 LINE SMOOTH",
"171 530 OFFCURVE",
"169 527 OFFCURVE",
"169 521 CURVE SMOOTH",
"169 9 LINE SMOOTH",
"169 3 OFFCURVE",
"172 0 OFFCURVE",
"178 0 CURVE SMOOTH"
);
}
);
};
guideLines = (
{
position = "{33, 210}";
}
);
layerId = "91AB5BCA-6A50-42DA-B2F7-8181BF189245";
paths = (
{
closed = 1;
nodes = (
"95 0 LINE",
"147 399 LINE",
"226 459 OFFCURVE",
"271 489 OFFCURVE",
"333 489 CURVE SMOOTH",
"407 489 OFFCURVE",
"432 443 OFFCURVE",
"421 367 CURVE SMOOTH",
"373 0 LINE",
"410 0 LINE",
"460 383 LINE SMOOTH",
"462 397 OFFCURVE",
"468 402 OFFCURVE",
"480 412 CURVE SMOOTH",
"521 443 OFFCURVE",
"581 489 OFFCURVE",
"648 489 CURVE SMOOTH",
"722 489 OFFCURVE",
"747 443 OFFCURVE",
"738 367 CURVE SMOOTH",
"688 0 LINE",
"725 0 LINE",
"777 383 LINE SMOOTH",
"787 468 OFFCURVE",
"747 526 OFFCURVE",
"655 526 CURVE SMOOTH",
"598 526 OFFCURVE",
"563 509 OFFCURVE",
"460 436 CURVE",
"452 491 OFFCURVE",
"409 526 OFFCURVE",
"340 526 CURVE SMOOTH",
"273 526 OFFCURVE",
"227 496 OFFCURVE",
"150 439 CURVE",
"160 516 LINE",
"126 516 LINE",
"57 0 LINE"
);
}
);
width = 843;
}
);
leftKerningGroup = n;
leftMetricsKey = n;
rightMetricsKey = n;
unicode = 006D;
},
